<?xml version="1.0" encoding="UTF-8"?><svg xmlns="http://www.w3.org/2000/svg" xmlns:xlink="http://www.w3.org/1999/xlink" width="1805.25" zoomAndPan="magnify" viewBox="0 0 1805.25 618.749987" height="618.749987" preserveAspectRatio="xMidYMid meet" version="1.0"><path fill="rgb(85.488892%, 78.039551%, 9.408569%)" d="M 761.421875 469.574219 C 763.945312 468.933594 766.53125 468.546875 768.9375 469.410156 C 771.351562 470.273438 773.160156 472.25 774.800781 474.207031 C 781.1875 481.808594 787.851562 490.753906 791.011719 500.179688 C 772.164062 510.324219 754.441406 512.757812 733.269531 513.796875 C 658.234375 517.464844 647.515625 427.792969 666.980469 373.476562 C 677.375 344.460938 692.15625 317.410156 707.8125 290.957031 C 727.925781 256.984375 723.277344 217.117188 732.710938 180.226562 C 738.816406 156.367188 756.824219 135.890625 782.976562 135.832031 C 789.109375 135.820312 807.429688 136.65625 803.441406 146.953125 C 799.214844 157.855469 799.378906 171.746094 797.84375 183.335938 C 786.0625 181.195312 772.097656 179.710938 763.828125 188.363281 C 758.382812 194.070312 757.234375 202.53125 756.695312 210.402344 C 755.40625 229.210938 755.675781 247.226562 751.855469 265.808594 C 744.289062 302.585938 720.5625 333.007812 707.296875 367.605469 C 697.152344 394.0625 680.449219 441.328125 705.246094 464.675781 C 719.023438 477.648438 740.957031 475.5 759.125 470.21875 C 759.882812 469.996094 760.652344 469.777344 761.421875 469.574219 " fill-opacity="1" fill-rule="nonzero"/><path fill="rgb(84.709167%, 57.649231%, 11.759949%)" d="M 680.433594 459.578125 C 691.167969 466.316406 704.273438 470.582031 717.746094 472.035156 C 741.253906 470.726562 749.582031 466.585938 762.917969 462.710938 C 763.667969 462.484375 760.652344 469.777344 761.421875 469.574219 C 763.945312 468.933594 766.53125 468.546875 768.9375 469.410156 C 771.351562 470.273438 773.160156 472.25 774.800781 474.207031 C 781.1875 481.808594 787.851562 490.753906 791.011719 500.179688 C 772.164062 510.324219 754.441406 512.757812 733.269531 513.796875 C 683.800781 516.21875 662.289062 478.054688 658.945312 436.214844 C 663.800781 445.433594 670.746094 453.503906 680.433594 459.578125 " fill-opacity="1" fill-rule="nonzero"/><path fill="rgb(84.709167%, 57.649231%, 11.759949%)" d="M 785.144531 185.957031 C 782.652344 185.863281 780.160156 185.773438 777.675781 185.878906 C 766.75 186.347656 756.035156 190.710938 747.886719 198 C 732.621094 211.65625 725.59375 232.394531 721.824219 251.789062 C 726.402344 228.25 726.726562 203.636719 732.710938 180.226562 C 738.816406 156.367188 756.824219 135.890625 782.976562 135.832031 C 789.109375 135.820312 807.429688 136.65625 803.441406 146.953125 C 798.644531 159.351562 799.972656 172.417969 799.296875 185.292969 C 794.671875 186.339844 789.914062 186.132812 785.144531 185.957031 " fill-opacity="1" fill-rule="nonzero"/><path fill="rgb(19.60907%, 71.369934%, 90.19928%)" d="M 1092.132812 192.300781 C 1120.585938 228.8125 1136.132812 401.070312 1136.515625 438.054688 C 1136.828125 467.890625 1140.984375 504.132812 1124.03125 530.371094 C 1102.34375 563.953125 1034.300781 568.617188 998.828125 571.988281 C 902.679688 581.125 741.007812 565.199219 759.296875 427.820312 C 769.785156 349.011719 788.636719 278.972656 783.21875 182.453125 C 782.042969 161.519531 785.554688 139.320312 797.171875 121.863281 C 813.078125 97.9375 845 90.75 873.738281 90.429688 C 920.070312 89.917969 965.800781 102.003906 1008.777344 119.292969 C 1047.316406 134.804688 1092.039062 192.171875 1092.132812 192.300781 " fill-opacity="1" fill-rule="nonzero"/><path fill="rgb(17.649841%, 64.709473%, 82.348633%)" d="M 759.296875 427.820312 C 750.140625 481.195312 772.484375 516.640625 805.644531 538.980469 C 812.601562 514.816406 814.574219 490.535156 818.988281 465.988281 C 822.894531 444.230469 834.761719 370.378906 836.339844 355.027344 C 840.546875 314.0625 851.558594 273.179688 873.617188 238.40625 C 910.9375 179.5625 984.707031 144.851562 1054.011719 150.96875 C 1040.035156 137.957031 1023.929688 125.390625 1008.777344 119.292969 C 965.800781 102.003906 920.070312 89.917969 873.738281 90.429688 C 845 90.75 813.078125 97.9375 797.171875 121.863281 C 785.554688 139.320312 782.042969 161.519531 783.21875 182.453125 C 783.21875 182.453125 786.144531 271.195312 759.296875 427.820312 " fill-opacity="1" fill-rule="nonzero"/><path fill="rgb(16.468811%, 59.21936%, 75.289917%)" d="M 895.085938 186.632812 C 885.828125 177.015625 873.101562 172.058594 860.515625 168.367188 C 847.921875 164.667969 833.128906 161.949219 820.386719 166.433594 C 807.074219 171.125 800.929688 183.527344 796.417969 195.980469 C 793.839844 203.066406 791.71875 211.78125 786.246094 217.296875 C 784.621094 218.945312 783.96875 217.714844 782.835938 215.773438 C 783.59375 193.882812 783.21875 182.453125 783.21875 182.453125 C 782.042969 161.519531 785.554688 139.320312 797.171875 121.863281 C 813.078125 97.9375 845 90.75 873.738281 90.429688 C 920.070312 89.917969 965.800781 102.003906 1008.777344 119.292969 C 1023.929688 125.390625 1040.035156 137.957031 1054.011719 150.972656 C 1001.214844 146.304688 945.847656 165.359375 905.960938 200.703125 C 902.664062 195.777344 899.230469 190.9375 895.085938 186.632812 " fill-opacity="1" fill-rule="nonzero"/><path fill="rgb(39.99939%, 77.648926%, 90.979004%)" d="M 887.429688 473.695312 C 888.546875 461.472656 889.441406 452.203125 889.792969 449.445312 C 897.765625 387.015625 926.957031 326.351562 992.378906 308.890625 C 1021.675781 301.0625 1052.804688 300.410156 1082.824219 299.054688 C 1104.238281 298.085938 1128.191406 303.085938 1136.054688 325.726562 C 1157.371094 387.117188 1156.59375 463.652344 1127.707031 522.460938 C 1105.992188 566.6875 1041.867188 567.902344 998.828125 571.988281 C 964.164062 575.277344 920.984375 575.3125 880.789062 567.578125 C 879.4375 567.320312 884.277344 508.527344 887.429688 473.695312 " fill-opacity="1" fill-rule="nonzero"/><path fill="rgb(10.198975%, 41.569519%, 55.288696%)" d="M 889.96875 422.703125 C 891.246094 412.675781 893.988281 402.746094 897.316406 393.195312 C 905.328125 370.257812 917.085938 348.15625 934.703125 331.421875 C 951.117188 315.816406 972.046875 305.472656 993.878906 299.425781 C 1015.703125 293.378906 1038.492188 291.453125 1061.136719 291.160156 C 1081.839844 290.902344 1103.644531 292.304688 1121.09375 303.429688 C 1122.367188 304.234375 1123.679688 305.210938 1124.070312 306.660156 C 1124.242188 307.308594 1124.195312 308.011719 1123.949219 308.636719 C 1126.398438 302.429688 1083.015625 299.179688 1079.425781 299.222656 C 1037.535156 299.761719 992.394531 301.691406 956.261719 325.460938 C 916.464844 351.644531 896.0625 399.839844 890.246094 447.105469 C 888.871094 439.015625 888.9375 430.832031 889.96875 422.703125 " fill-opacity="1" fill-rule="nonzero"/><path fill="rgb(27.839661%, 53.329468%, 63.529968%)" d="M 883.25 568.027344 C 906.636719 572.339844 930.933594 574.054688 953.917969 574.070312 C 931.007812 574.21875 906.730469 572.796875 883.113281 569 C 883.167969 568.675781 883.214844 568.359375 883.25 568.027344 " fill-opacity="1" fill-rule="nonzero"/><path fill="rgb(33.729553%, 65.098572%, 76.858521%)" d="M 961.980469 401.820312 C 967.609375 399.414062 1015.710938 386.855469 1053.871094 383.628906 C 1069.589844 382.304688 1101.574219 383.027344 1113.554688 386.621094 C 1126.871094 390.621094 1136.957031 394.15625 1133.613281 409.144531 C 1133.511719 409.597656 1129.511719 416.21875 1129.511719 416.636719 C 1120.601562 423.003906 1110.109375 427.472656 1099.984375 431.21875 C 1071.472656 441.761719 1040.679688 447.523438 1010.308594 448.335938 C 994.335938 448.769531 977.640625 449.660156 962.117188 445.089844 C 953.113281 442.429688 936.238281 431.769531 937.601562 421.453125 C 938.753906 412.660156 951.429688 406.328125 961.980469 401.820312 " fill-opacity="1" fill-rule="nonzero"/><path fill="rgb(10.198975%, 41.569519%, 55.288696%)" d="M 900.5625 152.25 C 889.929688 157.105469 880.941406 164.832031 870.890625 174 C 828.433594 212.726562 825.304688 281.53125 823.933594 282.410156 C 817.625 282.410156 825.140625 229.25 836.480469 199.40625 C 858.125 142.503906 907.417969 113.230469 957.050781 96.378906 C 971.628906 91.421875 1026.671875 71.152344 1038.347656 86.976562 C 1058.433594 114.183594 1003.339844 125.648438 991.835938 128.140625 C 972.679688 132.277344 953.222656 134.808594 934.367188 140.582031 C 922.445312 144.234375 911.148438 147.414062 900.5625 152.25 " fill-opacity="1" fill-rule="nonzero"/><path fill="rgb(39.99939%, 77.648926%, 90.979004%)" d="M 928.550781 43.8125 C 873.953125 45.984375 792.898438 78.753906 788.636719 142.464844 C 806.214844 127.878906 832.597656 128.316406 853.542969 137.445312 C 887.542969 152.257812 907.246094 184.402344 937.730469 204.558594 C 982.898438 234.421875 1118.085938 229.460938 1106.097656 150.539062 C 1106.097656 150.539062 1085.226562 37.609375 928.550781 43.8125 " fill-opacity="1" fill-rule="nonzero"/><path fill="rgb(30.589294%, 74.508667%, 90.589905%)" d="M 856.375 112.316406 C 886.308594 134.199219 917.042969 177.140625 947.523438 197.296875 C 988.605469 224.464844 1094.335938 209.484375 1105.894531 149.589844 C 1106.035156 150.199219 1106.097656 150.539062 1106.097656 150.539062 C 1118.085938 229.460938 982.898438 234.421875 937.730469 204.558594 C 907.246094 184.402344 887.542969 152.257812 853.542969 137.445312 C 832.597656 128.316406 806.214844 127.878906 788.636719 142.464844 C 789.230469 133.617188 793.011719 113.898438 803.605469 101.863281 C 820.839844 91.65625 836.832031 98.03125 856.375 112.316406 " fill-opacity="1" fill-rule="nonzero"/><path fill="rgb(28.239441%, 27.059937%, 27.449036%)" d="M 885.113281 449.757812 C 885.644531 443.992188 886.898438 439.207031 888.113281 437.789062 L 887.640625 437.230469 L 888.886719 437.355469 C 890.316406 437.503906 891.964844 443.425781 891.316406 450.421875 C 890.664062 457.421875 887.964844 462.851562 886.535156 462.703125 L 885.289062 462.570312 L 885.804688 462.035156 C 884.902344 460.296875 884.585938 455.425781 885.113281 449.757812 " fill-opacity="1" fill-rule="nonzero"/><path fill="rgb(40.388489%, 39.608765%, 39.608765%)" d="M 883.871094 449.632812 C 883.222656 456.632812 883.859375 462.429688 885.292969 462.570312 C 886.726562 462.726562 888.886719 457.464844 889.535156 450.464844 C 890.191406 443.46875 889.074219 437.378906 887.640625 437.230469 C 886.210938 437.082031 884.523438 442.632812 883.871094 449.632812 " fill-opacity="1" fill-rule="nonzero"/><path fill="rgb(48.239136%, 47.44873%, 47.44873%)" d="M 882.566406 455.476562 C 882.566406 455.476562 884.410156 456.441406 886.449219 455.070312 C 886.382812 456.355469 886.316406 457.644531 886.25 458.929688 C 884.585938 459.613281 882.480469 459.632812 879.980469 457.980469 L 882.566406 455.476562 " fill-opacity="1" fill-rule="nonzero"/><path fill="rgb(27.449036%, 26.269531%, 26.669312%)" d="M 856.710938 479.355469 C 857.515625 479.367188 858.144531 478.703125 858.148438 477.890625 C 858.183594 474.710938 860.320312 469.683594 865.660156 463.589844 C 872.632812 455.636719 878.601562 450.34375 880.644531 448.605469 C 881.101562 448.21875 881.738281 448.160156 882.253906 448.445312 L 885.101562 450.011719 C 885.804688 450.402344 886.050781 451.300781 885.628906 451.992188 C 882.375 457.371094 869.519531 478.136719 863.785156 480.90625 C 862.050781 481.753906 860.605469 481.808594 859.609375 481.207031 L 859.597656 481.214844 L 856.710938 479.355469 " fill-opacity="1" fill-rule="nonzero"/><path fill="rgb(37.649536%, 36.859131%, 36.859131%)" d="M 880.804688 447.433594 C 882.449219 448.339844 882.996094 450.429688 882.019531 452.027344 C 877.65625 459.113281 866.441406 476.730469 861.199219 479.269531 C 854.605469 482.464844 852.125 474.4375 863.066406 461.953125 C 869.117188 455.046875 874.417969 450.152344 877.046875 447.839844 C 878.089844 446.921875 879.589844 446.765625 880.804688 447.433594 " fill-opacity="1" fill-rule="nonzero"/><path fill="rgb(22.349548%, 20.779419%, 21.179199%)" d="M 876.089844 449.582031 C 874.496094 450.730469 873.671875 452.304688 874.238281 453.097656 C 874.816406 453.894531 876.5625 453.613281 878.167969 452.472656 C 879.761719 451.328125 880.585938 449.753906 880.007812 448.957031 C 879.441406 448.160156 877.683594 448.441406 876.089844 449.582031 " fill-opacity="1" fill-rule="nonzero"/><path fill="rgb(48.239136%, 47.44873%, 47.44873%)" d="M 877.144531 442.535156 C 877.429688 442.207031 877.75 441.898438 878.078125 441.617188 C 879.683594 440.285156 881.699219 439.667969 883.765625 439.707031 C 884.15625 439.707031 887.152344 439.941406 887.171875 440.398438 C 887.226562 441.421875 886.71875 444.09375 886.707031 444.113281 C 883.792969 443.003906 880.113281 444.195312 879.390625 446.265625 C 878.441406 449.011719 879.375 451.339844 879.375 451.339844 C 877.886719 453.097656 876.183594 453.433594 876.183594 453.433594 C 875.523438 453.410156 875.011719 450.417969 874.964844 449.929688 C 874.695312 447.339844 875.441406 444.527344 877.144531 442.535156 " fill-opacity="1" fill-rule="nonzero"/><path fill="rgb(48.239136%, 47.44873%, 47.44873%)" d="M 820.546875 278.902344 C 820.546875 278.902344 822.792969 279.875 824.832031 278.503906 C 824.589844 280.125 824.292969 281.070312 824.222656 282.355469 C 822.5625 283.035156 820.453125 283.0625 817.957031 281.40625 L 820.546875 278.902344 " fill-opacity="1" fill-rule="nonzero"/><path fill="rgb(27.449036%, 26.269531%, 26.669312%)" d="M 794.6875 303.386719 C 795.496094 303.390625 796.128906 302.726562 796.128906 301.921875 C 796.15625 298.738281 798.296875 293.707031 803.640625 287.613281 C 810.605469 279.664062 816.578125 274.375 818.625 272.628906 C 819.078125 272.242188 819.71875 272.183594 820.234375 272.476562 L 823.082031 274.039062 C 823.789062 274.429688 824.03125 275.332031 823.613281 276.023438 C 820.355469 281.394531 807.496094 302.160156 801.761719 304.9375 C 800.035156 305.78125 798.582031 305.832031 797.582031 305.238281 L 797.578125 305.242188 L 794.6875 303.386719 " fill-opacity="1" fill-rule="nonzero"/><path fill="rgb(37.649536%, 36.859131%, 36.859131%)" d="M 818.777344 271.457031 C 820.425781 272.363281 820.980469 274.457031 819.992188 276.054688 C 815.640625 283.136719 804.417969 300.757812 799.171875 303.300781 C 792.582031 306.488281 790.101562 298.460938 801.050781 285.976562 C 807.089844 279.078125 812.386719 274.183594 815.023438 271.863281 C 816.0625 270.953125 817.570312 270.792969 818.777344 271.457031 " fill-opacity="1" fill-rule="nonzero"/><path fill="rgb(22.349548%, 20.779419%, 21.179199%)" d="M 814.0625 273.613281 C 812.476562 274.753906 811.644531 276.332031 812.222656 277.125 C 812.789062 277.921875 814.546875 277.644531 816.132812 276.496094 C 817.738281 275.351562 818.570312 273.78125 817.992188 272.984375 C 817.414062 272.1875 815.660156 272.464844 814.0625 273.613281 " fill-opacity="1" fill-rule="nonzero"/><path fill="rgb(48.239136%, 47.44873%, 47.44873%)" d="M 815.125 266.566406 C 815.410156 266.234375 815.722656 265.925781 816.0625 265.648438 C 817.664062 264.3125 819.679688 263.699219 821.746094 263.726562 C 823.367188 263.757812 825.140625 264.164062 826.695312 264.59375 C 826.332031 265.828125 826.210938 267.128906 826.183594 268.460938 C 825.3125 268.257812 822.613281 267.824219 822.21875 267.8125 C 820.8125 267.75 819.453125 268.101562 818.402344 269.113281 C 817.207031 270.277344 816.691406 272.105469 817.117188 273.722656 C 817.25 274.242188 817.476562 274.785156 817.320312 275.296875 C 817.226562 275.605469 816.996094 275.859375 816.761719 276.082031 C 816.265625 276.554688 815.683594 276.949219 815.058594 277.242188 C 814.808594 277.359375 814.550781 277.457031 814.289062 277.414062 C 813.238281 277.246094 813.019531 274.765625 812.941406 273.957031 C 812.671875 271.363281 813.414062 268.554688 815.125 266.566406 " fill-opacity="1" fill-rule="nonzero"/><path fill="rgb(85.488892%, 80.389404%, 9.408569%)" d="M 1020.671875 190.480469 C 1030.332031 185.339844 1046.488281 186.28125 1053.601562 190.785156 C 1058.789062 194.070312 1061.632812 200.035156 1063.503906 205.886719 C 1065.289062 211.484375 1066.445312 217.292969 1066.9375 223.152344 C 1067.234375 226.734375 1067.257812 230.5 1065.652344 233.726562 C 1062.058594 240.914062 1045.628906 242.265625 1038.894531 242.902344 C 1025.363281 244.1875 1016.984375 240.746094 1015.96875 226.085938 C 1015.359375 217.355469 1011.121094 207.726562 1013.378906 198.945312 C 1014.351562 195.183594 1017.050781 192.402344 1020.671875 190.480469 " fill-opacity="1" fill-rule="nonzero"/><path fill="rgb(85.099792%, 66.268921%, 10.978699%)" d="M 1013.378906 198.945312 C 1014.351562 195.183594 1017.050781 192.402344 1020.671875 190.480469 C 1021.695312 189.9375 1022.792969 189.480469 1023.929688 189.070312 C 1021.292969 206.273438 1032.140625 222.085938 1048.535156 228.984375 C 1054.316406 231.414062 1060.429688 232.527344 1066.269531 232.234375 C 1066.09375 232.742188 1065.902344 233.242188 1065.652344 233.726562 C 1062.058594 240.914062 1045.628906 242.265625 1038.894531 242.902344 C 1025.363281 244.1875 1016.984375 240.746094 1015.96875 226.085938 C 1015.359375 217.355469 1011.121094 207.726562 1013.378906 198.945312 " fill-opacity="1" fill-rule="nonzero"/><path fill="rgb(85.488892%, 81.959534%, 56.079102%)" d="M 1056.203125 199.621094 C 1057.625 202.472656 1059.058594 205.230469 1059.371094 208.453125 C 1059.652344 211.238281 1057.789062 211.105469 1056.484375 209.238281 C 1055.757812 208.207031 1055.3125 206.992188 1054.664062 205.898438 C 1052.175781 201.703125 1044.886719 202.421875 1043.628906 197.371094 C 1042.792969 194.03125 1046 192.5625 1048.730469 193.035156 C 1052 193.597656 1054.789062 196.808594 1056.203125 199.621094 " fill-opacity="1" fill-rule="nonzero"/><path fill="rgb(19.60907%, 71.369934%, 90.19928%)" d="M 804.261719 491.617188 C 803.902344 495.308594 781.203125 489.28125 778.671875 488.683594 C 752.871094 482.59375 746.589844 456.746094 747.207031 433.429688 C 747.832031 410.074219 750.382812 376.703125 769.316406 360.609375 C 774.105469 356.53125 779.824219 353.621094 786.015625 352.425781 C 795.535156 350.585938 807.347656 353.25 814.53125 360.054688 C 826.273438 371.191406 820.023438 381.410156 817.15625 396.066406 C 810.949219 427.726562 807.363281 459.535156 804.261719 491.617188 " fill-opacity="1" fill-rule="nonzero"/><path fill="rgb(9.408569%, 33.329773%, 44.309998%)" d="M 813.710938 415.214844 C 794.6875 411.550781 773.511719 408.339844 757.324219 397.519531 C 753.738281 395.125 752.21875 390.640625 753.515625 386.53125 C 756.773438 376.285156 761.722656 367.0625 769.316406 360.609375 C 774.105469 356.53125 779.824219 353.621094 786.015625 352.425781 C 795.535156 350.585938 807.347656 353.25 814.53125 360.054688 C 826.273438 371.191406 820.023438 381.410156 817.15625 396.066406 C 815.902344 402.445312 814.765625 408.828125 813.710938 415.214844 " fill-opacity="1" fill-rule="nonzero"/><path fill="rgb(96.469116%, 54.508972%, 6.669617%)" d="M 1036.003906 464.460938 L 1052.515625 366.445312 L 1084.730469 444.324219 Z M 1041.371094 279.835938 L 1002.972656 507.664062 L 1116.246094 460.859375 L 1041.371094 279.835938 " fill-opacity="1" fill-rule="nonzero"/><path fill="rgb(78.42865%, 44.309998%, 5.488586%)" d="M 1034.226562 460.1875 L 1050.746094 362.164062 L 1082.960938 440.046875 Z M 1039.601562 275.554688 L 1001.210938 503.386719 L 1114.46875 456.578125 L 1039.601562 275.554688 " fill-opacity="1" fill-rule="nonzero"/><path fill="rgb(96.469116%, 54.508972%, 6.669617%)" d="M 1036.003906 464.460938 L 1052.515625 366.445312 L 1084.730469 444.324219 Z M 1041.371094 279.835938 L 1002.972656 507.664062 L 1116.246094 460.859375 L 1041.371094 279.835938 " fill-opacity="1" fill-rule="nonzero"/><path fill="rgb(96.859741%, 60.389709%, 5.879211%)" d="M 1105.660156 458.316406 C 1097.925781 449.484375 1093.464844 437.398438 1089.4375 426.523438 C 1079.3125 399.222656 1072.855469 370.164062 1058.285156 344.683594 C 1052.273438 334.183594 1044.453125 324.484375 1034.910156 318.222656 L 1041.371094 279.835938 L 1116.246094 460.859375 L 1110.273438 463.324219 C 1108.710938 461.644531 1107.132812 459.996094 1105.660156 458.316406 " fill-opacity="1" fill-rule="nonzero"/><path fill="rgb(78.42865%, 44.309998%, 5.488586%)" d="M 1002.972656 507.664062 L 1001.210938 503.386719 L 1004.253906 499.570312 Z M 1002.972656 507.664062 " fill-opacity="1" fill-rule="nonzero"/><path fill="rgb(100%, 100%, 100%)" d="M 1113.246094 457.566406 L 1105.101562 460.933594 C 1104.832031 461.046875 1104.699219 461.359375 1104.816406 461.632812 C 1104.925781 461.90625 1105.238281 462.035156 1105.515625 461.925781 L 1113.652344 458.558594 C 1113.925781 458.445312 1114.054688 458.132812 1113.941406 457.859375 C 1113.828125 457.585938 1113.515625 457.457031 1113.246094 457.566406 " fill-opacity="1" fill-rule="nonzero"/><path fill="rgb(100%, 100%, 100%)" d="M 1111.816406 454.113281 L 1107.246094 455.996094 C 1106.976562 456.113281 1106.84375 456.425781 1106.957031 456.695312 C 1107.070312 456.96875 1107.382812 457.101562 1107.65625 456.984375 L 1112.222656 455.101562 C 1112.496094 454.988281 1112.625 454.671875 1112.515625 454.40625 C 1112.398438 454.128906 1112.089844 454 1111.816406 454.113281 " fill-opacity="1" fill-rule="nonzero"/><path fill="rgb(100%, 100%, 100%)" d="M 1110.691406 451.394531 L 1106.117188 453.285156 C 1105.847656 453.398438 1105.71875 453.710938 1105.832031 453.988281 C 1105.941406 454.257812 1106.253906 454.386719 1106.53125 454.273438 L 1111.101562 452.382812 C 1111.371094 452.273438 1111.503906 451.960938 1111.386719 451.6875 C 1111.277344 451.417969 1110.964844 451.285156 1110.691406 451.394531 " fill-opacity="1" fill-rule="nonzero"/><path fill="rgb(100%, 100%, 100%)" d="M 1109.5625 448.679688 L 1105.003906 450.570312 C 1104.726562 450.679688 1104.601562 450.992188 1104.710938 451.269531 C 1104.828125 451.539062 1105.132812 451.667969 1105.410156 451.554688 L 1109.976562 449.671875 C 1110.246094 449.558594 1110.375 449.246094 1110.261719 448.972656 C 1110.152344 448.699219 1109.839844 448.570312 1109.5625 448.679688 " fill-opacity="1" fill-rule="nonzero"/><path fill="rgb(100%, 100%, 100%)" d="M 1108.449219 445.96875 L 1103.875 447.859375 C 1103.605469 447.972656 1103.476562 448.28125 1103.589844 448.554688 C 1103.699219 448.828125 1104.011719 448.957031 1104.289062 448.847656 L 1108.855469 446.957031 C 1109.128906 446.839844 1109.253906 446.527344 1109.144531 446.257812 C 1109.03125 445.984375 1108.71875 445.859375 1108.449219 445.96875 " fill-opacity="1" fill-rule="nonzero"/><path fill="rgb(100%, 100%, 100%)" d="M 1107.320312 443.25 L 1099.179688 446.617188 C 1098.910156 446.726562 1098.777344 447.039062 1098.886719 447.3125 C 1099.003906 447.582031 1099.316406 447.714844 1099.589844 447.605469 L 1107.734375 444.238281 C 1108.003906 444.128906 1108.136719 443.816406 1108.019531 443.539062 C 1107.910156 443.269531 1107.597656 443.140625 1107.320312 443.25 " fill-opacity="1" fill-rule="nonzero"/><path fill="rgb(100%, 100%, 100%)" d="M 1106.144531 440.414062 L 1101.578125 442.300781 C 1101.308594 442.414062 1101.179688 442.726562 1101.289062 442.996094 C 1101.402344 443.269531 1101.714844 443.402344 1101.992188 443.289062 L 1106.558594 441.402344 C 1106.828125 441.289062 1106.957031 440.976562 1106.84375 440.707031 C 1106.734375 440.429688 1106.421875 440.300781 1106.144531 440.414062 " fill-opacity="1" fill-rule="nonzero"/><path fill="rgb(100%, 100%, 100%)" d="M 1105.023438 437.695312 L 1100.457031 439.585938 C 1100.183594 439.699219 1100.050781 440.007812 1100.167969 440.285156 C 1100.28125 440.558594 1100.597656 440.691406 1100.863281 440.574219 L 1105.4375 438.683594 C 1105.707031 438.574219 1105.839844 438.261719 1105.722656 437.988281 C 1105.613281 437.71875 1105.300781 437.585938 1105.023438 437.695312 " fill-opacity="1" fill-rule="nonzero"/><path fill="rgb(100%, 100%, 100%)" d="M 1103.902344 434.976562 L 1099.332031 436.867188 C 1099.058594 436.980469 1098.929688 437.296875 1099.039062 437.5625 C 1099.15625 437.839844 1099.464844 437.972656 1099.738281 437.855469 L 1104.308594 435.964844 C 1104.585938 435.855469 1104.710938 435.542969 1104.601562 435.269531 C 1104.484375 434.992188 1104.179688 434.867188 1103.902344 434.976562 " fill-opacity="1" fill-rule="nonzero"/><path fill="rgb(100%, 100%, 100%)" d="M 1102.777344 432.265625 L 1098.210938 434.152344 C 1097.941406 434.269531 1097.808594 434.582031 1097.925781 434.851562 C 1098.035156 435.125 1098.347656 435.257812 1098.625 435.140625 L 1103.183594 433.253906 C 1103.457031 433.144531 1103.585938 432.828125 1103.476562 432.554688 C 1103.359375 432.28125 1103.046875 432.152344 1102.777344 432.265625 " fill-opacity="1" fill-rule="nonzero"/><path fill="rgb(100%, 100%, 100%)" d="M 1101.65625 429.550781 L 1093.507812 432.917969 C 1093.238281 433.027344 1093.105469 433.339844 1093.222656 433.617188 C 1093.332031 433.882812 1093.644531 434.015625 1093.917969 433.90625 L 1102.070312 430.539062 C 1102.335938 430.429688 1102.46875 430.117188 1102.355469 429.84375 C 1102.246094 429.574219 1101.929688 429.441406 1101.65625 429.550781 " fill-opacity="1" fill-rule="nonzero"/><path fill="rgb(100%, 100%, 100%)" d="M 1100.480469 426.710938 L 1095.914062 428.601562 C 1095.640625 428.714844 1095.511719 429.027344 1095.621094 429.296875 C 1095.738281 429.574219 1096.046875 429.699219 1096.320312 429.589844 L 1100.890625 427.699219 C 1101.160156 427.589844 1101.292969 427.277344 1101.179688 427.003906 C 1101.066406 426.726562 1100.753906 426.601562 1100.480469 426.710938 " fill-opacity="1" fill-rule="nonzero"/><path fill="rgb(100%, 100%, 100%)" d="M 1099.355469 423.996094 L 1094.792969 425.882812 C 1094.519531 425.996094 1094.390625 426.308594 1094.5 426.578125 C 1094.617188 426.855469 1094.929688 426.984375 1095.199219 426.871094 L 1099.765625 424.988281 C 1100.035156 424.871094 1100.167969 424.558594 1100.050781 424.289062 C 1099.941406 424.015625 1099.628906 423.886719 1099.355469 423.996094 " fill-opacity="1" fill-rule="nonzero"/><path fill="rgb(100%, 100%, 100%)" d="M 1098.238281 421.277344 L 1093.667969 423.167969 C 1093.398438 423.285156 1093.265625 423.597656 1093.375 423.867188 C 1093.492188 424.140625 1093.804688 424.273438 1094.078125 424.15625 L 1098.644531 422.269531 C 1098.917969 422.15625 1099.046875 421.84375 1098.9375 421.570312 C 1098.820312 421.300781 1098.507812 421.167969 1098.238281 421.277344 " fill-opacity="1" fill-rule="nonzero"/><path fill="rgb(100%, 100%, 100%)" d="M 1097.113281 418.566406 L 1092.539062 420.457031 C 1092.269531 420.566406 1092.140625 420.878906 1092.253906 421.152344 C 1092.363281 421.425781 1092.675781 421.554688 1092.953125 421.445312 L 1097.523438 419.554688 C 1097.792969 419.445312 1097.925781 419.132812 1097.808594 418.855469 C 1097.699219 418.582031 1097.386719 418.457031 1097.113281 418.566406 " fill-opacity="1" fill-rule="nonzero"/><path fill="rgb(100%, 100%, 100%)" d="M 1095.984375 415.851562 L 1087.847656 419.214844 C 1087.574219 419.328125 1087.445312 419.640625 1087.554688 419.910156 C 1087.671875 420.1875 1087.980469 420.316406 1088.253906 420.203125 L 1096.398438 416.835938 C 1096.667969 416.726562 1096.796875 416.414062 1096.683594 416.136719 C 1096.574219 415.867188 1096.261719 415.738281 1095.984375 415.851562 " fill-opacity="1" fill-rule="nonzero"/><path fill="rgb(100%, 100%, 100%)" d="M 1094.816406 413.011719 L 1090.25 414.898438 C 1089.972656 415.011719 1089.847656 415.324219 1089.957031 415.59375 C 1090.074219 415.867188 1090.378906 416 1090.65625 415.886719 L 1095.226562 414 C 1095.496094 413.886719 1095.628906 413.578125 1095.511719 413.304688 C 1095.402344 413.027344 1095.089844 412.902344 1094.816406 413.011719 " fill-opacity="1" fill-rule="nonzero"/><path fill="rgb(100%, 100%, 100%)" d="M 1093.695312 410.292969 L 1089.121094 412.183594 C 1088.847656 412.296875 1088.722656 412.613281 1088.832031 412.878906 C 1088.945312 413.15625 1089.253906 413.289062 1089.527344 413.171875 L 1094.101562 411.28125 C 1094.375 411.171875 1094.5 410.859375 1094.390625 410.585938 C 1094.277344 410.308594 1093.964844 410.183594 1093.695312 410.292969 " fill-opacity="1" fill-rule="nonzero"/><path fill="rgb(100%, 100%, 100%)" d="M 1092.566406 407.582031 L 1088 409.46875 C 1087.730469 409.578125 1087.601562 409.894531 1087.714844 410.167969 C 1087.824219 410.441406 1088.140625 410.570312 1088.414062 410.457031 L 1092.972656 408.570312 C 1093.25 408.453125 1093.375 408.144531 1093.265625 407.871094 C 1093.148438 407.597656 1092.835938 407.46875 1092.566406 407.582031 " fill-opacity="1" fill-rule="nonzero"/><path fill="rgb(100%, 100%, 100%)" d="M 1091.445312 404.867188 L 1086.878906 406.757812 C 1086.605469 406.867188 1086.480469 407.179688 1086.589844 407.453125 C 1086.703125 407.722656 1087.019531 407.855469 1087.285156 407.738281 L 1091.859375 405.851562 C 1092.128906 405.742188 1092.261719 405.425781 1092.144531 405.152344 C 1092.035156 404.882812 1091.722656 404.75 1091.445312 404.867188 " fill-opacity="1" fill-rule="nonzero"/><path fill="rgb(100%, 100%, 100%)" d="M 1090.324219 402.152344 L 1082.183594 405.515625 C 1081.90625 405.628906 1081.78125 405.9375 1081.890625 406.214844 C 1082 406.488281 1082.320312 406.613281 1082.589844 406.503906 L 1090.730469 403.140625 C 1091.007812 403.027344 1091.132812 402.714844 1091.023438 402.445312 C 1090.910156 402.171875 1090.59375 402.042969 1090.324219 402.152344 " fill-opacity="1" fill-rule="nonzero"/><path fill="rgb(100%, 100%, 100%)" d="M 1089.148438 399.308594 L 1084.582031 401.199219 C 1084.308594 401.3125 1084.183594 401.625 1084.292969 401.894531 C 1084.40625 402.171875 1084.722656 402.300781 1084.988281 402.1875 L 1089.554688 400.296875 C 1089.832031 400.1875 1089.957031 399.875 1089.847656 399.601562 C 1089.730469 399.332031 1089.417969 399.199219 1089.148438 399.308594 " fill-opacity="1" fill-rule="nonzero"/><path fill="rgb(100%, 100%, 100%)" d="M 1088.027344 396.59375 L 1083.457031 398.484375 C 1083.1875 398.59375 1083.054688 398.90625 1083.164062 399.183594 C 1083.28125 399.457031 1083.59375 399.582031 1083.871094 399.472656 L 1088.433594 397.585938 C 1088.710938 397.472656 1088.835938 397.160156 1088.726562 396.886719 C 1088.613281 396.613281 1088.304688 396.484375 1088.027344 396.59375 " fill-opacity="1" fill-rule="nonzero"/><path fill="rgb(100%, 100%, 100%)" d="M 1086.902344 393.882812 L 1082.332031 395.773438 C 1082.0625 395.882812 1081.929688 396.195312 1082.042969 396.46875 C 1082.15625 396.738281 1082.46875 396.871094 1082.742188 396.753906 L 1087.316406 394.867188 C 1087.582031 394.753906 1087.714844 394.441406 1087.601562 394.167969 C 1087.492188 393.898438 1087.175781 393.765625 1086.902344 393.882812 " fill-opacity="1" fill-rule="nonzero"/><path fill="rgb(100%, 100%, 100%)" d="M 1085.777344 391.164062 L 1081.214844 393.054688 C 1080.941406 393.164062 1080.8125 393.476562 1080.925781 393.75 C 1081.039062 394.023438 1081.347656 394.152344 1081.621094 394.042969 L 1086.1875 392.152344 C 1086.457031 392.042969 1086.589844 391.730469 1086.472656 391.453125 C 1086.363281 391.183594 1086.050781 391.054688 1085.777344 391.164062 " fill-opacity="1" fill-rule="nonzero"/><path fill="rgb(100%, 100%, 100%)" d="M 1084.660156 388.449219 L 1076.511719 391.816406 C 1076.238281 391.925781 1076.109375 392.238281 1076.21875 392.515625 C 1076.335938 392.789062 1076.648438 392.914062 1076.917969 392.804688 L 1085.066406 389.4375 C 1085.34375 389.324219 1085.46875 389.011719 1085.359375 388.742188 C 1085.242188 388.464844 1084.929688 388.335938 1084.660156 388.449219 " fill-opacity="1" fill-rule="nonzero"/><path fill="rgb(100%, 100%, 100%)" d="M 1083.484375 385.609375 L 1078.914062 387.5 C 1078.644531 387.609375 1078.511719 387.921875 1078.628906 388.199219 C 1078.738281 388.464844 1079.050781 388.597656 1079.324219 388.488281 L 1083.890625 386.597656 C 1084.164062 386.488281 1084.292969 386.175781 1084.183594 385.902344 C 1084.066406 385.625 1083.753906 385.5 1083.484375 385.609375 " fill-opacity="1" fill-rule="nonzero"/><path fill="rgb(100%, 100%, 100%)" d="M 1082.359375 382.898438 L 1077.792969 384.785156 C 1077.523438 384.894531 1077.390625 385.210938 1077.507812 385.484375 C 1077.617188 385.753906 1077.929688 385.886719 1078.203125 385.769531 L 1082.769531 383.878906 C 1083.039062 383.769531 1083.171875 383.457031 1083.054688 383.183594 C 1082.945312 382.914062 1082.632812 382.78125 1082.359375 382.898438 " fill-opacity="1" fill-rule="nonzero"/><path fill="rgb(100%, 100%, 100%)" d="M 1081.238281 380.183594 L 1076.671875 382.074219 C 1076.394531 382.183594 1076.269531 382.496094 1076.378906 382.769531 C 1076.496094 383.046875 1076.808594 383.171875 1077.078125 383.0625 L 1081.648438 381.171875 C 1081.917969 381.058594 1082.050781 380.742188 1081.933594 380.476562 C 1081.824219 380.199219 1081.511719 380.074219 1081.238281 380.183594 " fill-opacity="1" fill-rule="nonzero"/><path fill="rgb(100%, 100%, 100%)" d="M 1080.117188 377.464844 L 1075.542969 379.355469 C 1075.269531 379.464844 1075.136719 379.777344 1075.253906 380.050781 C 1075.367188 380.320312 1075.675781 380.453125 1075.949219 380.34375 L 1080.523438 378.453125 C 1080.796875 378.34375 1080.925781 378.03125 1080.8125 377.757812 C 1080.699219 377.488281 1080.390625 377.355469 1080.117188 377.464844 " fill-opacity="1" fill-rule="nonzero"/><path fill="rgb(100%, 100%, 100%)" d="M 1078.988281 374.75 L 1070.847656 378.113281 C 1070.578125 378.226562 1070.445312 378.542969 1070.558594 378.808594 C 1070.671875 379.085938 1070.984375 379.21875 1071.257812 379.101562 L 1079.394531 375.738281 C 1079.671875 375.625 1079.796875 375.3125 1079.6875 375.042969 C 1079.570312 374.769531 1079.265625 374.636719 1078.988281 374.75 " fill-opacity="1" fill-rule="nonzero"/><path fill="rgb(100%, 100%, 100%)" d="M 1077.820312 371.910156 L 1073.246094 373.800781 C 1072.976562 373.910156 1072.847656 374.222656 1072.960938 374.5 C 1073.070312 374.769531 1073.386719 374.898438 1073.660156 374.785156 L 1078.230469 372.902344 C 1078.5 372.785156 1078.632812 372.472656 1078.515625 372.203125 C 1078.40625 371.929688 1078.09375 371.800781 1077.820312 371.910156 " fill-opacity="1" fill-rule="nonzero"/><path fill="rgb(100%, 100%, 100%)" d="M 1076.691406 369.191406 L 1072.121094 371.082031 C 1071.851562 371.199219 1071.71875 371.511719 1071.835938 371.78125 C 1071.945312 372.054688 1072.257812 372.1875 1072.53125 372.070312 L 1077.105469 370.183594 C 1077.375 370.070312 1077.507812 369.757812 1077.390625 369.484375 C 1077.28125 369.214844 1076.96875 369.082031 1076.691406 369.191406 " fill-opacity="1" fill-rule="nonzero"/><path fill="rgb(100%, 100%, 100%)" d="M 1075.566406 366.480469 L 1071.003906 368.371094 C 1070.730469 368.480469 1070.605469 368.792969 1070.714844 369.066406 C 1070.828125 369.339844 1071.136719 369.46875 1071.414062 369.359375 L 1075.976562 367.46875 C 1076.246094 367.359375 1076.378906 367.046875 1076.265625 366.769531 C 1076.15625 366.496094 1075.839844 366.371094 1075.566406 366.480469 " fill-opacity="1" fill-rule="nonzero"/><path fill="rgb(100%, 100%, 100%)" d="M 1074.449219 363.765625 L 1069.878906 365.65625 C 1069.609375 365.765625 1069.476562 366.078125 1069.59375 366.351562 C 1069.703125 366.621094 1070.015625 366.753906 1070.292969 366.644531 L 1074.859375 364.753906 C 1075.132812 364.640625 1075.257812 364.328125 1075.148438 364.058594 C 1075.035156 363.78125 1074.71875 363.652344 1074.449219 363.765625 " fill-opacity="1" fill-rule="nonzero"/><path fill="rgb(100%, 100%, 100%)" d="M 1073.324219 361.054688 L 1065.179688 364.414062 C 1064.910156 364.53125 1064.78125 364.84375 1064.890625 365.117188 C 1065.003906 365.386719 1065.316406 365.519531 1065.59375 365.402344 L 1073.738281 362.035156 C 1074.003906 361.925781 1074.136719 361.613281 1074.023438 361.339844 C 1073.914062 361.070312 1073.597656 360.9375 1073.324219 361.054688 " fill-opacity="1" fill-rule="nonzero"/><path fill="rgb(100%, 100%, 100%)" d="M 1072.148438 358.214844 L 1067.582031 360.101562 C 1067.3125 360.210938 1067.179688 360.527344 1067.292969 360.800781 C 1067.40625 361.074219 1067.71875 361.203125 1067.996094 361.089844 L 1072.5625 359.203125 C 1072.828125 359.085938 1072.960938 358.773438 1072.847656 358.503906 C 1072.738281 358.230469 1072.421875 358.105469 1072.148438 358.214844 " fill-opacity="1" fill-rule="nonzero"/><path fill="rgb(100%, 100%, 100%)" d="M 1071.027344 355.496094 L 1066.460938 357.382812 C 1066.1875 357.492188 1066.054688 357.808594 1066.171875 358.082031 C 1066.285156 358.351562 1066.597656 358.484375 1066.867188 358.371094 L 1071.441406 356.484375 C 1071.707031 356.375 1071.839844 356.058594 1071.726562 355.785156 C 1071.617188 355.511719 1071.300781 355.386719 1071.027344 355.496094 " fill-opacity="1" fill-rule="nonzero"/><path fill="rgb(100%, 100%, 100%)" d="M 1069.90625 352.78125 L 1065.335938 354.671875 C 1065.058594 354.78125 1064.933594 355.09375 1065.042969 355.367188 C 1065.160156 355.644531 1065.464844 355.769531 1065.742188 355.660156 L 1070.3125 353.769531 C 1070.589844 353.65625 1070.714844 353.339844 1070.605469 353.074219 C 1070.488281 352.796875 1070.179688 352.664062 1069.90625 352.78125 " fill-opacity="1" fill-rule="nonzero"/><path fill="rgb(100%, 100%, 100%)" d="M 1068.78125 350.066406 L 1064.214844 351.953125 C 1063.945312 352.0625 1063.8125 352.375 1063.929688 352.648438 C 1064.039062 352.925781 1064.351562 353.050781 1064.625 352.941406 L 1069.1875 351.050781 C 1069.460938 350.941406 1069.589844 350.628906 1069.476562 350.355469 C 1069.363281 350.085938 1069.050781 349.953125 1068.78125 350.066406 " fill-opacity="1" fill-rule="nonzero"/><path fill="rgb(100%, 100%, 100%)" d="M 1067.660156 347.347656 L 1059.511719 350.714844 C 1059.242188 350.832031 1059.109375 351.140625 1059.222656 351.414062 C 1059.335938 351.6875 1059.648438 351.816406 1059.921875 351.703125 L 1068.070312 348.335938 C 1068.339844 348.222656 1068.472656 347.910156 1068.355469 347.636719 C 1068.246094 347.367188 1067.933594 347.234375 1067.660156 347.347656 " fill-opacity="1" fill-rule="nonzero"/><path fill="rgb(100%, 100%, 100%)" d="M 1066.484375 344.507812 L 1061.917969 346.398438 C 1061.640625 346.507812 1061.515625 346.820312 1061.625 347.097656 C 1061.742188 347.371094 1062.050781 347.496094 1062.324219 347.386719 L 1066.894531 345.5 C 1067.164062 345.386719 1067.296875 345.074219 1067.179688 344.800781 C 1067.070312 344.527344 1066.757812 344.398438 1066.484375 344.507812 " fill-opacity="1" fill-rule="nonzero"/><path fill="rgb(100%, 100%, 100%)" d="M 1065.363281 341.796875 L 1060.796875 343.6875 C 1060.519531 343.796875 1060.394531 344.109375 1060.503906 344.382812 C 1060.621094 344.652344 1060.933594 344.785156 1061.203125 344.667969 L 1065.769531 342.785156 C 1066.042969 342.667969 1066.171875 342.355469 1066.058594 342.085938 C 1065.945312 341.8125 1065.632812 341.679688 1065.363281 341.796875 " fill-opacity="1" fill-rule="nonzero"/><path fill="rgb(100%, 100%, 100%)" d="M 1064.242188 339.082031 L 1059.667969 340.96875 C 1059.398438 341.078125 1059.269531 341.390625 1059.378906 341.664062 C 1059.492188 341.933594 1059.808594 342.066406 1060.078125 341.957031 L 1064.648438 340.066406 C 1064.921875 339.957031 1065.050781 339.644531 1064.9375 339.367188 C 1064.824219 339.097656 1064.515625 338.96875 1064.242188 339.082031 " fill-opacity="1" fill-rule="nonzero"/><path fill="rgb(100%, 100%, 100%)" d="M 1063.113281 336.363281 L 1058.542969 338.253906 C 1058.273438 338.363281 1058.140625 338.675781 1058.257812 338.949219 C 1058.367188 339.226562 1058.679688 339.351562 1058.957031 339.242188 L 1063.527344 337.351562 C 1063.796875 337.242188 1063.929688 336.929688 1063.8125 336.65625 C 1063.703125 336.378906 1063.390625 336.253906 1063.113281 336.363281 " fill-opacity="1" fill-rule="nonzero"/><path fill="rgb(100%, 100%, 100%)" d="M 1061.988281 333.652344 L 1053.851562 337.011719 C 1053.574219 337.128906 1053.449219 337.441406 1053.558594 337.710938 C 1053.675781 337.984375 1053.980469 338.117188 1054.257812 338 L 1062.402344 334.640625 C 1062.667969 334.523438 1062.800781 334.210938 1062.6875 333.941406 C 1062.578125 333.667969 1062.261719 333.535156 1061.988281 333.652344 " fill-opacity="1" fill-rule="nonzero"/><path fill="rgb(100%, 100%, 100%)" d="M 1060.824219 330.8125 L 1056.25 332.695312 C 1055.976562 332.808594 1055.851562 333.125 1055.960938 333.398438 C 1056.074219 333.667969 1056.382812 333.800781 1056.660156 333.683594 L 1061.230469 331.800781 C 1061.503906 331.691406 1061.632812 331.375 1061.519531 331.101562 C 1061.40625 330.828125 1061.097656 330.703125 1060.824219 330.8125 " fill-opacity="1" fill-rule="nonzero"/><path fill="rgb(100%, 100%, 100%)" d="M 1059.695312 328.097656 L 1055.125 329.988281 C 1054.855469 330.097656 1054.722656 330.410156 1054.839844 330.683594 C 1054.949219 330.953125 1055.261719 331.085938 1055.539062 330.96875 L 1060.105469 329.082031 C 1060.378906 328.972656 1060.503906 328.65625 1060.394531 328.382812 C 1060.28125 328.113281 1059.964844 327.984375 1059.695312 328.097656 " fill-opacity="1" fill-rule="nonzero"/><path fill="rgb(100%, 100%, 100%)" d="M 1058.570312 325.378906 L 1054.003906 327.269531 C 1053.734375 327.382812 1053.601562 327.691406 1053.71875 327.964844 C 1053.828125 328.242188 1054.140625 328.367188 1054.417969 328.25 L 1058.976562 326.367188 C 1059.253906 326.253906 1059.378906 325.9375 1059.269531 325.664062 C 1059.152344 325.394531 1058.839844 325.261719 1058.570312 325.378906 " fill-opacity="1" fill-rule="nonzero"/><path fill="rgb(100%, 100%, 100%)" d="M 1057.449219 322.664062 L 1052.882812 324.550781 C 1052.609375 324.664062 1052.480469 324.976562 1052.59375 325.246094 C 1052.707031 325.523438 1053.015625 325.652344 1053.289062 325.539062 L 1057.863281 323.65625 C 1058.132812 323.539062 1058.261719 323.226562 1058.148438 322.957031 C 1058.039062 322.683594 1057.722656 322.550781 1057.449219 322.664062 " fill-opacity="1" fill-rule="nonzero"/><path fill="rgb(100%, 100%, 100%)" d="M 1056.328125 319.953125 L 1048.183594 323.3125 C 1047.910156 323.421875 1047.785156 323.738281 1047.894531 324.011719 C 1048.003906 324.285156 1048.324219 324.414062 1048.59375 324.300781 L 1056.734375 320.941406 C 1057.011719 320.824219 1057.136719 320.511719 1057.027344 320.242188 C 1056.910156 319.96875 1056.601562 319.835938 1056.328125 319.953125 " fill-opacity="1" fill-rule="nonzero"/><path fill="rgb(100%, 100%, 100%)" d="M 1055.152344 317.113281 L 1050.585938 318.996094 C 1050.316406 319.105469 1050.183594 319.417969 1050.296875 319.695312 C 1050.410156 319.96875 1050.722656 320.09375 1051 319.984375 L 1055.558594 318.097656 C 1055.835938 317.984375 1055.960938 317.671875 1055.851562 317.398438 C 1055.734375 317.128906 1055.421875 316.996094 1055.152344 317.113281 " fill-opacity="1" fill-rule="nonzero"/><path fill="rgb(100%, 100%, 100%)" d="M 1054.03125 314.398438 L 1049.460938 316.285156 C 1049.191406 316.394531 1049.058594 316.707031 1049.175781 316.980469 C 1049.285156 317.253906 1049.597656 317.382812 1049.871094 317.273438 L 1054.4375 315.386719 C 1054.714844 315.273438 1054.839844 314.964844 1054.730469 314.691406 C 1054.613281 314.414062 1054.304688 314.289062 1054.03125 314.398438 " fill-opacity="1" fill-rule="nonzero"/><path fill="rgb(100%, 100%, 100%)" d="M 1052.90625 311.679688 L 1048.332031 313.570312 C 1048.0625 313.679688 1047.933594 313.992188 1048.046875 314.265625 C 1048.15625 314.535156 1048.472656 314.667969 1048.746094 314.558594 L 1053.316406 312.667969 C 1053.585938 312.554688 1053.71875 312.242188 1053.601562 311.972656 C 1053.492188 311.695312 1053.179688 311.566406 1052.90625 311.679688 " fill-opacity="1" fill-rule="nonzero"/><path fill="rgb(100%, 100%, 100%)" d="M 1051.777344 308.960938 L 1047.21875 310.851562 C 1046.941406 310.964844 1046.816406 311.28125 1046.925781 311.546875 C 1047.042969 311.824219 1047.355469 311.949219 1047.625 311.839844 L 1052.191406 309.949219 C 1052.460938 309.835938 1052.59375 309.523438 1052.476562 309.253906 C 1052.367188 308.976562 1052.054688 308.847656 1051.777344 308.960938 " fill-opacity="1" fill-rule="nonzero"/><path fill="rgb(100%, 100%, 100%)" d="M 1050.664062 306.25 L 1042.515625 309.617188 C 1042.238281 309.726562 1042.113281 310.039062 1042.222656 310.3125 C 1042.339844 310.582031 1042.644531 310.714844 1042.921875 310.597656 L 1051.070312 307.238281 C 1051.34375 307.121094 1051.472656 306.808594 1051.359375 306.539062 C 1051.246094 306.265625 1050.933594 306.132812 1050.664062 306.25 " fill-opacity="1" fill-rule="nonzero"/><path fill="rgb(100%, 100%, 100%)" d="M 1049.488281 303.410156 L 1044.914062 305.296875 C 1044.644531 305.414062 1044.515625 305.722656 1044.628906 305.996094 C 1044.738281 306.269531 1045.054688 306.398438 1045.328125 306.285156 L 1049.894531 304.398438 C 1050.167969 304.28125 1050.296875 303.96875 1050.183594 303.695312 C 1050.070312 303.425781 1049.757812 303.292969 1049.488281 303.410156 " fill-opacity="1" fill-rule="nonzero"/><path fill="rgb(100%, 100%, 100%)" d="M 1048.359375 300.695312 L 1043.792969 302.578125 C 1043.527344 302.695312 1043.394531 303.007812 1043.507812 303.277344 C 1043.617188 303.550781 1043.933594 303.683594 1044.207031 303.566406 L 1048.773438 301.683594 C 1049.042969 301.570312 1049.175781 301.253906 1049.058594 300.988281 C 1048.949219 300.710938 1048.636719 300.582031 1048.359375 300.695312 " fill-opacity="1" fill-rule="nonzero"/><path fill="rgb(100%, 100%, 100%)" d="M 1047.238281 297.980469 L 1042.671875 299.871094 C 1042.398438 299.980469 1042.265625 300.292969 1042.382812 300.570312 C 1042.496094 300.839844 1042.8125 300.96875 1043.082031 300.855469 L 1047.652344 298.972656 C 1047.921875 298.855469 1048.054688 298.542969 1047.9375 298.273438 C 1047.828125 298 1047.515625 297.867188 1047.238281 297.980469 " fill-opacity="1" fill-rule="nonzero"/><path fill="rgb(100%, 100%, 100%)" d="M 1046.117188 295.261719 L 1041.546875 297.152344 C 1041.273438 297.261719 1041.140625 297.574219 1041.257812 297.851562 C 1041.371094 298.121094 1041.679688 298.25 1041.953125 298.140625 L 1046.527344 296.253906 C 1046.800781 296.140625 1046.925781 295.828125 1046.816406 295.554688 C 1046.703125 295.285156 1046.394531 295.152344 1046.117188 295.261719 " fill-opacity="1" fill-rule="nonzero"/><path fill="rgb(83.139038%, 63.919067%, 2.749634%)" d="M 918.363281 311.054688 L 1017.761719 496.050781 L 1044.488281 481.703125 L 945.089844 296.707031 L 918.363281 311.054688 " fill-opacity="1" fill-rule="nonzero"/><path fill="rgb(98.039246%, 75.689697%, 3.529358%)" d="M 920.988281 309.644531 L 1020.390625 494.636719 L 1047.121094 480.289062 L 947.714844 295.289062 L 920.988281 309.644531 " fill-opacity="1" fill-rule="nonzero"/><path fill="rgb(74.508667%, 57.249451%, 2.349854%)" d="M 945.089844 296.707031 L 1044.488281 481.703125 L 1047.121094 480.289062 L 947.714844 295.289062 L 945.089844 296.707031 " fill-opacity="1" fill-rule="nonzero"/><path fill="rgb(100%, 100%, 100%)" d="M 1042.480469 479.027344 L 1035.265625 482.90625 C 1035.023438 483.039062 1034.929688 483.339844 1035.0625 483.582031 C 1035.195312 483.824219 1035.492188 483.910156 1035.734375 483.785156 L 1042.953125 479.902344 C 1043.195312 479.773438 1043.285156 479.472656 1043.15625 479.230469 C 1043.027344 478.988281 1042.722656 478.894531 1042.480469 479.027344 " fill-opacity="1" fill-rule="nonzero"/><path fill="rgb(100%, 100%, 100%)" d="M 1040.839844 475.960938 L 1036.789062 478.136719 C 1036.546875 478.269531 1036.453125 478.570312 1036.585938 478.8125 C 1036.710938 479.054688 1037.015625 479.144531 1037.253906 479.015625 L 1041.3125 476.839844 C 1041.554688 476.710938 1041.640625 476.40625 1041.515625 476.167969 C 1041.382812 475.925781 1041.082031 475.832031 1040.839844 475.960938 " fill-opacity="1" fill-rule="nonzero"/><path fill="rgb(100%, 100%, 100%)" d="M 1039.542969 473.558594 L 1035.492188 475.726562 C 1035.25 475.859375 1035.164062 476.160156 1035.289062 476.402344 C 1035.421875 476.644531 1035.722656 476.738281 1035.964844 476.605469 L 1040.015625 474.429688 C 1040.257812 474.296875 1040.34375 473.996094 1040.21875 473.753906 C 1040.085938 473.511719 1039.785156 473.425781 1039.542969 473.558594 " fill-opacity="1" fill-rule="nonzero"/><path fill="rgb(100%, 100%, 100%)" d="M 1038.25 471.144531 L 1034.195312 473.320312 C 1033.953125 473.453125 1033.867188 473.753906 1033.992188 473.996094 C 1034.125 474.238281 1034.425781 474.324219 1034.667969 474.199219 L 1038.71875 472.019531 C 1038.960938 471.894531 1039.050781 471.589844 1038.921875 471.347656 C 1038.792969 471.109375 1038.492188 471.015625 1038.25 471.144531 " fill-opacity="1" fill-rule="nonzero"/><path fill="rgb(100%, 100%, 100%)" d="M 1036.960938 468.734375 L 1032.910156 470.910156 C 1032.667969 471.042969 1032.574219 471.34375 1032.707031 471.585938 C 1032.832031 471.828125 1033.132812 471.914062 1033.375 471.78125 L 1037.425781 469.613281 C 1037.667969 469.480469 1037.761719 469.179688 1037.628906 468.9375 C 1037.503906 468.695312 1037.199219 468.609375 1036.960938 468.734375 " fill-opacity="1" fill-rule="nonzero"/><path fill="rgb(100%, 100%, 100%)" d="M 1035.664062 466.324219 L 1028.4375 470.207031 C 1028.195312 470.339844 1028.105469 470.640625 1028.234375 470.882812 C 1028.363281 471.125 1028.667969 471.210938 1028.910156 471.078125 L 1036.136719 467.203125 C 1036.375 467.070312 1036.464844 466.773438 1036.339844 466.53125 C 1036.207031 466.289062 1035.902344 466.195312 1035.664062 466.324219 " fill-opacity="1" fill-rule="nonzero"/><path fill="rgb(100%, 100%, 100%)" d="M 1034.308594 463.808594 L 1030.261719 465.984375 C 1030.011719 466.113281 1029.925781 466.417969 1030.058594 466.660156 C 1030.183594 466.898438 1030.484375 466.992188 1030.726562 466.863281 L 1034.777344 464.679688 C 1035.019531 464.554688 1035.113281 464.253906 1034.980469 464.011719 C 1034.855469 463.769531 1034.550781 463.675781 1034.308594 463.808594 " fill-opacity="1" fill-rule="nonzero"/><path fill="rgb(100%, 100%, 100%)" d="M 1033.015625 461.402344 L 1028.964844 463.578125 C 1028.722656 463.707031 1028.628906 464.011719 1028.761719 464.253906 C 1028.886719 464.496094 1029.1875 464.582031 1029.429688 464.449219 L 1033.484375 462.277344 C 1033.726562 462.148438 1033.816406 461.847656 1033.691406 461.605469 C 1033.558594 461.363281 1033.253906 461.269531 1033.015625 461.402344 " fill-opacity="1" fill-rule="nonzero"/><path fill="rgb(100%, 100%, 100%)" d="M 1031.71875 458.992188 L 1027.667969 461.164062 C 1027.425781 461.296875 1027.332031 461.601562 1027.464844 461.839844 C 1027.589844 462.082031 1027.890625 462.171875 1028.132812 462.042969 L 1032.191406 459.871094 C 1032.429688 459.738281 1032.519531 459.4375 1032.394531 459.195312 C 1032.261719 458.953125 1031.957031 458.859375 1031.71875 458.992188 " fill-opacity="1" fill-rule="nonzero"/><path fill="rgb(100%, 100%, 100%)" d="M 1030.429688 456.585938 L 1026.375 458.761719 C 1026.132812 458.890625 1026.046875 459.1875 1026.171875 459.4375 C 1026.304688 459.675781 1026.605469 459.765625 1026.847656 459.632812 L 1030.898438 457.457031 C 1031.140625 457.328125 1031.234375 457.023438 1031.101562 456.78125 C 1030.976562 456.542969 1030.671875 456.453125 1030.429688 456.585938 " fill-opacity="1" fill-rule="nonzero"/><path fill="rgb(100%, 100%, 100%)" d="M 1029.132812 454.175781 L 1021.910156 458.050781 C 1021.667969 458.183594 1021.574219 458.480469 1021.707031 458.722656 C 1021.832031 458.96875 1022.132812 459.058594 1022.375 458.925781 L 1029.601562 455.050781 C 1029.84375 454.921875 1029.9375 454.617188 1029.804688 454.378906 C 1029.679688 454.136719 1029.375 454.046875 1029.132812 454.175781 " fill-opacity="1" fill-rule="nonzero"/><path fill="rgb(100%, 100%, 100%)" d="M 1027.78125 451.660156 L 1023.726562 453.828125 C 1023.484375 453.960938 1023.390625 454.261719 1023.523438 454.503906 C 1023.65625 454.746094 1023.957031 454.839844 1024.199219 454.707031 L 1028.25 452.535156 C 1028.492188 452.40625 1028.585938 452.101562 1028.453125 451.863281 C 1028.328125 451.621094 1028.023438 451.527344 1027.78125 451.660156 " fill-opacity="1" fill-rule="nonzero"/><path fill="rgb(100%, 100%, 100%)" d="M 1026.484375 449.246094 L 1022.429688 451.421875 C 1022.1875 451.554688 1022.09375 451.855469 1022.226562 452.097656 C 1022.359375 452.339844 1022.660156 452.425781 1022.902344 452.300781 L 1026.953125 450.125 C 1027.195312 449.992188 1027.289062 449.691406 1027.15625 449.449219 C 1027.023438 449.207031 1026.726562 449.113281 1026.484375 449.246094 " fill-opacity="1" fill-rule="nonzero"/><path fill="rgb(100%, 100%, 100%)" d="M 1025.1875 446.839844 L 1021.132812 449.015625 C 1020.890625 449.144531 1020.804688 449.445312 1020.929688 449.6875 C 1021.0625 449.929688 1021.363281 450.023438 1021.605469 449.890625 L 1025.65625 447.714844 C 1025.898438 447.582031 1025.992188 447.28125 1025.859375 447.039062 C 1025.726562 446.796875 1025.429688 446.710938 1025.1875 446.839844 " fill-opacity="1" fill-rule="nonzero"/><path fill="rgb(100%, 100%, 100%)" d="M 1023.898438 444.429688 L 1019.847656 446.605469 C 1019.605469 446.738281 1019.511719 447.039062 1019.644531 447.28125 C 1019.769531 447.523438 1020.074219 447.609375 1020.316406 447.484375 L 1024.371094 445.304688 C 1024.613281 445.175781 1024.699219 444.875 1024.574219 444.632812 C 1024.441406 444.390625 1024.140625 444.296875 1023.898438 444.429688 " fill-opacity="1" fill-rule="nonzero"/><path fill="rgb(100%, 100%, 100%)" d="M 1022.601562 442.019531 L 1015.375 445.902344 C 1015.132812 446.027344 1015.046875 446.332031 1015.171875 446.570312 C 1015.304688 446.8125 1015.605469 446.90625 1015.847656 446.777344 L 1023.074219 442.898438 C 1023.316406 442.765625 1023.402344 442.464844 1023.277344 442.222656 C 1023.144531 441.980469 1022.84375 441.890625 1022.601562 442.019531 " fill-opacity="1" fill-rule="nonzero"/><path fill="rgb(100%, 100%, 100%)" d="M 1021.25 439.503906 L 1017.199219 441.679688 C 1016.957031 441.808594 1016.863281 442.113281 1016.996094 442.355469 C 1017.121094 442.59375 1017.425781 442.683594 1017.667969 442.558594 L 1021.722656 440.375 C 1021.964844 440.25 1022.050781 439.949219 1021.925781 439.707031 C 1021.792969 439.464844 1021.492188 439.371094 1021.25 439.503906 " fill-opacity="1" fill-rule="nonzero"/><path fill="rgb(100%, 100%, 100%)" d="M 1019.953125 437.09375 L 1015.902344 439.265625 C 1015.660156 439.398438 1015.566406 439.699219 1015.699219 439.941406 C 1015.824219 440.183594 1016.128906 440.277344 1016.371094 440.144531 L 1020.425781 437.972656 C 1020.667969 437.839844 1020.753906 437.542969 1020.628906 437.296875 C 1020.496094 437.054688 1020.195312 436.964844 1019.953125 437.09375 " fill-opacity="1" fill-rule="nonzero"/><path fill="rgb(100%, 100%, 100%)" d="M 1018.65625 434.6875 L 1014.605469 436.863281 C 1014.363281 436.992188 1014.277344 437.296875 1014.402344 437.535156 C 1014.535156 437.777344 1014.835938 437.867188 1015.078125 437.734375 L 1019.128906 435.558594 C 1019.371094 435.433594 1019.457031 435.132812 1019.332031 434.890625 C 1019.199219 434.640625 1018.898438 434.554688 1018.65625 434.6875 " fill-opacity="1" fill-rule="nonzero"/><path fill="rgb(100%, 100%, 100%)" d="M 1017.371094 432.273438 L 1013.3125 434.449219 C 1013.074219 434.582031 1012.984375 434.882812 1013.109375 435.125 C 1013.242188 435.367188 1013.546875 435.457031 1013.785156 435.328125 L 1017.835938 433.152344 C 1018.078125 433.023438 1018.171875 432.726562 1018.039062 432.476562 C 1017.914062 432.238281 1017.613281 432.148438 1017.371094 432.273438 " fill-opacity="1" fill-rule="nonzero"/><path fill="rgb(100%, 100%, 100%)" d="M 1016.074219 429.871094 L 1008.847656 433.746094 C 1008.605469 433.878906 1008.515625 434.175781 1008.644531 434.421875 C 1008.777344 434.664062 1009.078125 434.753906 1009.320312 434.621094 L 1016.539062 430.742188 C 1016.78125 430.609375 1016.875 430.308594 1016.742188 430.066406 C 1016.617188 429.824219 1016.316406 429.738281 1016.074219 429.871094 " fill-opacity="1" fill-rule="nonzero"/><path fill="rgb(100%, 100%, 100%)" d="M 1014.722656 427.347656 L 1010.664062 429.527344 C 1010.425781 429.65625 1010.335938 429.957031 1010.460938 430.199219 C 1010.59375 430.441406 1010.898438 430.535156 1011.136719 430.402344 L 1015.1875 428.226562 C 1015.429688 428.09375 1015.523438 427.792969 1015.390625 427.550781 C 1015.265625 427.308594 1014.960938 427.214844 1014.722656 427.347656 " fill-opacity="1" fill-rule="nonzero"/><path fill="rgb(100%, 100%, 100%)" d="M 1013.425781 424.941406 L 1009.375 427.113281 C 1009.132812 427.242188 1009.039062 427.546875 1009.171875 427.789062 C 1009.296875 428.03125 1009.601562 428.121094 1009.839844 427.992188 L 1013.890625 425.820312 C 1014.132812 425.691406 1014.226562 425.386719 1014.09375 425.144531 C 1013.96875 424.902344 1013.667969 424.8125 1013.425781 424.941406 " fill-opacity="1" fill-rule="nonzero"/><path fill="rgb(100%, 100%, 100%)" d="M 1012.128906 422.53125 L 1008.078125 424.707031 C 1007.835938 424.839844 1007.742188 425.140625 1007.875 425.382812 C 1008 425.625 1008.304688 425.710938 1008.542969 425.585938 L 1012.601562 423.410156 C 1012.84375 423.277344 1012.929688 422.976562 1012.804688 422.734375 C 1012.671875 422.492188 1012.371094 422.398438 1012.128906 422.53125 " fill-opacity="1" fill-rule="nonzero"/><path fill="rgb(100%, 100%, 100%)" d="M 1010.835938 420.125 L 1006.785156 422.304688 C 1006.542969 422.433594 1006.453125 422.734375 1006.582031 422.976562 C 1006.714844 423.21875 1007.015625 423.3125 1007.257812 423.179688 L 1011.308594 421 C 1011.550781 420.867188 1011.636719 420.566406 1011.511719 420.324219 C 1011.378906 420.082031 1011.078125 419.992188 1010.835938 420.125 " fill-opacity="1" fill-rule="nonzero"/><path fill="rgb(100%, 100%, 100%)" d="M 1009.542969 417.714844 L 1002.320312 421.59375 C 1002.078125 421.722656 1001.984375 422.019531 1002.117188 422.269531 C 1002.242188 422.507812 1002.542969 422.597656 1002.785156 422.472656 L 1010.011719 418.59375 C 1010.253906 418.460938 1010.347656 418.164062 1010.214844 417.917969 C 1010.082031 417.675781 1009.785156 417.589844 1009.542969 417.714844 " fill-opacity="1" fill-rule="nonzero"/><path fill="rgb(100%, 100%, 100%)" d="M 1008.1875 415.191406 L 1004.136719 417.375 C 1003.894531 417.5 1003.800781 417.800781 1003.933594 418.042969 C 1004.0625 418.285156 1004.363281 418.378906 1004.605469 418.246094 L 1008.660156 416.070312 C 1008.902344 415.941406 1008.988281 415.636719 1008.863281 415.394531 C 1008.730469 415.15625 1008.429688 415.066406 1008.1875 415.191406 " fill-opacity="1" fill-rule="nonzero"/><path fill="rgb(100%, 100%, 100%)" d="M 1006.894531 412.789062 L 1002.839844 414.96875 C 1002.597656 415.09375 1002.511719 415.394531 1002.636719 415.636719 C 1002.769531 415.878906 1003.070312 415.972656 1003.3125 415.839844 L 1007.363281 413.660156 C 1007.605469 413.535156 1007.699219 413.230469 1007.566406 412.992188 C 1007.433594 412.75 1007.136719 412.65625 1006.894531 412.789062 " fill-opacity="1" fill-rule="nonzero"/><path fill="rgb(100%, 100%, 100%)" d="M 1005.597656 410.382812 L 1001.542969 412.550781 C 1001.300781 412.683594 1001.214844 412.984375 1001.339844 413.226562 C 1001.472656 413.46875 1001.773438 413.5625 1002.015625 413.429688 L 1006.066406 411.253906 C 1006.308594 411.128906 1006.402344 410.828125 1006.269531 410.585938 C 1006.144531 410.34375 1005.839844 410.25 1005.597656 410.382812 " fill-opacity="1" fill-rule="nonzero"/><path fill="rgb(100%, 100%, 100%)" d="M 1004.308594 407.96875 L 1000.257812 410.144531 C 1000.015625 410.277344 999.921875 410.578125 1000.054688 410.820312 C 1000.179688 411.0625 1000.484375 411.152344 1000.726562 411.019531 L 1004.78125 408.84375 C 1005.023438 408.71875 1005.109375 408.414062 1004.984375 408.171875 C 1004.851562 407.933594 1004.550781 407.839844 1004.308594 407.96875 " fill-opacity="1" fill-rule="nonzero"/><path fill="rgb(100%, 100%, 100%)" d="M 1003.011719 405.558594 L 995.785156 409.4375 C 995.542969 409.570312 995.457031 409.871094 995.582031 410.113281 C 995.714844 410.355469 996.015625 410.441406 996.257812 410.316406 L 1003.484375 406.4375 C 1003.726562 406.304688 1003.8125 406.007812 1003.6875 405.761719 C 1003.554688 405.519531 1003.253906 405.433594 1003.011719 405.558594 " fill-opacity="1" fill-rule="nonzero"/><path fill="rgb(100%, 100%, 100%)" d="M 1001.660156 403.042969 L 997.609375 405.21875 C 997.367188 405.34375 997.273438 405.648438 997.40625 405.890625 C 997.53125 406.128906 997.835938 406.222656 998.078125 406.09375 L 1002.132812 403.921875 C 1002.375 403.789062 1002.460938 403.488281 1002.335938 403.246094 C 1002.203125 403.003906 1001.902344 402.910156 1001.660156 403.042969 " fill-opacity="1" fill-rule="nonzero"/><path fill="rgb(100%, 100%, 100%)" d="M 1000.363281 400.636719 L 996.3125 402.808594 C 996.070312 402.9375 995.976562 403.242188 996.109375 403.484375 C 996.234375 403.726562 996.539062 403.816406 996.78125 403.6875 L 1000.835938 401.511719 C 1001.078125 401.386719 1001.164062 401.082031 1001.039062 400.839844 C 1000.90625 400.597656 1000.605469 400.507812 1000.363281 400.636719 " fill-opacity="1" fill-rule="nonzero"/><path fill="rgb(100%, 100%, 100%)" d="M 999.066406 398.226562 L 995.015625 400.402344 C 994.773438 400.535156 994.679688 400.835938 994.8125 401.078125 C 994.9375 401.320312 995.242188 401.40625 995.484375 401.28125 L 999.539062 399.105469 C 999.78125 398.972656 999.867188 398.671875 999.742188 398.429688 C 999.609375 398.1875 999.308594 398.09375 999.066406 398.226562 " fill-opacity="1" fill-rule="nonzero"/><path fill="rgb(100%, 100%, 100%)" d="M 997.78125 395.820312 L 993.726562 397.992188 C 993.484375 398.121094 993.394531 398.425781 993.523438 398.667969 C 993.652344 398.90625 993.957031 398.996094 994.199219 398.871094 L 998.246094 396.695312 C 998.488281 396.5625 998.582031 396.261719 998.449219 396.019531 C 998.324219 395.777344 998.023438 395.6875 997.78125 395.820312 " fill-opacity="1" fill-rule="nonzero"/><path fill="rgb(100%, 100%, 100%)" d="M 996.484375 393.410156 L 989.257812 397.289062 C 989.015625 397.417969 988.921875 397.722656 989.054688 397.964844 C 989.179688 398.203125 989.484375 398.292969 989.726562 398.167969 L 996.949219 394.28125 C 997.191406 394.152344 997.285156 393.847656 997.152344 393.609375 C 997.027344 393.367188 996.726562 393.277344 996.484375 393.410156 " fill-opacity="1" fill-rule="nonzero"/><path fill="rgb(100%, 100%, 100%)" d="M 995.132812 390.894531 L 991.078125 393.070312 C 990.835938 393.195312 990.742188 393.496094 990.875 393.738281 C 991.003906 393.980469 991.308594 394.074219 991.550781 393.941406 L 995.597656 391.765625 C 995.839844 391.640625 995.933594 391.339844 995.800781 391.097656 C 995.671875 390.855469 995.375 390.761719 995.132812 390.894531 " fill-opacity="1" fill-rule="nonzero"/><path fill="rgb(100%, 100%, 100%)" d="M 993.835938 388.484375 L 989.78125 390.65625 C 989.539062 390.789062 989.445312 391.09375 989.578125 391.332031 C 989.707031 391.574219 990.011719 391.664062 990.253906 391.535156 L 994.300781 389.355469 C 994.542969 389.230469 994.636719 388.929688 994.503906 388.6875 C 994.375 388.445312 994.078125 388.351562 993.835938 388.484375 " fill-opacity="1" fill-rule="nonzero"/><path fill="rgb(100%, 100%, 100%)" d="M 992.539062 386.070312 L 988.488281 388.253906 C 988.246094 388.378906 988.152344 388.679688 988.285156 388.921875 C 988.417969 389.164062 988.714844 389.257812 988.957031 389.125 L 993.003906 386.945312 C 993.246094 386.820312 993.339844 386.515625 993.207031 386.273438 C 993.078125 386.035156 992.78125 385.941406 992.539062 386.070312 " fill-opacity="1" fill-rule="nonzero"/><path fill="rgb(100%, 100%, 100%)" d="M 991.246094 383.664062 L 987.195312 385.839844 C 986.957031 385.972656 986.863281 386.273438 986.992188 386.515625 C 987.121094 386.757812 987.421875 386.847656 987.664062 386.714844 L 991.71875 384.539062 C 991.960938 384.414062 992.050781 384.109375 991.921875 383.871094 C 991.789062 383.628906 991.488281 383.535156 991.246094 383.664062 " fill-opacity="1" fill-rule="nonzero"/><path fill="rgb(100%, 100%, 100%)" d="M 989.949219 381.253906 L 982.730469 385.132812 C 982.488281 385.265625 982.394531 385.566406 982.527344 385.808594 C 982.652344 386.050781 982.953125 386.136719 983.195312 386.011719 L 990.421875 382.132812 C 990.664062 382 990.753906 381.707031 990.625 381.464844 C 990.492188 381.222656 990.191406 381.128906 989.949219 381.253906 " fill-opacity="1" fill-rule="nonzero"/><path fill="rgb(100%, 100%, 100%)" d="M 988.597656 378.734375 L 984.546875 380.914062 C 984.308594 381.046875 984.214844 381.347656 984.34375 381.589844 C 984.472656 381.832031 984.773438 381.917969 985.015625 381.792969 L 989.070312 379.613281 C 989.3125 379.480469 989.402344 379.179688 989.273438 378.9375 C 989.140625 378.695312 988.839844 378.605469 988.597656 378.734375 " fill-opacity="1" fill-rule="nonzero"/><path fill="rgb(100%, 100%, 100%)" d="M 987.300781 376.328125 L 983.25 378.503906 C 983.011719 378.636719 982.921875 378.9375 983.046875 379.179688 C 983.179688 379.421875 983.484375 379.511719 983.722656 379.382812 L 987.773438 377.203125 C 988.015625 377.074219 988.105469 376.773438 987.976562 376.53125 C 987.84375 376.289062 987.542969 376.195312 987.300781 376.328125 " fill-opacity="1" fill-rule="nonzero"/><path fill="rgb(100%, 100%, 100%)" d="M 986.011719 373.921875 L 981.953125 376.089844 C 981.714844 376.222656 981.625 376.527344 981.75 376.765625 C 981.882812 377.007812 982.1875 377.101562 982.425781 376.96875 L 986.476562 374.796875 C 986.71875 374.667969 986.8125 374.367188 986.679688 374.125 C 986.554688 373.882812 986.25 373.789062 986.011719 373.921875 " fill-opacity="1" fill-rule="nonzero"/><path fill="rgb(100%, 100%, 100%)" d="M 984.71875 371.511719 L 980.664062 373.6875 C 980.421875 373.816406 980.332031 374.121094 980.460938 374.363281 C 980.59375 374.601562 980.894531 374.691406 981.136719 374.566406 L 985.1875 372.390625 C 985.425781 372.257812 985.519531 371.957031 985.390625 371.714844 C 985.261719 371.472656 984.960938 371.378906 984.71875 371.511719 " fill-opacity="1" fill-rule="nonzero"/><path fill="rgb(100%, 100%, 100%)" d="M 983.421875 369.105469 L 976.195312 372.984375 C 975.953125 373.109375 975.867188 373.410156 975.992188 373.652344 C 976.125 373.894531 976.425781 373.988281 976.667969 373.855469 L 983.894531 369.980469 C 984.136719 369.847656 984.222656 369.542969 984.097656 369.304688 C 983.964844 369.0625 983.664062 368.972656 983.421875 369.105469 " fill-opacity="1" fill-rule="nonzero"/><path fill="rgb(100%, 100%, 100%)" d="M 982.070312 366.585938 L 978.015625 368.757812 C 977.773438 368.890625 977.683594 369.1875 977.8125 369.429688 C 977.945312 369.671875 978.246094 369.765625 978.488281 369.636719 L 982.539062 367.464844 C 982.777344 367.332031 982.871094 367.027344 982.742188 366.789062 C 982.613281 366.546875 982.3125 366.453125 982.070312 366.585938 " fill-opacity="1" fill-rule="nonzero"/><path fill="rgb(100%, 100%, 100%)" d="M 980.773438 364.171875 L 976.722656 366.351562 C 976.480469 366.480469 976.386719 366.78125 976.519531 367.023438 C 976.648438 367.265625 976.949219 367.359375 977.191406 367.226562 L 981.246094 365.050781 C 981.488281 364.917969 981.574219 364.617188 981.449219 364.375 C 981.316406 364.132812 981.015625 364.046875 980.773438 364.171875 " fill-opacity="1" fill-rule="nonzero"/><path fill="rgb(100%, 100%, 100%)" d="M 979.476562 361.773438 L 975.425781 363.941406 C 975.183594 364.074219 975.089844 364.375 975.222656 364.617188 C 975.351562 364.859375 975.652344 364.949219 975.894531 364.820312 L 979.949219 362.644531 C 980.191406 362.515625 980.277344 362.210938 980.152344 361.96875 C 980.019531 361.730469 979.71875 361.640625 979.476562 361.773438 " fill-opacity="1" fill-rule="nonzero"/><path fill="rgb(100%, 100%, 100%)" d="M 978.191406 359.355469 L 974.136719 361.535156 C 973.894531 361.664062 973.800781 361.964844 973.933594 362.207031 C 974.0625 362.449219 974.367188 362.542969 974.609375 362.410156 L 978.65625 360.234375 C 978.898438 360.101562 978.992188 359.800781 978.859375 359.558594 C 978.730469 359.316406 978.433594 359.230469 978.191406 359.355469 " fill-opacity="1" fill-rule="nonzero"/><path fill="rgb(100%, 100%, 100%)" d="M 976.894531 356.949219 L 969.667969 360.828125 C 969.425781 360.960938 969.332031 361.261719 969.464844 361.503906 C 969.589844 361.746094 969.894531 361.832031 970.136719 361.703125 L 977.359375 357.824219 C 977.601562 357.695312 977.695312 357.394531 977.5625 357.152344 C 977.433594 356.910156 977.136719 356.820312 976.894531 356.949219 " fill-opacity="1" fill-rule="nonzero"/><path fill="rgb(100%, 100%, 100%)" d="M 975.535156 354.429688 L 971.488281 356.605469 C 971.246094 356.734375 971.15625 357.039062 971.285156 357.28125 C 971.414062 357.519531 971.71875 357.613281 971.960938 357.484375 L 976.007812 355.308594 C 976.25 355.175781 976.339844 354.875 976.210938 354.632812 C 976.082031 354.390625 975.777344 354.304688 975.535156 354.429688 " fill-opacity="1" fill-rule="nonzero"/><path fill="rgb(100%, 100%, 100%)" d="M 974.246094 352.023438 L 970.191406 354.199219 C 969.949219 354.324219 969.859375 354.625 969.988281 354.867188 C 970.117188 355.109375 970.421875 355.203125 970.664062 355.070312 L 974.710938 352.898438 C 974.953125 352.769531 975.046875 352.46875 974.914062 352.226562 C 974.789062 351.984375 974.488281 351.890625 974.246094 352.023438 " fill-opacity="1" fill-rule="nonzero"/><path fill="rgb(100%, 100%, 100%)" d="M 972.949219 349.613281 L 968.894531 351.789062 C 968.652344 351.917969 968.5625 352.222656 968.691406 352.460938 C 968.820312 352.703125 969.125 352.796875 969.367188 352.664062 L 973.414062 350.484375 C 973.65625 350.359375 973.75 350.058594 973.617188 349.816406 C 973.488281 349.574219 973.191406 349.480469 972.949219 349.613281 " fill-opacity="1" fill-rule="nonzero"/><path fill="rgb(100%, 100%, 100%)" d="M 971.65625 347.207031 L 967.609375 349.382812 C 967.367188 349.511719 967.273438 349.808594 967.40625 350.058594 C 967.53125 350.296875 967.832031 350.386719 968.074219 350.253906 L 972.128906 348.085938 C 972.371094 347.953125 972.460938 347.652344 972.332031 347.410156 C 972.203125 347.167969 971.898438 347.074219 971.65625 347.207031 " fill-opacity="1" fill-rule="nonzero"/><path fill="rgb(100%, 100%, 100%)" d="M 970.359375 344.796875 L 963.136719 348.671875 C 962.894531 348.804688 962.804688 349.105469 962.929688 349.347656 C 963.0625 349.589844 963.367188 349.679688 963.605469 349.550781 L 970.832031 345.675781 C 971.074219 345.542969 971.164062 345.238281 971.035156 345 C 970.90625 344.757812 970.601562 344.664062 970.359375 344.796875 " fill-opacity="1" fill-rule="nonzero"/><path fill="rgb(100%, 100%, 100%)" d="M 969.007812 342.28125 L 964.960938 344.453125 C 964.71875 344.582031 964.625 344.882812 964.753906 345.125 C 964.882812 345.367188 965.183594 345.460938 965.425781 345.328125 L 969.480469 343.160156 C 969.722656 343.027344 969.8125 342.722656 969.683594 342.484375 C 969.554688 342.242188 969.25 342.148438 969.007812 342.28125 " fill-opacity="1" fill-rule="nonzero"/><path fill="rgb(100%, 100%, 100%)" d="M 967.710938 339.867188 L 963.664062 342.050781 C 963.421875 342.175781 963.328125 342.476562 963.457031 342.71875 C 963.585938 342.960938 963.886719 343.054688 964.128906 342.921875 L 968.183594 340.746094 C 968.425781 340.617188 968.515625 340.3125 968.386719 340.070312 C 968.257812 339.828125 967.953125 339.738281 967.710938 339.867188 " fill-opacity="1" fill-rule="nonzero"/><path fill="rgb(100%, 100%, 100%)" d="M 966.414062 337.457031 L 962.367188 339.636719 C 962.125 339.765625 962.035156 340.066406 962.164062 340.308594 C 962.292969 340.550781 962.597656 340.644531 962.839844 340.511719 L 966.886719 338.335938 C 967.128906 338.203125 967.21875 337.902344 967.089844 337.660156 C 966.960938 337.417969 966.65625 337.332031 966.414062 337.457031 " fill-opacity="1" fill-rule="nonzero"/><path fill="rgb(100%, 100%, 100%)" d="M 965.128906 335.050781 L 961.074219 337.226562 C 960.832031 337.359375 960.746094 337.660156 960.871094 337.902344 C 961.003906 338.144531 961.304688 338.230469 961.546875 338.105469 L 965.597656 335.925781 C 965.839844 335.796875 965.933594 335.496094 965.800781 335.253906 C 965.671875 335.011719 965.371094 334.917969 965.128906 335.050781 " fill-opacity="1" fill-rule="nonzero"/><path fill="rgb(100%, 100%, 100%)" d="M 963.902344 332.773438 L 956.679688 336.648438 C 956.4375 336.78125 956.34375 337.082031 956.476562 337.324219 C 956.601562 337.566406 956.902344 337.65625 957.144531 337.527344 L 964.371094 333.644531 C 964.613281 333.511719 964.707031 333.210938 964.574219 332.96875 C 964.449219 332.726562 964.144531 332.640625 963.902344 332.773438 " fill-opacity="1" fill-rule="nonzero"/><path fill="rgb(100%, 100%, 100%)" d="M 962.546875 330.25 L 958.496094 332.429688 C 958.253906 332.558594 958.160156 332.859375 958.292969 333.101562 C 958.421875 333.34375 958.722656 333.4375 958.964844 333.304688 L 963.019531 331.128906 C 963.261719 330.996094 963.347656 330.695312 963.222656 330.453125 C 963.089844 330.210938 962.789062 330.125 962.546875 330.25 " fill-opacity="1" fill-rule="nonzero"/><path fill="rgb(100%, 100%, 100%)" d="M 961.253906 327.84375 L 957.199219 330.019531 C 956.957031 330.152344 956.863281 330.453125 956.996094 330.695312 C 957.128906 330.9375 957.429688 331.023438 957.671875 330.898438 L 961.722656 328.71875 C 961.964844 328.59375 962.058594 328.289062 961.925781 328.046875 C 961.800781 327.808594 961.496094 327.714844 961.253906 327.84375 " fill-opacity="1" fill-rule="nonzero"/><path fill="rgb(100%, 100%, 100%)" d="M 959.957031 325.433594 L 955.902344 327.613281 C 955.660156 327.742188 955.566406 328.042969 955.699219 328.285156 C 955.832031 328.527344 956.132812 328.621094 956.375 328.488281 L 960.425781 326.308594 C 960.667969 326.179688 960.761719 325.878906 960.628906 325.636719 C 960.496094 325.394531 960.199219 325.300781 959.957031 325.433594 " fill-opacity="1" fill-rule="nonzero"/><path fill="rgb(100%, 100%, 100%)" d="M 958.667969 323.027344 L 954.605469 325.199219 C 954.363281 325.328125 954.277344 325.632812 954.402344 325.875 C 954.535156 326.113281 954.835938 326.207031 955.078125 326.078125 L 959.140625 323.902344 C 959.382812 323.773438 959.46875 323.472656 959.34375 323.230469 C 959.210938 322.988281 958.910156 322.894531 958.667969 323.027344 " fill-opacity="1" fill-rule="nonzero"/><path fill="rgb(100%, 100%, 100%)" d="M 957.441406 320.742188 L 950.214844 324.625 C 949.972656 324.753906 949.882812 325.054688 950.011719 325.296875 C 950.140625 325.539062 950.441406 325.632812 950.683594 325.5 L 957.910156 321.621094 C 958.152344 321.492188 958.246094 321.1875 958.113281 320.945312 C 957.980469 320.703125 957.683594 320.617188 957.441406 320.742188 " fill-opacity="1" fill-rule="nonzero"/><path fill="rgb(100%, 100%, 100%)" d="M 956.089844 318.226562 L 952.03125 320.410156 C 951.789062 320.535156 951.699219 320.835938 951.828125 321.078125 C 951.957031 321.320312 952.261719 321.414062 952.503906 321.28125 L 956.558594 319.101562 C 956.800781 318.976562 956.890625 318.671875 956.761719 318.429688 C 956.628906 318.1875 956.332031 318.097656 956.089844 318.226562 " fill-opacity="1" fill-rule="nonzero"/><path fill="rgb(100%, 100%, 100%)" d="M 954.792969 315.816406 L 950.738281 317.992188 C 950.496094 318.125 950.410156 318.425781 950.535156 318.667969 C 950.667969 318.910156 950.96875 319.003906 951.210938 318.871094 L 955.261719 316.691406 C 955.503906 316.5625 955.597656 316.261719 955.464844 316.019531 C 955.332031 315.777344 955.035156 315.683594 954.792969 315.816406 " fill-opacity="1" fill-rule="nonzero"/><path fill="rgb(100%, 100%, 100%)" d="M 953.496094 313.410156 L 949.445312 315.585938 C 949.207031 315.71875 949.113281 316.019531 949.242188 316.261719 C 949.375 316.503906 949.671875 316.589844 949.914062 316.460938 L 953.964844 314.285156 C 954.207031 314.15625 954.300781 313.855469 954.167969 313.613281 C 954.035156 313.367188 953.738281 313.277344 953.496094 313.410156 " fill-opacity="1" fill-rule="nonzero"/><path fill="rgb(100%, 100%, 100%)" d="M 952.199219 311 L 948.148438 313.175781 C 947.910156 313.304688 947.816406 313.609375 947.945312 313.851562 C 948.074219 314.089844 948.375 314.179688 948.617188 314.054688 L 952.671875 311.878906 C 952.914062 311.746094 953.003906 311.449219 952.875 311.203125 C 952.742188 310.960938 952.441406 310.875 952.199219 311 " fill-opacity="1" fill-rule="nonzero"/><path fill="rgb(100%, 100%, 100%)" d="M 950.980469 308.71875 L 943.753906 312.597656 C 943.511719 312.730469 943.425781 313.03125 943.550781 313.273438 C 943.683594 313.515625 943.984375 313.609375 944.226562 313.476562 L 951.453125 309.597656 C 951.695312 309.46875 951.78125 309.164062 951.65625 308.921875 C 951.523438 308.679688 951.222656 308.59375 950.980469 308.71875 " fill-opacity="1" fill-rule="nonzero"/><path fill="rgb(100%, 100%, 100%)" d="M 949.628906 306.199219 L 945.566406 308.378906 C 945.324219 308.511719 945.238281 308.8125 945.363281 309.054688 C 945.496094 309.296875 945.796875 309.382812 946.039062 309.253906 L 950.09375 307.074219 C 950.335938 306.945312 950.429688 306.644531 950.296875 306.402344 C 950.167969 306.160156 949.871094 306.066406 949.628906 306.199219 " fill-opacity="1" fill-rule="nonzero"/><path fill="rgb(100%, 100%, 100%)" d="M 948.332031 303.792969 L 944.28125 305.96875 C 944.039062 306.101562 943.945312 306.398438 944.078125 306.644531 C 944.203125 306.886719 944.507812 306.972656 944.75 306.839844 L 948.804688 304.671875 C 949.046875 304.539062 949.132812 304.238281 949.007812 303.996094 C 948.875 303.753906 948.574219 303.660156 948.332031 303.792969 " fill-opacity="1" fill-rule="nonzero"/><path fill="rgb(100%, 100%, 100%)" d="M 947.035156 301.386719 L 942.984375 303.558594 C 942.742188 303.6875 942.648438 303.992188 942.78125 304.234375 C 942.90625 304.472656 943.210938 304.5625 943.453125 304.4375 L 947.507812 302.261719 C 947.75 302.128906 947.835938 301.828125 947.710938 301.585938 C 947.578125 301.34375 947.277344 301.253906 947.035156 301.386719 " fill-opacity="1" fill-rule="nonzero"/><path fill="rgb(100%, 100%, 100%)" d="M 945.738281 298.976562 L 941.6875 301.152344 C 941.445312 301.28125 941.351562 301.578125 941.484375 301.820312 C 941.609375 302.0625 941.914062 302.15625 942.15625 302.03125 L 946.210938 299.855469 C 946.453125 299.722656 946.539062 299.421875 946.414062 299.179688 C 946.28125 298.9375 945.980469 298.851562 945.738281 298.976562 " fill-opacity="1" fill-rule="nonzero"/><path fill="rgb(49.01886%, 23.139954%, 63.139343%)" d="M 1048.203125 479.71875 L 1054.074219 480.085938 L 1060.367188 477.746094 L 1063.3125 474.105469 L 1002.449219 310.378906 L 987.339844 315.992188 L 1048.203125 479.71875 " fill-opacity="1" fill-rule="nonzero"/><path fill="rgb(51.368713%, 27.059937%, 65.489197%)" d="M 1060.367188 477.746094 L 1063.3125 474.105469 L 1002.449219 310.378906 L 998.675781 311.785156 L 1060.367188 477.746094 " fill-opacity="1" fill-rule="nonzero"/><path fill="rgb(48.629761%, 19.999695%, 61.178589%)" d="M 1048.203125 479.71875 L 1054.074219 480.085938 L 992.378906 314.125 L 987.339844 315.992188 L 1048.203125 479.71875 " fill-opacity="1" fill-rule="nonzero"/><path fill="rgb(85.099792%, 70.199585%, 34.118652%)" d="M 986.476562 290.535156 L 986.90625 303.261719 L 987.339844 315.988281 L 1002.449219 310.378906 L 994.460938 300.453125 L 986.476562 290.535156 " fill-opacity="1" fill-rule="nonzero"/><path fill="rgb(85.488892%, 79.60968%, 43.528748%)" d="M 986.476562 290.535156 L 998.675781 311.785156 L 1002.449219 310.378906 L 994.460938 300.453125 L 986.476562 290.535156 " fill-opacity="1" fill-rule="nonzero"/><path fill="rgb(84.709167%, 61.959839%, 33.329773%)" d="M 986.476562 290.535156 L 986.90625 303.261719 L 987.339844 315.988281 L 992.378906 314.125 L 986.476562 290.535156 " fill-opacity="1" fill-rule="nonzero"/><path fill="rgb(18.03894%, 14.118958%, 6.269836%)" d="M 986.757812 299.015625 L 986.476562 290.535156 L 991.796875 297.148438 Z M 986.757812 299.015625 " fill-opacity="1" fill-rule="nonzero"/><path fill="rgb(23.919678%, 26.669312%, 63.529968%)" d="M 1031.03125 486.097656 L 1036.898438 486.464844 L 1043.191406 484.128906 L 1046.136719 480.484375 L 985.28125 316.761719 L 970.167969 322.367188 L 1031.03125 486.097656 " fill-opacity="1" fill-rule="nonzero"/><path fill="rgb(27.839661%, 29.019165%, 65.489197%)" d="M 1043.191406 484.128906 L 1046.136719 480.484375 L 985.28125 316.761719 L 981.503906 318.160156 L 1043.191406 484.128906 " fill-opacity="1" fill-rule="nonzero"/><path fill="rgb(22.749329%, 23.529053%, 61.178589%)" d="M 1031.03125 486.097656 L 1036.898438 486.464844 L 975.203125 320.5 L 970.167969 322.367188 L 1031.03125 486.097656 " fill-opacity="1" fill-rule="nonzero"/><path fill="rgb(85.099792%, 70.199585%, 34.118652%)" d="M 969.300781 296.90625 L 969.738281 309.644531 L 970.167969 322.367188 L 977.71875 319.5625 L 985.28125 316.753906 L 977.296875 306.835938 L 969.300781 296.90625 " fill-opacity="1" fill-rule="nonzero"/><path fill="rgb(85.488892%, 79.60968%, 43.528748%)" d="M 969.300781 296.90625 L 981.503906 318.160156 L 985.28125 316.753906 L 977.296875 306.835938 L 969.300781 296.90625 " fill-opacity="1" fill-rule="nonzero"/><path fill="rgb(84.709167%, 61.959839%, 33.329773%)" d="M 969.300781 296.90625 L 969.738281 309.644531 L 970.167969 322.367188 L 975.203125 320.5 L 969.300781 296.90625 " fill-opacity="1" fill-rule="nonzero"/><path fill="rgb(18.03894%, 14.118958%, 6.269836%)" d="M 969.589844 305.390625 L 969.300781 296.90625 L 974.628906 303.523438 Z M 969.589844 305.390625 " fill-opacity="1" fill-rule="nonzero"/><path fill="rgb(55.288696%, 81.959534%, 91.758728%)" d="M 942.648438 418.9375 C 946.226562 419.636719 949.824219 420.257812 953.441406 420.785156 C 987.867188 425.84375 1022.996094 424.800781 1057.34375 419.636719 C 1083.351562 415.726562 1109.507812 409.355469 1133.757812 398.847656 C 1140.40625 440.164062 1134.667969 485.839844 1113.3125 522.09375 C 1095.375 552.527344 971.398438 558.773438 952.15625 547.097656 C 932.765625 535.332031 930.472656 504.65625 932.335938 484.230469 C 934.996094 454.96875 937.960938 434.363281 942.648438 418.9375 " fill-opacity="1" fill-rule="nonzero"/><path fill="rgb(45.098877%, 79.219055%, 90.979004%)" d="M 932.335938 484.230469 C 934.996094 454.96875 937.960938 434.363281 942.648438 418.9375 C 946.226562 419.636719 949.824219 420.257812 953.441406 420.785156 C 956.660156 421.257812 959.882812 421.664062 963.105469 422.027344 C 953.871094 440.089844 952.890625 461.875 957.238281 481.460938 C 961.523438 500.789062 971.625 519.464844 988.039062 531.058594 C 1005.117188 543.125 1026.335938 546.027344 1046.664062 542.960938 C 1068.800781 539.617188 1089.9375 529.613281 1108.128906 516.8125 C 1112.609375 513.652344 1116.976562 510.296875 1121.191406 506.738281 C 1118.84375 512.011719 1116.222656 517.144531 1113.3125 522.09375 C 1095.375 552.527344 971.398438 558.773438 952.15625 547.097656 C 932.765625 535.332031 930.472656 504.65625 932.335938 484.230469 " fill-opacity="1" fill-rule="nonzero"/><path fill="rgb(85.488892%, 80.389404%, 9.408569%)" d="M 764.1875 387.578125 C 762.832031 384.15625 758.730469 382.445312 755.824219 384.136719 C 753.738281 385.339844 751.699219 388.476562 750.285156 391.804688 C 748.914062 394.992188 747.9375 398.480469 747.4375 402.09375 C 747.128906 404.296875 747.019531 406.664062 747.46875 408.652344 C 748.515625 413.15625 753.210938 413.507812 755.042969 413.699219 C 758.914062 414.035156 760.597656 411.96875 761.246094 404.910156 C 761.714844 400.605469 763.769531 396.34375 764.542969 392.191406 C 764.882812 390.390625 764.714844 388.867188 764.1875 387.578125 " fill-opacity="1" fill-rule="nonzero"/><path fill="rgb(85.099792%, 66.268921%, 10.978699%)" d="M 764.542969 392.191406 C 764.882812 390.390625 764.714844 388.867188 764.1875 387.578125 C 764.042969 387.214844 763.855469 386.882812 763.65625 386.566406 C 760.679688 394.746094 756.871094 402.003906 752.222656 405.925781 C 750.585938 407.25 748.910156 407.925781 747.304688 407.730469 C 747.347656 408.035156 747.398438 408.355469 747.46875 408.652344 C 748.515625 413.15625 753.210938 413.507812 755.042969 413.699219 C 758.914062 414.027344 760.597656 411.96875 761.246094 404.910156 C 761.714844 400.605469 763.769531 396.34375 764.542969 392.191406 " fill-opacity="1" fill-rule="nonzero"/><path fill="rgb(85.488892%, 81.959534%, 56.079102%)" d="M 753.289062 388.773438 C 752.386719 390.25 751.535156 391.734375 750.996094 393.601562 C 750.53125 395.210938 751.058594 395.238281 751.652344 394.238281 C 751.992188 393.683594 752.285156 393.019531 752.628906 392.449219 C 753.960938 390.25 755.738281 391.246094 756.980469 388.667969 C 757.828125 386.996094 757.355469 385.914062 756.554688 385.867188 C 755.609375 385.820312 754.179688 387.300781 753.289062 388.773438 " fill-opacity="1" fill-rule="nonzero"/><path fill="rgb(58.039856%, 82.749939%, 91.758728%)" d="M 1026.199219 69.125 C 1042.316406 75.308594 1057.667969 85.015625 1069.554688 95.882812 C 1079.257812 104.757812 1087.257812 115.734375 1092.105469 127.992188 C 1095.78125 137.292969 1101.441406 155.066406 1093.226562 163.558594 C 1089.546875 167.359375 1084.675781 166.128906 1082.691406 161.316406 C 1081.648438 158.785156 1081.582031 155.976562 1081.378906 153.246094 C 1080.230469 137.386719 1074.535156 123.714844 1065.828125 112.246094 C 1059.046875 103.320312 1032.101562 74.886719 1026.199219 69.125 " fill-opacity="1" fill-rule="nonzero"/><path fill="rgb(65.879822%, 85.488892%, 92.158508%)" d="M 1124.175781 422.328125 C 1124.175781 422.328125 1113.8125 483.359375 1106.847656 492.804688 C 1099.890625 502.246094 1134.195312 510.265625 1124.175781 422.328125 " fill-opacity="1" fill-rule="nonzero"/></svg>