<?xml version="1.0" encoding="UTF-8"?>
<svg xmlns="http://www.w3.org/2000/svg" width="1805.25" zoomAndPan="magnify" viewBox="0 0 1805.25 618.749987"
     height="618.749987" preserveAspectRatio="xMidYMid meet" version="1.0">
    <path fill="rgb(85.488892%, 78.039551%, 9.408569%)"
          d="M 752.730469 479.167969 C 755.40625 478.484375 758.148438 478.078125 760.699219 478.992188 C 763.257812 479.90625 765.175781 482.003906 766.917969 484.078125 C 773.6875 492.140625 780.753906 501.628906 784.105469 511.625 C 764.121094 522.386719 745.332031 524.96875 722.882812 526.066406 C 643.320312 529.960938 631.957031 434.851562 652.59375 377.242188 C 663.617188 346.464844 679.292969 317.777344 695.890625 289.71875 C 717.214844 253.6875 712.285156 211.402344 722.289062 172.277344 C 728.761719 146.96875 747.855469 125.253906 775.585938 125.1875 C 782.089844 125.175781 801.515625 126.0625 797.285156 136.984375 C 792.804688 148.550781 792.976562 163.28125 791.347656 175.574219 C 778.855469 173.300781 764.050781 171.730469 755.28125 180.902344 C 749.507812 186.957031 748.292969 195.933594 747.71875 204.28125 C 746.351562 224.230469 746.636719 243.335938 742.585938 263.042969 C 734.566406 302.050781 709.40625 334.320312 695.34375 371.015625 C 684.585938 399.078125 666.875 449.207031 693.167969 473.96875 C 707.777344 487.730469 731.035156 485.453125 750.296875 479.847656 C 751.097656 479.613281 751.914062 479.382812 752.730469 479.167969 "
          fill-opacity="1" fill-rule="nonzero"/>
    <path fill="rgb(84.709167%, 57.649231%, 11.759949%)"
          d="M 666.859375 468.5625 C 678.242188 475.710938 692.136719 480.234375 706.421875 481.777344 C 731.347656 480.390625 740.175781 475.996094 754.316406 471.882812 C 755.113281 471.644531 751.914062 479.382812 752.730469 479.167969 C 755.40625 478.484375 758.148438 478.078125 760.699219 478.992188 C 763.257812 479.90625 765.175781 482.003906 766.917969 484.078125 C 773.6875 492.140625 780.753906 501.628906 784.105469 511.625 C 764.121094 522.386719 745.332031 524.96875 722.882812 526.066406 C 670.429688 528.636719 647.621094 488.160156 644.078125 443.78125 C 649.222656 453.5625 656.585938 462.121094 666.859375 468.5625 "
          fill-opacity="1" fill-rule="nonzero"/>
    <path fill="rgb(84.709167%, 57.649231%, 11.759949%)"
          d="M 777.882812 178.351562 C 775.242188 178.253906 772.597656 178.160156 769.964844 178.269531 C 758.382812 178.765625 747.019531 183.398438 738.378906 191.128906 C 722.195312 205.609375 714.742188 227.609375 710.746094 248.175781 C 715.601562 223.210938 715.945312 197.105469 722.289062 172.277344 C 728.761719 146.96875 747.855469 125.253906 775.585938 125.1875 C 782.089844 125.175781 801.515625 126.0625 797.285156 136.984375 C 792.199219 150.132812 793.609375 163.992188 792.890625 177.648438 C 787.984375 178.761719 782.941406 178.539062 777.882812 178.351562 "
          fill-opacity="1" fill-rule="nonzero"/>
    <path fill="rgb(19.60907%, 71.369934%, 90.19928%)"
          d="M 1103.382812 185.082031 C 1133.550781 223.808594 1150.035156 406.511719 1150.441406 445.734375 C 1150.773438 477.378906 1155.179688 515.820312 1137.203125 543.648438 C 1114.207031 579.265625 1042.0625 584.210938 1004.453125 587.789062 C 902.503906 597.476562 731.085938 580.589844 750.476562 434.878906 C 761.597656 351.296875 781.589844 277.007812 775.84375 174.636719 C 774.597656 152.433594 778.320312 128.886719 790.636719 110.375 C 807.503906 85 841.347656 77.371094 871.820312 77.035156 C 920.945312 76.492188 969.433594 89.308594 1015 107.648438 C 1055.863281 124.097656 1103.285156 184.945312 1103.382812 185.082031 "
          fill-opacity="1" fill-rule="nonzero"/>
    <path fill="rgb(17.649841%, 64.709473%, 82.348633%)"
          d="M 750.476562 434.878906 C 740.769531 491.492188 764.457031 529.085938 799.621094 552.777344 C 806.996094 527.152344 809.089844 501.398438 813.765625 475.363281 C 817.910156 452.289062 830.492188 373.957031 832.164062 357.675781 C 836.628906 314.226562 848.304688 270.863281 871.691406 233.980469 C 911.261719 171.570312 989.480469 134.753906 1062.960938 141.242188 C 1048.144531 127.441406 1031.066406 114.113281 1015 107.648438 C 969.433594 89.308594 920.945312 76.492188 871.820312 77.035156 C 841.347656 77.371094 807.503906 85 790.636719 110.375 C 778.320312 128.886719 774.597656 152.433594 775.84375 174.636719 C 775.84375 174.636719 778.941406 268.757812 750.476562 434.878906 "
          fill-opacity="1" fill-rule="nonzero"/>
    <path fill="rgb(16.468811%, 59.21936%, 75.289917%)"
          d="M 894.453125 179.070312 C 884.636719 168.867188 871.144531 163.613281 857.800781 159.699219 C 844.449219 155.773438 828.761719 152.890625 815.253906 157.648438 C 801.136719 162.625 794.621094 175.777344 789.839844 188.984375 C 787.105469 196.5 784.855469 205.746094 779.054688 211.59375 C 777.328125 213.339844 776.636719 212.035156 775.4375 209.980469 C 776.238281 186.757812 775.84375 174.636719 775.84375 174.636719 C 774.597656 152.433594 778.320312 128.886719 790.636719 110.375 C 807.503906 85 841.347656 77.371094 871.820312 77.035156 C 920.945312 76.492188 969.433594 89.308594 1015 107.648438 C 1031.066406 114.113281 1048.144531 127.441406 1062.960938 141.25 C 1006.980469 136.296875 948.277344 156.507812 905.984375 193.992188 C 902.488281 188.769531 898.847656 183.636719 894.453125 179.070312 "
          fill-opacity="1" fill-rule="nonzero"/>
    <path fill="rgb(39.99939%, 77.648926%, 90.979004%)"
          d="M 886.339844 483.535156 C 887.519531 470.574219 888.46875 460.738281 888.84375 457.816406 C 897.296875 391.601562 928.246094 327.257812 997.613281 308.738281 C 1028.679688 300.4375 1061.683594 299.746094 1093.511719 298.304688 C 1116.21875 297.28125 1141.613281 302.582031 1149.953125 326.59375 C 1172.550781 391.707031 1171.730469 472.886719 1141.101562 535.261719 C 1118.078125 582.167969 1050.085938 583.457031 1004.453125 587.789062 C 967.695312 591.277344 921.914062 591.3125 879.292969 583.113281 C 877.859375 582.839844 882.992188 520.480469 886.339844 483.535156 "
          fill-opacity="1" fill-rule="nonzero"/>
    <path fill="rgb(10.198975%, 41.569519%, 55.288696%)"
          d="M 889.03125 429.453125 C 890.382812 418.820312 893.289062 408.285156 896.820312 398.15625 C 905.3125 373.828125 917.78125 350.386719 936.460938 332.636719 C 953.863281 316.085938 976.054688 305.117188 999.203125 298.703125 C 1022.34375 292.289062 1046.507812 290.242188 1070.515625 289.933594 C 1092.46875 289.660156 1115.589844 291.148438 1134.085938 302.949219 C 1135.4375 303.800781 1136.832031 304.835938 1137.246094 306.375 C 1137.425781 307.0625 1137.378906 307.808594 1137.117188 308.472656 C 1139.714844 301.890625 1093.71875 298.441406 1089.90625 298.488281 C 1045.492188 299.058594 997.628906 301.101562 959.316406 326.316406 C 917.125 354.085938 895.492188 405.207031 889.320312 455.335938 C 887.863281 446.753906 887.933594 438.074219 889.03125 429.453125 "
          fill-opacity="1" fill-rule="nonzero"/>
    <path fill="rgb(27.839661%, 53.329468%, 63.529968%)"
          d="M 881.902344 583.589844 C 906.699219 588.164062 932.464844 589.980469 956.835938 589.996094 C 932.539062 590.15625 906.800781 588.644531 881.757812 584.621094 C 881.816406 584.277344 881.871094 583.9375 881.902344 583.589844 "
          fill-opacity="1" fill-rule="nonzero"/>
    <path fill="rgb(33.729553%, 65.098572%, 76.858521%)"
          d="M 965.382812 407.300781 C 971.347656 404.75 1022.351562 391.433594 1062.816406 388.007812 C 1079.476562 386.605469 1113.390625 387.375 1126.09375 391.183594 C 1140.214844 395.425781 1150.90625 399.175781 1147.363281 415.074219 C 1147.253906 415.550781 1143.011719 422.578125 1143.011719 423.019531 C 1133.570312 429.773438 1122.441406 434.511719 1111.707031 438.488281 C 1081.476562 449.664062 1048.824219 455.777344 1016.625 456.640625 C 999.6875 457.097656 981.988281 458.042969 965.527344 453.195312 C 955.980469 450.375 938.085938 439.070312 939.53125 428.128906 C 940.753906 418.800781 954.195312 412.085938 965.382812 407.300781 "
          fill-opacity="1" fill-rule="nonzero"/>
    <path fill="rgb(10.198975%, 41.569519%, 55.288696%)"
          d="M 900.261719 142.601562 C 888.988281 147.75 879.457031 155.949219 868.800781 165.671875 C 823.78125 206.746094 820.464844 279.722656 819.011719 280.65625 C 812.320312 280.65625 820.292969 224.269531 832.316406 192.621094 C 855.265625 132.265625 907.527344 101.214844 960.15625 83.34375 C 975.613281 78.089844 1033.976562 56.585938 1046.355469 73.371094 C 1067.648438 102.230469 1009.238281 114.386719 997.035156 117.03125 C 976.726562 121.417969 956.09375 124.105469 936.105469 130.226562 C 923.460938 134.101562 911.484375 137.476562 900.261719 142.601562 "
          fill-opacity="1" fill-rule="nonzero"/>
    <path fill="rgb(39.99939%, 77.648926%, 90.979004%)"
          d="M 929.9375 27.59375 C 872.046875 29.894531 786.101562 64.648438 781.589844 132.226562 C 800.226562 116.753906 828.199219 117.21875 850.40625 126.902344 C 886.453125 142.613281 907.347656 176.703125 939.671875 198.082031 C 987.5625 229.757812 1130.898438 224.496094 1118.1875 140.789062 C 1118.1875 140.789062 1096.058594 21.011719 929.9375 27.59375 "
          fill-opacity="1" fill-rule="nonzero"/>
    <path fill="rgb(30.589294%, 74.508667%, 90.589905%)"
          d="M 853.40625 100.25 C 885.148438 123.457031 917.734375 169.003906 950.054688 190.382812 C 993.609375 219.195312 1105.71875 203.308594 1117.972656 139.78125 C 1118.121094 140.429688 1118.1875 140.789062 1118.1875 140.789062 C 1130.898438 224.496094 987.5625 229.757812 939.671875 198.082031 C 907.347656 176.703125 886.453125 142.613281 850.40625 126.902344 C 828.199219 117.21875 800.226562 116.753906 781.589844 132.226562 C 782.21875 122.839844 786.226562 101.925781 797.457031 89.164062 C 815.730469 78.332031 832.691406 85.097656 853.40625 100.25 "
          fill-opacity="1" fill-rule="nonzero"/>
    <path fill="rgb(28.239441%, 27.059937%, 27.449036%)"
          d="M 883.878906 458.148438 C 884.445312 452.03125 885.773438 446.957031 887.058594 445.453125 L 886.558594 444.859375 L 887.882812 444.992188 C 889.398438 445.152344 891.144531 451.429688 890.457031 458.851562 C 889.765625 466.273438 886.902344 472.035156 885.386719 471.878906 L 884.066406 471.738281 L 884.613281 471.167969 C 883.65625 469.328125 883.320312 464.160156 883.878906 458.148438 "
          fill-opacity="1" fill-rule="nonzero"/>
    <path fill="rgb(40.388489%, 39.608765%, 39.608765%)"
          d="M 882.5625 458.015625 C 881.875 465.441406 882.550781 471.585938 884.070312 471.738281 C 885.59375 471.902344 887.882812 466.320312 888.570312 458.898438 C 889.261719 451.476562 888.078125 445.015625 886.558594 444.859375 C 885.042969 444.703125 883.253906 450.59375 882.5625 458.015625 "
          fill-opacity="1" fill-rule="nonzero"/>
    <path fill="rgb(48.239136%, 47.44873%, 47.44873%)"
          d="M 881.183594 464.210938 C 881.183594 464.210938 883.132812 465.238281 885.296875 463.78125 C 885.226562 465.144531 885.15625 466.511719 885.085938 467.875 C 883.320312 468.597656 881.089844 468.621094 878.4375 466.867188 L 881.183594 464.210938 "
          fill-opacity="1" fill-rule="nonzero"/>
    <path fill="rgb(27.449036%, 26.269531%, 26.669312%)"
          d="M 853.761719 489.542969 C 854.621094 489.554688 855.285156 488.847656 855.289062 487.984375 C 855.324219 484.613281 857.589844 479.28125 863.253906 472.816406 C 870.648438 464.382812 876.976562 458.769531 879.140625 456.925781 C 879.625 456.515625 880.300781 456.453125 880.851562 456.753906 L 883.867188 458.414062 C 884.613281 458.828125 884.875 459.785156 884.425781 460.519531 C 880.976562 466.222656 867.34375 488.25 861.269531 491.183594 C 859.425781 492.082031 857.894531 492.140625 856.839844 491.503906 L 856.828125 491.511719 L 853.761719 489.542969 "
          fill-opacity="1" fill-rule="nonzero"/>
    <path fill="rgb(37.649536%, 36.859131%, 36.859131%)"
          d="M 879.3125 455.683594 C 881.054688 456.644531 881.636719 458.859375 880.597656 460.554688 C 875.972656 468.070312 864.082031 486.757812 858.523438 489.449219 C 851.53125 492.839844 848.90625 484.320312 860.503906 471.082031 C 866.917969 463.757812 872.542969 458.566406 875.328125 456.113281 C 876.433594 455.140625 878.023438 454.972656 879.3125 455.683594 "
          fill-opacity="1" fill-rule="nonzero"/>
    <path fill="rgb(22.349548%, 20.779419%, 21.179199%)"
          d="M 874.3125 457.960938 C 872.621094 459.179688 871.75 460.851562 872.347656 461.691406 C 872.960938 462.535156 874.8125 462.238281 876.515625 461.027344 C 878.203125 459.8125 879.078125 458.140625 878.464844 457.296875 C 877.867188 456.453125 876.003906 456.75 874.3125 457.960938 "
          fill-opacity="1" fill-rule="nonzero"/>
    <path fill="rgb(48.239136%, 47.44873%, 47.44873%)"
          d="M 875.429688 450.488281 C 875.734375 450.136719 876.070312 449.8125 876.421875 449.515625 C 878.121094 448.097656 880.261719 447.445312 882.453125 447.488281 C 882.867188 447.488281 886.039062 447.738281 886.0625 448.222656 C 886.121094 449.304688 885.582031 452.140625 885.570312 452.160156 C 882.480469 450.980469 878.578125 452.246094 877.8125 454.441406 C 876.804688 457.355469 877.796875 459.824219 877.796875 459.824219 C 876.21875 461.691406 874.410156 462.046875 874.410156 462.046875 C 873.710938 462.023438 873.171875 458.847656 873.117188 458.328125 C 872.832031 455.585938 873.625 452.601562 875.429688 450.488281 "
          fill-opacity="1" fill-rule="nonzero"/>
    <path fill="rgb(48.239136%, 47.44873%, 47.44873%)"
          d="M 815.421875 276.933594 C 815.421875 276.933594 817.804688 277.964844 819.964844 276.511719 C 819.710938 278.230469 819.394531 279.234375 819.320312 280.597656 C 817.558594 281.320312 815.320312 281.347656 812.675781 279.589844 L 815.421875 276.933594 "
          fill-opacity="1" fill-rule="nonzero"/>
    <path fill="rgb(27.449036%, 26.269531%, 26.669312%)"
          d="M 788.003906 302.902344 C 788.859375 302.910156 789.527344 302.203125 789.527344 301.347656 C 789.558594 297.972656 791.832031 292.636719 797.492188 286.171875 C 804.882812 277.742188 811.214844 272.132812 813.382812 270.28125 C 813.867188 269.871094 814.542969 269.808594 815.089844 270.117188 L 818.105469 271.777344 C 818.859375 272.191406 819.113281 273.144531 818.671875 273.878906 C 815.21875 279.578125 801.582031 301.605469 795.5 304.546875 C 793.671875 305.441406 792.132812 305.496094 791.074219 304.867188 L 791.066406 304.871094 L 788.003906 302.902344 "
          fill-opacity="1" fill-rule="nonzero"/>
    <path fill="rgb(37.649536%, 36.859131%, 36.859131%)"
          d="M 813.546875 269.039062 C 815.292969 270 815.882812 272.21875 814.832031 273.914062 C 810.21875 281.425781 798.320312 300.113281 792.757812 302.808594 C 785.769531 306.195312 783.136719 297.675781 794.75 284.4375 C 801.152344 277.117188 806.769531 271.929688 809.566406 269.46875 C 810.667969 268.503906 812.261719 268.332031 813.546875 269.039062 "
          fill-opacity="1" fill-rule="nonzero"/>
    <path fill="rgb(22.349548%, 20.779419%, 21.179199%)"
          d="M 808.546875 271.324219 C 806.863281 272.535156 805.984375 274.207031 806.59375 275.050781 C 807.195312 275.894531 809.058594 275.597656 810.742188 274.382812 C 812.445312 273.167969 813.324219 271.503906 812.710938 270.660156 C 812.101562 269.8125 810.242188 270.105469 808.546875 271.324219 "
          fill-opacity="1" fill-rule="nonzero"/>
    <path fill="rgb(48.239136%, 47.44873%, 47.44873%)"
          d="M 809.671875 263.847656 C 809.972656 263.5 810.304688 263.171875 810.667969 262.875 C 812.363281 261.460938 814.5 260.808594 816.691406 260.835938 C 818.410156 260.871094 820.292969 261.300781 821.941406 261.757812 C 821.554688 263.066406 821.429688 264.449219 821.398438 265.859375 C 820.472656 265.640625 817.613281 265.183594 817.191406 265.171875 C 815.699219 265.105469 814.261719 265.480469 813.148438 266.550781 C 811.878906 267.785156 811.332031 269.726562 811.785156 271.4375 C 811.925781 271.992188 812.164062 272.570312 812 273.109375 C 811.902344 273.4375 811.65625 273.707031 811.40625 273.945312 C 810.882812 274.445312 810.265625 274.863281 809.601562 275.171875 C 809.339844 275.296875 809.066406 275.398438 808.785156 275.355469 C 807.671875 275.179688 807.4375 272.546875 807.359375 271.691406 C 807.070312 268.941406 807.859375 265.957031 809.671875 263.847656 "
          fill-opacity="1" fill-rule="nonzero"/>
    <path fill="rgb(85.488892%, 80.389404%, 9.408569%)"
          d="M 1027.613281 183.152344 C 1037.855469 177.699219 1054.984375 178.695312 1062.527344 183.472656 C 1068.027344 186.957031 1071.042969 193.285156 1073.027344 199.492188 C 1074.921875 205.429688 1076.144531 211.585938 1076.667969 217.804688 C 1076.984375 221.601562 1077.007812 225.597656 1075.304688 229.015625 C 1071.496094 236.644531 1054.074219 238.074219 1046.933594 238.75 C 1032.589844 240.113281 1023.703125 236.460938 1022.625 220.914062 C 1021.976562 211.65625 1017.488281 201.445312 1019.882812 192.128906 C 1020.914062 188.140625 1023.773438 185.191406 1027.613281 183.152344 "
          fill-opacity="1" fill-rule="nonzero"/>
    <path fill="rgb(85.099792%, 66.268921%, 10.978699%)"
          d="M 1019.882812 192.128906 C 1020.914062 188.140625 1023.773438 185.191406 1027.613281 183.152344 C 1028.695312 182.574219 1029.863281 182.09375 1031.066406 181.65625 C 1028.269531 199.902344 1039.773438 216.671875 1057.15625 223.988281 C 1063.285156 226.566406 1069.765625 227.746094 1075.957031 227.4375 C 1075.773438 227.972656 1075.566406 228.503906 1075.304688 229.015625 C 1071.496094 236.644531 1054.074219 238.074219 1046.933594 238.75 C 1032.589844 240.113281 1023.703125 236.460938 1022.625 220.914062 C 1021.976562 211.65625 1017.488281 201.445312 1019.882812 192.128906 "
          fill-opacity="1" fill-rule="nonzero"/>
    <path fill="rgb(85.488892%, 81.959534%, 56.079102%)"
          d="M 1065.285156 192.847656 C 1066.792969 195.871094 1068.316406 198.792969 1068.648438 202.214844 C 1068.945312 205.167969 1066.96875 205.027344 1065.582031 203.046875 C 1064.8125 201.953125 1064.339844 200.664062 1063.652344 199.503906 C 1061.015625 195.054688 1053.289062 195.816406 1051.953125 190.457031 C 1051.070312 186.917969 1054.464844 185.359375 1057.359375 185.863281 C 1060.828125 186.457031 1063.789062 189.863281 1065.285156 192.847656 "
          fill-opacity="1" fill-rule="nonzero"/>
    <path fill="rgb(19.60907%, 71.369934%, 90.19928%)"
          d="M 798.152344 502.542969 C 797.773438 506.460938 773.707031 500.070312 771.019531 499.433594 C 743.664062 492.972656 737.003906 465.558594 737.660156 440.828125 C 738.324219 416.058594 741.027344 380.664062 761.101562 363.59375 C 766.175781 359.269531 772.242188 356.183594 778.808594 354.914062 C 788.898438 352.960938 801.425781 355.789062 809.042969 363.003906 C 821.492188 374.820312 814.867188 385.65625 811.828125 401.203125 C 805.242188 434.78125 801.445312 468.515625 798.152344 502.542969 "
          fill-opacity="1" fill-rule="nonzero"/>
    <path fill="rgb(9.408569%, 33.329773%, 44.309998%)"
          d="M 808.171875 421.511719 C 788.003906 417.625 765.546875 414.21875 748.382812 402.742188 C 744.585938 400.199219 742.972656 395.449219 744.347656 391.089844 C 747.800781 380.21875 753.050781 370.4375 761.101562 363.59375 C 766.175781 359.269531 772.242188 356.183594 778.808594 354.914062 C 788.898438 352.960938 801.425781 355.789062 809.042969 363.003906 C 821.492188 374.820312 814.867188 385.65625 811.828125 401.203125 C 810.496094 407.964844 809.292969 414.734375 808.171875 421.511719 "
          fill-opacity="1" fill-rule="nonzero"/>
    <path fill="rgb(96.469116%, 54.508972%, 6.669617%)"
          d="M 1043.867188 473.742188 L 1061.375 369.785156 L 1095.535156 452.386719 Z M 1049.558594 277.921875 L 1008.847656 519.566406 L 1128.949219 469.921875 L 1049.558594 277.921875 "
          fill-opacity="1" fill-rule="nonzero"/>
    <path fill="rgb(78.42865%, 44.309998%, 5.488586%)"
          d="M 1041.984375 469.210938 L 1059.5 365.242188 L 1093.660156 447.847656 Z M 1047.683594 273.382812 L 1006.976562 515.027344 L 1127.066406 465.382812 L 1047.683594 273.382812 "
          fill-opacity="1" fill-rule="nonzero"/>
    <path fill="rgb(96.469116%, 54.508972%, 6.669617%)"
          d="M 1043.867188 473.742188 L 1061.375 369.785156 L 1095.535156 452.386719 Z M 1049.558594 277.921875 L 1008.847656 519.566406 L 1128.949219 469.921875 L 1049.558594 277.921875 "
          fill-opacity="1" fill-rule="nonzero"/>
    <path fill="rgb(96.859741%, 60.389709%, 5.879211%)"
          d="M 1117.726562 467.222656 C 1109.523438 457.855469 1104.792969 445.039062 1100.523438 433.503906 C 1089.789062 404.546875 1082.945312 373.730469 1067.492188 346.707031 C 1061.121094 335.566406 1052.828125 325.277344 1042.707031 318.636719 L 1049.558594 277.921875 L 1128.949219 469.921875 L 1122.613281 472.535156 C 1120.960938 470.753906 1119.289062 469.007812 1117.726562 467.222656 "
          fill-opacity="1" fill-rule="nonzero"/>
    <path fill="rgb(78.42865%, 44.309998%, 5.488586%)"
          d="M 1008.847656 519.566406 L 1006.976562 515.027344 L 1010.203125 510.980469 Z M 1008.847656 519.566406 "
          fill-opacity="1" fill-rule="nonzero"/>
    <path fill="rgb(100%, 100%, 100%)"
          d="M 1125.765625 466.433594 L 1117.132812 470.003906 C 1116.847656 470.121094 1116.707031 470.453125 1116.828125 470.742188 C 1116.945312 471.035156 1117.277344 471.167969 1117.570312 471.050781 L 1126.199219 467.480469 C 1126.488281 467.363281 1126.625 467.03125 1126.507812 466.742188 C 1126.382812 466.449219 1126.050781 466.316406 1125.765625 466.433594 "
          fill-opacity="1" fill-rule="nonzero"/>
    <path fill="rgb(100%, 100%, 100%)"
          d="M 1124.253906 462.765625 L 1119.40625 464.765625 C 1119.121094 464.886719 1118.980469 465.21875 1119.101562 465.503906 C 1119.21875 465.796875 1119.550781 465.9375 1119.839844 465.8125 L 1124.683594 463.816406 C 1124.976562 463.695312 1125.109375 463.363281 1124.992188 463.078125 C 1124.871094 462.785156 1124.542969 462.644531 1124.253906 462.765625 "
          fill-opacity="1" fill-rule="nonzero"/>
    <path fill="rgb(100%, 100%, 100%)"
          d="M 1123.058594 459.882812 L 1118.210938 461.886719 C 1117.925781 462.011719 1117.785156 462.34375 1117.90625 462.632812 C 1118.023438 462.917969 1118.355469 463.058594 1118.648438 462.9375 L 1123.496094 460.933594 C 1123.78125 460.816406 1123.921875 460.484375 1123.796875 460.191406 C 1123.679688 459.90625 1123.347656 459.765625 1123.058594 459.882812 "
          fill-opacity="1" fill-rule="nonzero"/>
    <path fill="rgb(100%, 100%, 100%)"
          d="M 1121.863281 457.007812 L 1117.027344 459.011719 C 1116.738281 459.125 1116.601562 459.457031 1116.71875 459.75 C 1116.839844 460.035156 1117.167969 460.175781 1117.457031 460.054688 L 1122.300781 458.054688 C 1122.585938 457.9375 1122.726562 457.605469 1122.601562 457.316406 C 1122.488281 457.023438 1122.15625 456.890625 1121.863281 457.007812 "
          fill-opacity="1" fill-rule="nonzero"/>
    <path fill="rgb(100%, 100%, 100%)"
          d="M 1120.679688 454.128906 L 1115.832031 456.132812 C 1115.546875 456.253906 1115.40625 456.582031 1115.53125 456.871094 C 1115.648438 457.164062 1115.980469 457.296875 1116.269531 457.179688 L 1121.113281 455.175781 C 1121.402344 455.054688 1121.539062 454.722656 1121.421875 454.4375 C 1121.296875 454.144531 1120.964844 454.011719 1120.679688 454.128906 "
          fill-opacity="1" fill-rule="nonzero"/>
    <path fill="rgb(100%, 100%, 100%)"
          d="M 1119.488281 451.246094 L 1110.851562 454.816406 C 1110.566406 454.933594 1110.425781 455.265625 1110.542969 455.554688 C 1110.664062 455.839844 1110.996094 455.980469 1111.289062 455.863281 L 1119.921875 452.292969 C 1120.207031 452.175781 1120.347656 451.84375 1120.226562 451.554688 C 1120.109375 451.269531 1119.777344 451.128906 1119.488281 451.246094 "
          fill-opacity="1" fill-rule="nonzero"/>
    <path fill="rgb(100%, 100%, 100%)"
          d="M 1118.238281 448.238281 L 1113.398438 450.238281 C 1113.113281 450.359375 1112.972656 450.691406 1113.089844 450.976562 C 1113.210938 451.269531 1113.542969 451.40625 1113.835938 451.285156 L 1118.675781 449.289062 C 1118.960938 449.164062 1119.101562 448.832031 1118.980469 448.546875 C 1118.863281 448.257812 1118.53125 448.117188 1118.238281 448.238281 "
          fill-opacity="1" fill-rule="nonzero"/>
    <path fill="rgb(100%, 100%, 100%)"
          d="M 1117.050781 445.355469 L 1112.210938 447.359375 C 1111.917969 447.480469 1111.777344 447.808594 1111.902344 448.097656 C 1112.023438 448.390625 1112.355469 448.53125 1112.640625 448.40625 L 1117.488281 446.402344 C 1117.773438 446.285156 1117.914062 445.953125 1117.789062 445.664062 C 1117.675781 445.378906 1117.34375 445.238281 1117.050781 445.355469 "
          fill-opacity="1" fill-rule="nonzero"/>
    <path fill="rgb(100%, 100%, 100%)"
          d="M 1115.863281 442.472656 L 1111.015625 444.476562 C 1110.722656 444.597656 1110.589844 444.929688 1110.707031 445.214844 C 1110.828125 445.507812 1111.15625 445.644531 1111.445312 445.523438 L 1116.292969 443.519531 C 1116.585938 443.402344 1116.71875 443.070312 1116.601562 442.78125 C 1116.480469 442.488281 1116.152344 442.355469 1115.863281 442.472656 "
          fill-opacity="1" fill-rule="nonzero"/>
    <path fill="rgb(100%, 100%, 100%)"
          d="M 1114.667969 439.59375 L 1109.828125 441.597656 C 1109.539062 441.71875 1109.402344 442.050781 1109.523438 442.335938 C 1109.640625 442.628906 1109.972656 442.769531 1110.261719 442.644531 L 1115.097656 440.640625 C 1115.390625 440.527344 1115.523438 440.195312 1115.40625 439.902344 C 1115.285156 439.609375 1114.953125 439.476562 1114.667969 439.59375 "
          fill-opacity="1" fill-rule="nonzero"/>
    <path fill="rgb(100%, 100%, 100%)"
          d="M 1113.480469 436.714844 L 1104.839844 440.285156 C 1104.554688 440.402344 1104.414062 440.734375 1104.535156 441.027344 C 1104.652344 441.3125 1104.984375 441.453125 1105.277344 441.335938 L 1113.917969 437.765625 C 1114.203125 437.648438 1114.34375 437.316406 1114.21875 437.023438 C 1114.101562 436.738281 1113.769531 436.597656 1113.480469 436.714844 "
          fill-opacity="1" fill-rule="nonzero"/>
    <path fill="rgb(100%, 100%, 100%)"
          d="M 1112.234375 433.703125 L 1107.390625 435.707031 C 1107.101562 435.832031 1106.964844 436.164062 1107.082031 436.449219 C 1107.203125 436.738281 1107.53125 436.871094 1107.820312 436.757812 L 1112.667969 434.753906 C 1112.957031 434.636719 1113.09375 434.304688 1112.972656 434.011719 C 1112.855469 433.722656 1112.523438 433.585938 1112.234375 433.703125 "
          fill-opacity="1" fill-rule="nonzero"/>
    <path fill="rgb(100%, 100%, 100%)"
          d="M 1111.039062 430.824219 L 1106.203125 432.824219 C 1105.910156 432.945312 1105.777344 433.277344 1105.894531 433.5625 C 1106.015625 433.855469 1106.347656 433.996094 1106.632812 433.871094 L 1111.476562 431.875 C 1111.761719 431.753906 1111.902344 431.421875 1111.777344 431.132812 C 1111.660156 430.84375 1111.328125 430.710938 1111.039062 430.824219 "
          fill-opacity="1" fill-rule="nonzero"/>
    <path fill="rgb(100%, 100%, 100%)"
          d="M 1109.855469 427.941406 L 1105.007812 429.945312 C 1104.722656 430.070312 1104.582031 430.402344 1104.699219 430.6875 C 1104.820312 430.976562 1105.152344 431.117188 1105.445312 430.996094 L 1110.285156 428.992188 C 1110.578125 428.875 1110.710938 428.542969 1110.59375 428.25 C 1110.472656 427.964844 1110.140625 427.824219 1109.855469 427.941406 "
          fill-opacity="1" fill-rule="nonzero"/>
    <path fill="rgb(100%, 100%, 100%)"
          d="M 1108.660156 425.066406 L 1103.8125 427.070312 C 1103.527344 427.183594 1103.386719 427.515625 1103.511719 427.808594 C 1103.628906 428.101562 1103.960938 428.234375 1104.25 428.117188 L 1109.097656 426.113281 C 1109.382812 425.996094 1109.523438 425.664062 1109.402344 425.375 C 1109.285156 425.082031 1108.953125 424.949219 1108.660156 425.066406 "
          fill-opacity="1" fill-rule="nonzero"/>
    <path fill="rgb(100%, 100%, 100%)"
          d="M 1107.46875 422.1875 L 1098.839844 425.753906 C 1098.546875 425.875 1098.414062 426.207031 1098.53125 426.492188 C 1098.652344 426.78125 1098.976562 426.921875 1099.269531 426.800781 L 1107.902344 423.230469 C 1108.1875 423.113281 1108.328125 422.78125 1108.207031 422.488281 C 1108.089844 422.203125 1107.757812 422.0625 1107.46875 422.1875 "
          fill-opacity="1" fill-rule="nonzero"/>
    <path fill="rgb(100%, 100%, 100%)"
          d="M 1106.226562 419.175781 L 1101.382812 421.171875 C 1101.09375 421.296875 1100.957031 421.628906 1101.074219 421.914062 C 1101.199219 422.203125 1101.523438 422.34375 1101.816406 422.222656 L 1106.664062 420.222656 C 1106.949219 420.101562 1107.089844 419.773438 1106.964844 419.484375 C 1106.847656 419.191406 1106.515625 419.058594 1106.226562 419.175781 "
          fill-opacity="1" fill-rule="nonzero"/>
    <path fill="rgb(100%, 100%, 100%)"
          d="M 1105.039062 416.292969 L 1100.191406 418.296875 C 1099.898438 418.417969 1099.765625 418.75 1099.882812 419.035156 C 1100.003906 419.328125 1100.328125 419.464844 1100.621094 419.34375 L 1105.46875 417.339844 C 1105.757812 417.222656 1105.894531 416.890625 1105.777344 416.601562 C 1105.65625 416.308594 1105.324219 416.175781 1105.039062 416.292969 "
          fill-opacity="1" fill-rule="nonzero"/>
    <path fill="rgb(100%, 100%, 100%)"
          d="M 1103.84375 413.414062 L 1099 415.417969 C 1098.714844 415.535156 1098.574219 415.867188 1098.699219 416.15625 C 1098.816406 416.449219 1099.148438 416.582031 1099.4375 416.464844 L 1104.273438 414.460938 C 1104.566406 414.339844 1104.699219 414.011719 1104.582031 413.722656 C 1104.460938 413.429688 1104.128906 413.296875 1103.84375 413.414062 "
          fill-opacity="1" fill-rule="nonzero"/>
    <path fill="rgb(100%, 100%, 100%)"
          d="M 1102.65625 410.535156 L 1097.8125 412.539062 C 1097.519531 412.65625 1097.386719 412.988281 1097.503906 413.28125 C 1097.625 413.566406 1097.957031 413.703125 1098.242188 413.582031 L 1103.089844 411.578125 C 1103.375 411.460938 1103.515625 411.128906 1103.394531 410.839844 C 1103.277344 410.554688 1102.945312 410.414062 1102.65625 410.535156 "
          fill-opacity="1" fill-rule="nonzero"/>
    <path fill="rgb(100%, 100%, 100%)"
          d="M 1101.464844 407.65625 L 1092.832031 411.222656 C 1092.539062 411.34375 1092.40625 411.671875 1092.523438 411.964844 C 1092.640625 412.253906 1092.976562 412.386719 1093.261719 412.273438 L 1101.898438 408.707031 C 1102.1875 408.585938 1102.324219 408.253906 1102.207031 407.964844 C 1102.082031 407.675781 1101.75 407.542969 1101.464844 407.65625 "
          fill-opacity="1" fill-rule="nonzero"/>
    <path fill="rgb(100%, 100%, 100%)"
          d="M 1100.21875 404.640625 L 1095.378906 406.644531 C 1095.085938 406.765625 1094.953125 407.097656 1095.070312 407.382812 C 1095.191406 407.675781 1095.523438 407.816406 1095.808594 407.691406 L 1100.648438 405.6875 C 1100.941406 405.570312 1101.074219 405.238281 1100.957031 404.949219 C 1100.835938 404.664062 1100.503906 404.523438 1100.21875 404.640625 "
          fill-opacity="1" fill-rule="nonzero"/>
    <path fill="rgb(100%, 100%, 100%)"
          d="M 1099.03125 401.761719 L 1094.183594 403.765625 C 1093.898438 403.882812 1093.757812 404.214844 1093.875 404.507812 C 1093.996094 404.796875 1094.328125 404.929688 1094.621094 404.816406 L 1099.460938 402.8125 C 1099.753906 402.695312 1099.886719 402.363281 1099.769531 402.070312 C 1099.648438 401.78125 1099.320312 401.644531 1099.03125 401.761719 "
          fill-opacity="1" fill-rule="nonzero"/>
    <path fill="rgb(100%, 100%, 100%)"
          d="M 1097.835938 398.882812 L 1092.988281 400.886719 C 1092.703125 401.003906 1092.5625 401.335938 1092.6875 401.628906 C 1092.800781 401.914062 1093.132812 402.054688 1093.425781 401.929688 L 1098.273438 399.925781 C 1098.558594 399.8125 1098.699219 399.480469 1098.574219 399.1875 C 1098.460938 398.902344 1098.128906 398.761719 1097.835938 398.882812 "
          fill-opacity="1" fill-rule="nonzero"/>
    <path fill="rgb(100%, 100%, 100%)"
          d="M 1096.640625 396 L 1091.804688 398.003906 C 1091.515625 398.121094 1091.378906 398.453125 1091.496094 398.746094 C 1091.621094 399.035156 1091.945312 399.171875 1092.238281 399.054688 L 1097.078125 397.050781 C 1097.363281 396.933594 1097.503906 396.601562 1097.382812 396.308594 C 1097.265625 396.023438 1096.933594 395.882812 1096.640625 396 "
          fill-opacity="1" fill-rule="nonzero"/>
    <path fill="rgb(100%, 100%, 100%)"
          d="M 1095.457031 393.125 L 1086.820312 396.695312 C 1086.527344 396.8125 1086.394531 397.144531 1086.511719 397.433594 C 1086.632812 397.726562 1086.964844 397.859375 1087.25 397.742188 L 1095.890625 394.171875 C 1096.179688 394.050781 1096.316406 393.71875 1096.199219 393.433594 C 1096.078125 393.140625 1095.746094 393 1095.457031 393.125 "
          fill-opacity="1" fill-rule="nonzero"/>
    <path fill="rgb(100%, 100%, 100%)"
          d="M 1094.210938 390.109375 L 1089.363281 392.117188 C 1089.078125 392.230469 1088.9375 392.5625 1089.0625 392.855469 C 1089.179688 393.140625 1089.511719 393.28125 1089.800781 393.164062 L 1094.644531 391.160156 C 1094.933594 391.042969 1095.070312 390.710938 1094.953125 390.421875 C 1094.828125 390.128906 1094.496094 389.996094 1094.210938 390.109375 "
          fill-opacity="1" fill-rule="nonzero"/>
    <path fill="rgb(100%, 100%, 100%)"
          d="M 1093.019531 387.234375 L 1088.175781 389.238281 C 1087.890625 389.355469 1087.75 389.6875 1087.875 389.976562 C 1087.988281 390.261719 1088.320312 390.402344 1088.613281 390.28125 L 1093.453125 388.277344 C 1093.742188 388.160156 1093.878906 387.828125 1093.757812 387.535156 C 1093.640625 387.25 1093.308594 387.109375 1093.019531 387.234375 "
          fill-opacity="1" fill-rule="nonzero"/>
    <path fill="rgb(100%, 100%, 100%)"
          d="M 1091.828125 384.355469 L 1086.988281 386.359375 C 1086.695312 386.476562 1086.5625 386.808594 1086.679688 387.097656 C 1086.800781 387.390625 1087.132812 387.523438 1087.417969 387.40625 L 1092.265625 385.402344 C 1092.550781 385.28125 1092.691406 384.949219 1092.570312 384.664062 C 1092.453125 384.375 1092.121094 384.238281 1091.828125 384.355469 "
          fill-opacity="1" fill-rule="nonzero"/>
    <path fill="rgb(100%, 100%, 100%)"
          d="M 1090.640625 381.472656 L 1085.792969 383.476562 C 1085.5 383.59375 1085.363281 383.925781 1085.484375 384.214844 C 1085.605469 384.5 1085.933594 384.640625 1086.222656 384.523438 L 1091.070312 382.519531 C 1091.363281 382.402344 1091.496094 382.070312 1091.378906 381.78125 C 1091.257812 381.496094 1090.933594 381.355469 1090.640625 381.472656 "
          fill-opacity="1" fill-rule="nonzero"/>
    <path fill="rgb(100%, 100%, 100%)"
          d="M 1089.445312 378.59375 L 1080.8125 382.160156 C 1080.527344 382.28125 1080.386719 382.613281 1080.507812 382.898438 C 1080.625 383.191406 1080.957031 383.332031 1081.25 383.207031 L 1089.878906 379.644531 C 1090.167969 379.519531 1090.304688 379.1875 1090.1875 378.902344 C 1090.0625 378.613281 1089.738281 378.472656 1089.445312 378.59375 "
          fill-opacity="1" fill-rule="nonzero"/>
    <path fill="rgb(100%, 100%, 100%)"
          d="M 1088.207031 375.582031 L 1083.359375 377.585938 C 1083.074219 377.703125 1082.933594 378.035156 1083.054688 378.324219 C 1083.171875 378.613281 1083.503906 378.75 1083.792969 378.628906 L 1088.640625 376.632812 C 1088.929688 376.507812 1089.066406 376.175781 1088.945312 375.890625 C 1088.828125 375.601562 1088.496094 375.464844 1088.207031 375.582031 "
          fill-opacity="1" fill-rule="nonzero"/>
    <path fill="rgb(100%, 100%, 100%)"
          d="M 1087.011719 372.699219 L 1082.164062 374.703125 C 1081.878906 374.824219 1081.738281 375.15625 1081.859375 375.441406 C 1081.976562 375.734375 1082.308594 375.875 1082.601562 375.75 L 1087.449219 373.746094 C 1087.734375 373.628906 1087.875 373.296875 1087.75 373.007812 C 1087.632812 372.722656 1087.300781 372.582031 1087.011719 372.699219 "
          fill-opacity="1" fill-rule="nonzero"/>
    <path fill="rgb(100%, 100%, 100%)"
          d="M 1085.816406 369.820312 L 1080.980469 371.824219 C 1080.691406 371.941406 1080.554688 372.273438 1080.671875 372.566406 C 1080.792969 372.855469 1081.121094 372.988281 1081.410156 372.875 L 1086.253906 370.871094 C 1086.539062 370.753906 1086.679688 370.421875 1086.554688 370.128906 C 1086.441406 369.839844 1086.109375 369.703125 1085.816406 369.820312 "
          fill-opacity="1" fill-rule="nonzero"/>
    <path fill="rgb(100%, 100%, 100%)"
          d="M 1084.632812 366.941406 L 1079.785156 368.945312 C 1079.5 369.0625 1079.359375 369.394531 1079.484375 369.6875 C 1079.601562 369.972656 1079.933594 370.113281 1080.222656 369.996094 L 1085.066406 367.992188 C 1085.355469 367.871094 1085.492188 367.539062 1085.375 367.25 C 1085.25 366.960938 1084.917969 366.820312 1084.632812 366.941406 "
          fill-opacity="1" fill-rule="nonzero"/>
    <path fill="rgb(100%, 100%, 100%)"
          d="M 1083.441406 364.066406 L 1074.804688 367.628906 C 1074.519531 367.753906 1074.378906 368.085938 1074.496094 368.375 C 1074.617188 368.660156 1074.949219 368.800781 1075.242188 368.679688 L 1083.875 365.109375 C 1084.160156 364.992188 1084.300781 364.660156 1084.179688 364.367188 C 1084.0625 364.082031 1083.730469 363.941406 1083.441406 364.066406 "
          fill-opacity="1" fill-rule="nonzero"/>
    <path fill="rgb(100%, 100%, 100%)"
          d="M 1082.191406 361.054688 L 1077.351562 363.058594 C 1077.066406 363.175781 1076.925781 363.507812 1077.042969 363.796875 C 1077.164062 364.089844 1077.496094 364.222656 1077.789062 364.105469 L 1082.628906 362.101562 C 1082.914062 361.980469 1083.054688 361.648438 1082.933594 361.363281 C 1082.816406 361.070312 1082.484375 360.9375 1082.191406 361.054688 "
          fill-opacity="1" fill-rule="nonzero"/>
    <path fill="rgb(100%, 100%, 100%)"
          d="M 1081.003906 358.167969 L 1076.164062 360.171875 C 1075.871094 360.289062 1075.730469 360.621094 1075.855469 360.914062 C 1075.976562 361.199219 1076.308594 361.339844 1076.59375 361.222656 L 1081.441406 359.21875 C 1081.726562 359.101562 1081.867188 358.769531 1081.742188 358.476562 C 1081.628906 358.1875 1081.296875 358.054688 1081.003906 358.167969 "
          fill-opacity="1" fill-rule="nonzero"/>
    <path fill="rgb(100%, 100%, 100%)"
          d="M 1079.816406 355.292969 L 1074.96875 357.296875 C 1074.675781 357.414062 1074.542969 357.746094 1074.660156 358.035156 C 1074.78125 358.328125 1075.109375 358.460938 1075.398438 358.34375 L 1080.246094 356.339844 C 1080.539062 356.21875 1080.671875 355.886719 1080.554688 355.601562 C 1080.433594 355.308594 1080.105469 355.167969 1079.816406 355.292969 "
          fill-opacity="1" fill-rule="nonzero"/>
    <path fill="rgb(100%, 100%, 100%)"
          d="M 1078.621094 352.414062 L 1073.78125 354.414062 C 1073.492188 354.527344 1073.355469 354.859375 1073.476562 355.152344 C 1073.59375 355.445312 1073.925781 355.578125 1074.214844 355.460938 L 1079.050781 353.457031 C 1079.34375 353.339844 1079.476562 353.007812 1079.359375 352.71875 C 1079.238281 352.429688 1078.90625 352.292969 1078.621094 352.414062 "
          fill-opacity="1" fill-rule="nonzero"/>
    <path fill="rgb(100%, 100%, 100%)"
          d="M 1077.433594 349.53125 L 1068.792969 353.101562 C 1068.507812 353.222656 1068.367188 353.550781 1068.488281 353.839844 C 1068.605469 354.132812 1068.9375 354.265625 1069.230469 354.148438 L 1077.871094 350.578125 C 1078.15625 350.457031 1078.292969 350.125 1078.171875 349.832031 C 1078.054688 349.546875 1077.722656 349.40625 1077.433594 349.53125 "
          fill-opacity="1" fill-rule="nonzero"/>
    <path fill="rgb(100%, 100%, 100%)"
          d="M 1076.1875 346.519531 L 1071.34375 348.523438 C 1071.054688 348.640625 1070.917969 348.972656 1071.035156 349.261719 C 1071.15625 349.554688 1071.484375 349.6875 1071.773438 349.570312 L 1076.621094 347.566406 C 1076.910156 347.449219 1077.046875 347.117188 1076.925781 346.828125 C 1076.808594 346.535156 1076.476562 346.402344 1076.1875 346.519531 "
          fill-opacity="1" fill-rule="nonzero"/>
    <path fill="rgb(100%, 100%, 100%)"
          d="M 1074.996094 343.640625 L 1070.15625 345.644531 C 1069.863281 345.761719 1069.730469 346.09375 1069.847656 346.382812 C 1069.96875 346.671875 1070.300781 346.808594 1070.585938 346.6875 L 1075.429688 344.6875 C 1075.71875 344.566406 1075.855469 344.234375 1075.738281 343.949219 C 1075.613281 343.660156 1075.28125 343.519531 1074.996094 343.640625 "
          fill-opacity="1" fill-rule="nonzero"/>
    <path fill="rgb(100%, 100%, 100%)"
          d="M 1073.808594 340.761719 L 1068.960938 342.761719 C 1068.675781 342.878906 1068.535156 343.210938 1068.652344 343.5 C 1068.773438 343.785156 1069.105469 343.925781 1069.390625 343.808594 L 1074.238281 341.804688 C 1074.53125 341.6875 1074.664062 341.355469 1074.546875 341.066406 C 1074.425781 340.78125 1074.101562 340.640625 1073.808594 340.761719 "
          fill-opacity="1" fill-rule="nonzero"/>
    <path fill="rgb(100%, 100%, 100%)"
          d="M 1072.613281 337.878906 L 1067.765625 339.882812 C 1067.480469 340 1067.339844 340.332031 1067.464844 340.625 C 1067.582031 340.914062 1067.914062 341.046875 1068.203125 340.933594 L 1073.050781 338.929688 C 1073.335938 338.8125 1073.476562 338.480469 1073.355469 338.1875 C 1073.238281 337.898438 1072.90625 337.761719 1072.613281 337.878906 "
          fill-opacity="1" fill-rule="nonzero"/>
    <path fill="rgb(100%, 100%, 100%)"
          d="M 1071.421875 335 L 1062.792969 338.566406 C 1062.5 338.6875 1062.367188 339.019531 1062.484375 339.308594 C 1062.605469 339.597656 1062.929688 339.738281 1063.222656 339.617188 L 1071.855469 336.050781 C 1072.140625 335.929688 1072.28125 335.597656 1072.160156 335.308594 C 1072.042969 335.019531 1071.710938 334.878906 1071.421875 335 "
          fill-opacity="1" fill-rule="nonzero"/>
    <path fill="rgb(100%, 100%, 100%)"
          d="M 1070.183594 331.988281 L 1065.335938 333.988281 C 1065.046875 334.109375 1064.910156 334.441406 1065.027344 334.734375 C 1065.152344 335.019531 1065.476562 335.160156 1065.769531 335.035156 L 1070.617188 333.039062 C 1070.90625 332.921875 1071.042969 332.589844 1070.925781 332.296875 C 1070.800781 332.007812 1070.476562 331.875 1070.183594 331.988281 "
          fill-opacity="1" fill-rule="nonzero"/>
    <path fill="rgb(100%, 100%, 100%)"
          d="M 1068.992188 329.113281 L 1064.144531 331.117188 C 1063.859375 331.230469 1063.71875 331.566406 1063.839844 331.855469 C 1063.957031 332.140625 1064.289062 332.28125 1064.578125 332.160156 L 1069.421875 330.15625 C 1069.710938 330.039062 1069.847656 329.707031 1069.730469 329.414062 C 1069.609375 329.128906 1069.277344 328.988281 1068.992188 329.113281 "
          fill-opacity="1" fill-rule="nonzero"/>
    <path fill="rgb(100%, 100%, 100%)"
          d="M 1067.796875 326.226562 L 1062.953125 328.230469 C 1062.667969 328.355469 1062.527344 328.679688 1062.652344 328.972656 C 1062.769531 329.261719 1063.101562 329.398438 1063.390625 329.273438 L 1068.226562 327.277344 C 1068.519531 327.15625 1068.652344 326.824219 1068.535156 326.53125 C 1068.414062 326.246094 1068.082031 326.105469 1067.796875 326.226562 "
          fill-opacity="1" fill-rule="nonzero"/>
    <path fill="rgb(100%, 100%, 100%)"
          d="M 1066.609375 323.351562 L 1061.765625 325.347656 C 1061.472656 325.472656 1061.339844 325.804688 1061.457031 326.089844 C 1061.578125 326.378906 1061.90625 326.519531 1062.195312 326.398438 L 1067.042969 324.398438 C 1067.328125 324.277344 1067.46875 323.945312 1067.347656 323.660156 C 1067.230469 323.367188 1066.898438 323.226562 1066.609375 323.351562 "
          fill-opacity="1" fill-rule="nonzero"/>
    <path fill="rgb(100%, 100%, 100%)"
          d="M 1065.417969 320.472656 L 1056.785156 324.039062 C 1056.492188 324.15625 1056.359375 324.488281 1056.476562 324.777344 C 1056.59375 325.070312 1056.929688 325.203125 1057.214844 325.085938 L 1065.851562 321.519531 C 1066.140625 321.398438 1066.273438 321.066406 1066.160156 320.78125 C 1066.035156 320.488281 1065.710938 320.351562 1065.417969 320.472656 "
          fill-opacity="1" fill-rule="nonzero"/>
    <path fill="rgb(100%, 100%, 100%)"
          d="M 1064.171875 317.460938 L 1059.332031 319.460938 C 1059.046875 319.574219 1058.90625 319.90625 1059.023438 320.199219 C 1059.144531 320.488281 1059.476562 320.625 1059.765625 320.507812 L 1064.601562 318.503906 C 1064.894531 318.386719 1065.027344 318.054688 1064.910156 317.765625 C 1064.789062 317.476562 1064.457031 317.339844 1064.171875 317.460938 "
          fill-opacity="1" fill-rule="nonzero"/>
    <path fill="rgb(100%, 100%, 100%)"
          d="M 1062.984375 314.582031 L 1058.136719 316.582031 C 1057.851562 316.699219 1057.710938 317.03125 1057.832031 317.320312 C 1057.949219 317.613281 1058.28125 317.746094 1058.574219 317.628906 L 1063.414062 315.632812 C 1063.707031 315.507812 1063.839844 315.183594 1063.722656 314.890625 C 1063.601562 314.601562 1063.273438 314.464844 1062.984375 314.582031 "
          fill-opacity="1" fill-rule="nonzero"/>
    <path fill="rgb(100%, 100%, 100%)"
          d="M 1061.789062 311.699219 L 1056.941406 313.703125 C 1056.65625 313.820312 1056.515625 314.152344 1056.640625 314.441406 C 1056.753906 314.730469 1057.085938 314.867188 1057.378906 314.75 L 1062.226562 312.746094 C 1062.511719 312.625 1062.652344 312.292969 1062.527344 312.007812 C 1062.414062 311.71875 1062.082031 311.578125 1061.789062 311.699219 "
          fill-opacity="1" fill-rule="nonzero"/>
    <path fill="rgb(100%, 100%, 100%)"
          d="M 1060.59375 308.816406 L 1055.757812 310.820312 C 1055.46875 310.941406 1055.332031 311.273438 1055.449219 311.558594 C 1055.574219 311.851562 1055.90625 311.984375 1056.191406 311.867188 L 1061.03125 309.863281 C 1061.316406 309.742188 1061.457031 309.410156 1061.335938 309.125 C 1061.21875 308.832031 1060.886719 308.695312 1060.59375 308.816406 "
          fill-opacity="1" fill-rule="nonzero"/>
    <path fill="rgb(100%, 100%, 100%)"
          d="M 1059.410156 305.9375 L 1050.773438 309.507812 C 1050.480469 309.625 1050.347656 309.957031 1050.464844 310.25 C 1050.585938 310.535156 1050.910156 310.675781 1051.203125 310.550781 L 1059.84375 306.988281 C 1060.132812 306.863281 1060.269531 306.53125 1060.152344 306.246094 C 1060.03125 305.957031 1059.699219 305.816406 1059.410156 305.9375 "
          fill-opacity="1" fill-rule="nonzero"/>
    <path fill="rgb(100%, 100%, 100%)"
          d="M 1058.164062 302.925781 L 1053.316406 304.929688 C 1053.03125 305.050781 1052.890625 305.378906 1053.015625 305.667969 C 1053.132812 305.960938 1053.464844 306.09375 1053.753906 305.980469 L 1058.597656 303.976562 C 1058.886719 303.851562 1059.023438 303.519531 1058.90625 303.230469 C 1058.78125 302.945312 1058.449219 302.804688 1058.164062 302.925781 "
          fill-opacity="1" fill-rule="nonzero"/>
    <path fill="rgb(100%, 100%, 100%)"
          d="M 1056.972656 300.046875 L 1052.128906 302.046875 C 1051.84375 302.167969 1051.703125 302.5 1051.828125 302.785156 C 1051.941406 303.078125 1052.273438 303.21875 1052.566406 303.09375 L 1057.40625 301.097656 C 1057.691406 300.972656 1057.832031 300.640625 1057.710938 300.355469 C 1057.59375 300.066406 1057.261719 299.925781 1056.972656 300.046875 "
          fill-opacity="1" fill-rule="nonzero"/>
    <path fill="rgb(100%, 100%, 100%)"
          d="M 1055.78125 297.171875 L 1050.941406 299.175781 C 1050.648438 299.289062 1050.507812 299.621094 1050.632812 299.914062 C 1050.753906 300.199219 1051.085938 300.339844 1051.371094 300.21875 L 1056.21875 298.21875 C 1056.503906 298.097656 1056.644531 297.765625 1056.523438 297.480469 C 1056.40625 297.1875 1056.074219 297.046875 1055.78125 297.171875 "
          fill-opacity="1" fill-rule="nonzero"/>
    <path fill="rgb(100%, 100%, 100%)"
          d="M 1054.59375 294.285156 L 1049.746094 296.289062 C 1049.453125 296.40625 1049.316406 296.738281 1049.4375 297.03125 C 1049.558594 297.316406 1049.886719 297.457031 1050.175781 297.339844 L 1055.023438 295.335938 C 1055.316406 295.21875 1055.449219 294.886719 1055.332031 294.59375 C 1055.210938 294.308594 1054.886719 294.171875 1054.59375 294.285156 "
          fill-opacity="1" fill-rule="nonzero"/>
    <path fill="rgb(83.139038%, 63.919067%, 2.749634%)"
          d="M 919.132812 311.035156 L 1024.523438 507.246094 L 1052.863281 492.027344 L 947.472656 295.820312 L 919.132812 311.035156 "
          fill-opacity="1" fill-rule="nonzero"/>
    <path fill="rgb(98.039246%, 75.689697%, 3.529358%)"
          d="M 921.917969 309.539062 L 1027.316406 505.75 L 1055.652344 490.53125 L 950.257812 294.316406 L 921.917969 309.539062 "
          fill-opacity="1" fill-rule="nonzero"/>
    <path fill="rgb(74.508667%, 57.249451%, 2.349854%)"
          d="M 947.472656 295.820312 L 1052.863281 492.027344 L 1055.652344 490.53125 L 950.257812 294.316406 L 947.472656 295.820312 "
          fill-opacity="1" fill-rule="nonzero"/>
    <path fill="rgb(100%, 100%, 100%)"
          d="M 1050.738281 489.191406 L 1043.085938 493.304688 C 1042.832031 493.445312 1042.730469 493.765625 1042.871094 494.023438 C 1043.011719 494.277344 1043.324219 494.371094 1043.582031 494.238281 L 1051.238281 490.117188 C 1051.496094 489.984375 1051.585938 489.664062 1051.453125 489.40625 C 1051.3125 489.152344 1050.992188 489.050781 1050.738281 489.191406 "
          fill-opacity="1" fill-rule="nonzero"/>
    <path fill="rgb(100%, 100%, 100%)"
          d="M 1048.996094 485.941406 L 1044.699219 488.25 C 1044.445312 488.386719 1044.34375 488.707031 1044.484375 488.964844 C 1044.621094 489.222656 1044.941406 489.316406 1045.195312 489.179688 L 1049.496094 486.875 C 1049.753906 486.734375 1049.84375 486.414062 1049.710938 486.15625 C 1049.570312 485.902344 1049.25 485.800781 1048.996094 485.941406 "
          fill-opacity="1" fill-rule="nonzero"/>
    <path fill="rgb(100%, 100%, 100%)"
          d="M 1047.621094 483.390625 L 1043.324219 485.691406 C 1043.070312 485.832031 1042.976562 486.152344 1043.109375 486.40625 C 1043.25 486.664062 1043.570312 486.761719 1043.828125 486.625 L 1048.121094 484.316406 C 1048.378906 484.175781 1048.46875 483.855469 1048.335938 483.601562 C 1048.195312 483.34375 1047.875 483.25 1047.621094 483.390625 "
          fill-opacity="1" fill-rule="nonzero"/>
    <path fill="rgb(100%, 100%, 100%)"
          d="M 1046.25 480.832031 L 1041.949219 483.140625 C 1041.695312 483.277344 1041.601562 483.601562 1041.734375 483.855469 C 1041.875 484.113281 1042.195312 484.207031 1042.453125 484.070312 L 1046.746094 481.757812 C 1047.003906 481.625 1047.101562 481.304688 1046.960938 481.046875 C 1046.828125 480.792969 1046.507812 480.691406 1046.25 480.832031 "
          fill-opacity="1" fill-rule="nonzero"/>
    <path fill="rgb(100%, 100%, 100%)"
          d="M 1044.882812 478.273438 L 1040.585938 480.582031 C 1040.332031 480.722656 1040.230469 481.042969 1040.371094 481.296875 C 1040.507812 481.554688 1040.828125 481.648438 1041.082031 481.507812 L 1045.375 479.207031 C 1045.632812 479.066406 1045.730469 478.746094 1045.59375 478.492188 C 1045.457031 478.234375 1045.136719 478.140625 1044.882812 478.273438 "
          fill-opacity="1" fill-rule="nonzero"/>
    <path fill="rgb(100%, 100%, 100%)"
          d="M 1043.507812 475.71875 L 1035.84375 479.835938 C 1035.589844 479.976562 1035.496094 480.296875 1035.628906 480.554688 C 1035.769531 480.808594 1036.089844 480.902344 1036.347656 480.761719 L 1044.007812 476.648438 C 1044.265625 476.511719 1044.355469 476.195312 1044.222656 475.9375 C 1044.082031 475.683594 1043.761719 475.582031 1043.507812 475.71875 "
          fill-opacity="1" fill-rule="nonzero"/>
    <path fill="rgb(100%, 100%, 100%)"
          d="M 1042.074219 473.050781 L 1037.777344 475.355469 C 1037.515625 475.496094 1037.425781 475.816406 1037.5625 476.074219 C 1037.699219 476.328125 1038.019531 476.429688 1038.273438 476.289062 L 1042.570312 473.976562 C 1042.824219 473.84375 1042.921875 473.519531 1042.785156 473.265625 C 1042.648438 473.007812 1042.328125 472.910156 1042.074219 473.050781 "
          fill-opacity="1" fill-rule="nonzero"/>
    <path fill="rgb(100%, 100%, 100%)"
          d="M 1040.699219 470.496094 L 1036.402344 472.804688 C 1036.148438 472.945312 1036.050781 473.265625 1036.1875 473.519531 C 1036.324219 473.777344 1036.644531 473.871094 1036.898438 473.730469 L 1041.199219 471.425781 C 1041.457031 471.289062 1041.546875 470.96875 1041.414062 470.714844 C 1041.273438 470.457031 1040.953125 470.359375 1040.699219 470.496094 "
          fill-opacity="1" fill-rule="nonzero"/>
    <path fill="rgb(100%, 100%, 100%)"
          d="M 1039.324219 467.941406 L 1035.027344 470.246094 C 1034.773438 470.386719 1034.675781 470.707031 1034.8125 470.964844 C 1034.949219 471.21875 1035.269531 471.3125 1035.523438 471.179688 L 1039.824219 468.871094 C 1040.082031 468.734375 1040.175781 468.414062 1040.039062 468.15625 C 1039.898438 467.898438 1039.578125 467.800781 1039.324219 467.941406 "
          fill-opacity="1" fill-rule="nonzero"/>
    <path fill="rgb(100%, 100%, 100%)"
          d="M 1037.960938 465.390625 L 1033.660156 467.695312 C 1033.402344 467.835938 1033.308594 468.148438 1033.445312 468.414062 C 1033.585938 468.667969 1033.90625 468.761719 1034.160156 468.621094 L 1038.457031 466.316406 C 1038.710938 466.175781 1038.808594 465.855469 1038.671875 465.597656 C 1038.535156 465.34375 1038.214844 465.25 1037.960938 465.390625 "
          fill-opacity="1" fill-rule="nonzero"/>
    <path fill="rgb(100%, 100%, 100%)"
          d="M 1036.585938 462.832031 L 1028.921875 466.945312 C 1028.667969 467.085938 1028.566406 467.398438 1028.707031 467.65625 C 1028.84375 467.917969 1029.164062 468.011719 1029.417969 467.871094 L 1037.082031 463.761719 C 1037.335938 463.625 1037.433594 463.304688 1037.296875 463.046875 C 1037.160156 462.789062 1036.839844 462.699219 1036.585938 462.832031 "
          fill-opacity="1" fill-rule="nonzero"/>
    <path fill="rgb(100%, 100%, 100%)"
          d="M 1035.152344 460.164062 L 1030.851562 462.464844 C 1030.59375 462.605469 1030.496094 462.925781 1030.636719 463.179688 C 1030.777344 463.4375 1031.097656 463.535156 1031.351562 463.398438 L 1035.648438 461.09375 C 1035.902344 460.957031 1036.003906 460.636719 1035.863281 460.378906 C 1035.726562 460.121094 1035.40625 460.023438 1035.152344 460.164062 "
          fill-opacity="1" fill-rule="nonzero"/>
    <path fill="rgb(100%, 100%, 100%)"
          d="M 1033.777344 457.605469 L 1029.476562 459.914062 C 1029.21875 460.054688 1029.121094 460.375 1029.261719 460.628906 C 1029.402344 460.886719 1029.722656 460.980469 1029.976562 460.84375 L 1034.273438 458.539062 C 1034.527344 458.398438 1034.628906 458.078125 1034.488281 457.820312 C 1034.347656 457.566406 1034.03125 457.464844 1033.777344 457.605469 "
          fill-opacity="1" fill-rule="nonzero"/>
    <path fill="rgb(100%, 100%, 100%)"
          d="M 1032.402344 455.054688 L 1028.101562 457.363281 C 1027.84375 457.496094 1027.753906 457.816406 1027.886719 458.070312 C 1028.027344 458.328125 1028.347656 458.425781 1028.601562 458.289062 L 1032.898438 455.980469 C 1033.152344 455.839844 1033.253906 455.519531 1033.113281 455.265625 C 1032.972656 455.007812 1032.65625 454.914062 1032.402344 455.054688 "
          fill-opacity="1" fill-rule="nonzero"/>
    <path fill="rgb(100%, 100%, 100%)"
          d="M 1031.03125 452.496094 L 1026.738281 454.804688 C 1026.480469 454.945312 1026.382812 455.265625 1026.523438 455.519531 C 1026.65625 455.777344 1026.976562 455.871094 1027.234375 455.734375 L 1031.535156 453.421875 C 1031.789062 453.289062 1031.882812 452.96875 1031.75 452.710938 C 1031.609375 452.457031 1031.289062 452.355469 1031.03125 452.496094 "
          fill-opacity="1" fill-rule="nonzero"/>
    <path fill="rgb(100%, 100%, 100%)"
          d="M 1029.65625 449.941406 L 1021.996094 454.058594 C 1021.738281 454.191406 1021.644531 454.511719 1021.78125 454.769531 C 1021.921875 455.023438 1022.242188 455.125 1022.496094 454.984375 L 1030.160156 450.871094 C 1030.414062 450.730469 1030.507812 450.410156 1030.375 450.15625 C 1030.234375 449.898438 1029.914062 449.804688 1029.65625 449.941406 "
          fill-opacity="1" fill-rule="nonzero"/>
    <path fill="rgb(100%, 100%, 100%)"
          d="M 1028.222656 447.273438 L 1023.929688 449.578125 C 1023.675781 449.71875 1023.574219 450.039062 1023.714844 450.296875 C 1023.847656 450.550781 1024.167969 450.644531 1024.425781 450.511719 L 1028.726562 448.199219 C 1028.980469 448.0625 1029.074219 447.742188 1028.941406 447.488281 C 1028.800781 447.230469 1028.480469 447.132812 1028.222656 447.273438 "
          fill-opacity="1" fill-rule="nonzero"/>
    <path fill="rgb(100%, 100%, 100%)"
          d="M 1026.847656 444.714844 L 1022.554688 447.019531 C 1022.300781 447.160156 1022.199219 447.480469 1022.339844 447.738281 C 1022.472656 447.992188 1022.792969 448.09375 1023.050781 447.953125 L 1027.351562 445.644531 C 1027.605469 445.507812 1027.699219 445.191406 1027.566406 444.929688 C 1027.425781 444.671875 1027.105469 444.582031 1026.847656 444.714844 "
          fill-opacity="1" fill-rule="nonzero"/>
    <path fill="rgb(100%, 100%, 100%)"
          d="M 1025.472656 442.164062 L 1021.179688 444.46875 C 1020.925781 444.609375 1020.832031 444.929688 1020.964844 445.1875 C 1021.105469 445.441406 1021.425781 445.535156 1021.679688 445.394531 L 1025.976562 443.089844 C 1026.230469 442.953125 1026.324219 442.632812 1026.191406 442.378906 C 1026.050781 442.117188 1025.730469 442.023438 1025.472656 442.164062 "
          fill-opacity="1" fill-rule="nonzero"/>
    <path fill="rgb(100%, 100%, 100%)"
          d="M 1024.109375 439.605469 L 1019.8125 441.910156 C 1019.554688 442.050781 1019.460938 442.371094 1019.59375 442.628906 C 1019.734375 442.886719 1020.054688 442.976562 1020.3125 442.84375 L 1024.605469 440.539062 C 1024.863281 440.398438 1024.960938 440.082031 1024.820312 439.820312 C 1024.6875 439.5625 1024.367188 439.472656 1024.109375 439.605469 "
          fill-opacity="1" fill-rule="nonzero"/>
    <path fill="rgb(100%, 100%, 100%)"
          d="M 1022.734375 437.054688 L 1015.074219 441.167969 C 1014.816406 441.304688 1014.726562 441.621094 1014.859375 441.882812 C 1015 442.140625 1015.320312 442.234375 1015.574219 442.09375 L 1023.230469 437.980469 C 1023.488281 437.839844 1023.585938 437.519531 1023.445312 437.261719 C 1023.3125 437.007812 1022.992188 436.914062 1022.734375 437.054688 "
          fill-opacity="1" fill-rule="nonzero"/>
    <path fill="rgb(100%, 100%, 100%)"
          d="M 1021.300781 434.378906 L 1017.003906 436.691406 C 1016.746094 436.828125 1016.652344 437.148438 1016.789062 437.402344 C 1016.925781 437.660156 1017.246094 437.757812 1017.503906 437.617188 L 1021.796875 435.3125 C 1022.054688 435.171875 1022.152344 434.851562 1022.011719 434.59375 C 1021.878906 434.339844 1021.558594 434.238281 1021.300781 434.378906 "
          fill-opacity="1" fill-rule="nonzero"/>
    <path fill="rgb(100%, 100%, 100%)"
          d="M 1019.925781 431.828125 L 1015.632812 434.128906 C 1015.378906 434.269531 1015.277344 434.589844 1015.417969 434.84375 C 1015.550781 435.101562 1015.871094 435.199219 1016.128906 435.0625 L 1020.421875 432.761719 C 1020.679688 432.621094 1020.777344 432.300781 1020.636719 432.042969 C 1020.503906 431.789062 1020.183594 431.6875 1019.925781 431.828125 "
          fill-opacity="1" fill-rule="nonzero"/>
    <path fill="rgb(100%, 100%, 100%)"
          d="M 1018.550781 429.269531 L 1014.257812 431.578125 C 1014.003906 431.71875 1013.902344 432.039062 1014.042969 432.292969 C 1014.175781 432.550781 1014.496094 432.644531 1014.753906 432.507812 L 1019.054688 430.203125 C 1019.308594 430.0625 1019.402344 429.742188 1019.269531 429.484375 C 1019.128906 429.230469 1018.808594 429.128906 1018.550781 429.269531 "
          fill-opacity="1" fill-rule="nonzero"/>
    <path fill="rgb(100%, 100%, 100%)"
          d="M 1017.183594 426.71875 L 1012.890625 429.03125 C 1012.632812 429.164062 1012.535156 429.484375 1012.675781 429.742188 C 1012.8125 430 1013.132812 430.097656 1013.390625 429.957031 L 1017.683594 427.644531 C 1017.941406 427.503906 1018.035156 427.183594 1017.898438 426.929688 C 1017.761719 426.671875 1017.441406 426.578125 1017.183594 426.71875 "
          fill-opacity="1" fill-rule="nonzero"/>
    <path fill="rgb(100%, 100%, 100%)"
          d="M 1015.8125 424.160156 L 1008.152344 428.273438 C 1007.898438 428.414062 1007.796875 428.730469 1007.9375 428.992188 C 1008.070312 429.246094 1008.390625 429.339844 1008.648438 429.207031 L 1016.308594 425.09375 C 1016.566406 424.953125 1016.664062 424.640625 1016.523438 424.378906 C 1016.386719 424.121094 1016.070312 424.027344 1015.8125 424.160156 "
          fill-opacity="1" fill-rule="nonzero"/>
    <path fill="rgb(100%, 100%, 100%)"
          d="M 1014.375 421.488281 L 1010.082031 423.800781 C 1009.824219 423.933594 1009.726562 424.253906 1009.867188 424.511719 C 1010 424.765625 1010.320312 424.867188 1010.578125 424.726562 L 1014.875 422.417969 C 1015.132812 422.28125 1015.226562 421.960938 1015.09375 421.703125 C 1014.953125 421.445312 1014.632812 421.355469 1014.375 421.488281 "
          fill-opacity="1" fill-rule="nonzero"/>
    <path fill="rgb(100%, 100%, 100%)"
          d="M 1013.007812 418.9375 L 1008.707031 421.25 C 1008.449219 421.382812 1008.355469 421.703125 1008.492188 421.960938 C 1008.628906 422.214844 1008.949219 422.316406 1009.207031 422.175781 L 1013.5 419.863281 C 1013.757812 419.726562 1013.855469 419.40625 1013.71875 419.152344 C 1013.578125 418.894531 1013.261719 418.796875 1013.007812 418.9375 "
          fill-opacity="1" fill-rule="nonzero"/>
    <path fill="rgb(100%, 100%, 100%)"
          d="M 1011.632812 416.382812 L 1007.332031 418.6875 C 1007.074219 418.824219 1006.980469 419.144531 1007.117188 419.402344 C 1007.253906 419.660156 1007.574219 419.757812 1007.832031 419.617188 L 1012.125 417.3125 C 1012.382812 417.175781 1012.480469 416.855469 1012.34375 416.601562 C 1012.207031 416.34375 1011.886719 416.246094 1011.632812 416.382812 "
          fill-opacity="1" fill-rule="nonzero"/>
    <path fill="rgb(100%, 100%, 100%)"
          d="M 1010.261719 413.828125 L 1005.96875 416.132812 C 1005.710938 416.273438 1005.613281 416.59375 1005.753906 416.851562 C 1005.886719 417.105469 1006.207031 417.199219 1006.464844 417.058594 L 1010.761719 414.753906 C 1011.019531 414.621094 1011.113281 414.300781 1010.980469 414.042969 C 1010.839844 413.785156 1010.519531 413.6875 1010.261719 413.828125 "
          fill-opacity="1" fill-rule="nonzero"/>
    <path fill="rgb(100%, 100%, 100%)"
          d="M 1008.886719 411.269531 L 1001.226562 415.382812 C 1000.96875 415.523438 1000.875 415.84375 1001.011719 416.097656 C 1001.148438 416.355469 1001.46875 416.449219 1001.726562 416.316406 L 1009.386719 412.203125 C 1009.644531 412.0625 1009.738281 411.746094 1009.605469 411.484375 C 1009.464844 411.230469 1009.144531 411.136719 1008.886719 411.269531 "
          fill-opacity="1" fill-rule="nonzero"/>
    <path fill="rgb(100%, 100%, 100%)"
          d="M 1007.453125 408.601562 L 1003.160156 410.910156 C 1002.902344 411.042969 1002.804688 411.363281 1002.945312 411.621094 C 1003.078125 411.875 1003.398438 411.972656 1003.65625 411.835938 L 1007.953125 409.535156 C 1008.210938 409.394531 1008.304688 409.074219 1008.171875 408.816406 C 1008.03125 408.5625 1007.710938 408.460938 1007.453125 408.601562 "
          fill-opacity="1" fill-rule="nonzero"/>
    <path fill="rgb(100%, 100%, 100%)"
          d="M 1006.078125 406.050781 L 1001.785156 408.351562 C 1001.527344 408.492188 1001.429688 408.8125 1001.570312 409.066406 C 1001.703125 409.324219 1002.023438 409.421875 1002.28125 409.28125 L 1006.578125 406.976562 C 1006.835938 406.84375 1006.929688 406.523438 1006.796875 406.265625 C 1006.65625 406.007812 1006.335938 405.910156 1006.078125 406.050781 "
          fill-opacity="1" fill-rule="nonzero"/>
    <path fill="rgb(100%, 100%, 100%)"
          d="M 1004.703125 403.492188 L 1000.410156 405.800781 C 1000.152344 405.9375 1000.054688 406.257812 1000.195312 406.515625 C 1000.328125 406.773438 1000.648438 406.867188 1000.90625 406.730469 L 1005.203125 404.425781 C 1005.460938 404.285156 1005.554688 403.964844 1005.421875 403.707031 C 1005.28125 403.453125 1004.960938 403.351562 1004.703125 403.492188 "
          fill-opacity="1" fill-rule="nonzero"/>
    <path fill="rgb(100%, 100%, 100%)"
          d="M 1003.339844 400.941406 L 999.039062 403.242188 C 998.785156 403.382812 998.691406 403.703125 998.824219 403.957031 C 998.964844 404.214844 999.285156 404.308594 999.542969 404.175781 L 1003.835938 401.867188 C 1004.09375 401.726562 1004.191406 401.40625 1004.050781 401.152344 C 1003.917969 400.894531 1003.597656 400.800781 1003.339844 400.941406 "
          fill-opacity="1" fill-rule="nonzero"/>
    <path fill="rgb(100%, 100%, 100%)"
          d="M 1001.964844 398.382812 L 994.304688 402.496094 C 994.046875 402.636719 993.949219 402.957031 994.089844 403.214844 C 994.222656 403.46875 994.542969 403.5625 994.800781 403.429688 L 1002.460938 399.308594 C 1002.71875 399.171875 1002.816406 398.847656 1002.675781 398.59375 C 1002.542969 398.335938 1002.222656 398.242188 1001.964844 398.382812 "
          fill-opacity="1" fill-rule="nonzero"/>
    <path fill="rgb(100%, 100%, 100%)"
          d="M 1000.53125 395.714844 L 996.230469 398.023438 C 995.976562 398.15625 995.878906 398.476562 996.015625 398.734375 C 996.15625 398.988281 996.476562 399.089844 996.734375 398.949219 L 1001.027344 396.640625 C 1001.285156 396.507812 1001.382812 396.1875 1001.242188 395.929688 C 1001.101562 395.675781 1000.789062 395.574219 1000.53125 395.714844 "
          fill-opacity="1" fill-rule="nonzero"/>
    <path fill="rgb(100%, 100%, 100%)"
          d="M 999.15625 393.15625 L 994.855469 395.464844 C 994.601562 395.605469 994.503906 395.925781 994.640625 396.179688 C 994.78125 396.4375 995.101562 396.53125 995.359375 396.398438 L 999.652344 394.085938 C 999.910156 393.949219 1000.007812 393.628906 999.867188 393.375 C 999.726562 393.117188 999.414062 393.019531 999.15625 393.15625 "
          fill-opacity="1" fill-rule="nonzero"/>
    <path fill="rgb(100%, 100%, 100%)"
          d="M 997.78125 390.601562 L 993.488281 392.914062 C 993.230469 393.046875 993.132812 393.367188 993.273438 393.625 C 993.414062 393.878906 993.726562 393.980469 993.984375 393.839844 L 998.277344 391.527344 C 998.535156 391.394531 998.632812 391.074219 998.492188 390.816406 C 998.351562 390.558594 998.039062 390.460938 997.78125 390.601562 "
          fill-opacity="1" fill-rule="nonzero"/>
    <path fill="rgb(100%, 100%, 100%)"
          d="M 996.414062 388.050781 L 992.117188 390.355469 C 991.863281 390.496094 991.761719 390.816406 991.902344 391.074219 C 992.039062 391.328125 992.359375 391.421875 992.613281 391.28125 L 996.914062 388.976562 C 997.171875 388.839844 997.261719 388.519531 997.128906 388.265625 C 996.988281 388.007812 996.667969 387.910156 996.414062 388.050781 "
          fill-opacity="1" fill-rule="nonzero"/>
    <path fill="rgb(100%, 100%, 100%)"
          d="M 995.039062 385.492188 L 987.382812 389.605469 C 987.125 389.746094 987.027344 390.066406 987.167969 390.320312 C 987.300781 390.578125 987.621094 390.671875 987.878906 390.535156 L 995.539062 386.421875 C 995.796875 386.285156 995.886719 385.96875 995.753906 385.714844 C 995.613281 385.457031 995.292969 385.359375 995.039062 385.492188 "
          fill-opacity="1" fill-rule="nonzero"/>
    <path fill="rgb(100%, 100%, 100%)"
          d="M 993.605469 382.816406 L 989.3125 385.128906 C 989.054688 385.269531 988.957031 385.589844 989.09375 385.847656 C 989.230469 386.101562 989.550781 386.195312 989.804688 386.0625 L 994.105469 383.75 C 994.363281 383.609375 994.457031 383.289062 994.320312 383.035156 C 994.179688 382.777344 993.859375 382.683594 993.605469 382.816406 "
          fill-opacity="1" fill-rule="nonzero"/>
    <path fill="rgb(100%, 100%, 100%)"
          d="M 992.230469 380.265625 L 987.9375 382.574219 C 987.679688 382.710938 987.585938 383.035156 987.71875 383.289062 C 987.859375 383.546875 988.179688 383.644531 988.4375 383.503906 L 992.730469 381.191406 C 992.988281 381.058594 993.082031 380.738281 992.945312 380.480469 C 992.804688 380.226562 992.484375 380.125 992.230469 380.265625 "
          fill-opacity="1" fill-rule="nonzero"/>
    <path fill="rgb(100%, 100%, 100%)"
          d="M 990.859375 377.714844 L 986.5625 380.015625 C 986.304688 380.15625 986.210938 380.476562 986.34375 380.730469 C 986.484375 380.988281 986.804688 381.085938 987.0625 380.949219 L 991.355469 378.640625 C 991.613281 378.507812 991.710938 378.1875 991.570312 377.929688 C 991.4375 377.671875 991.117188 377.574219 990.859375 377.714844 "
          fill-opacity="1" fill-rule="nonzero"/>
    <path fill="rgb(100%, 100%, 100%)"
          d="M 989.492188 375.15625 L 985.191406 377.464844 C 984.933594 377.605469 984.84375 377.925781 984.976562 378.179688 C 985.117188 378.4375 985.4375 378.53125 985.691406 378.394531 L 989.988281 376.089844 C 990.242188 375.949219 990.34375 375.628906 990.203125 375.371094 C 990.066406 375.117188 989.746094 375.015625 989.492188 375.15625 "
          fill-opacity="1" fill-rule="nonzero"/>
    <path fill="rgb(100%, 100%, 100%)"
          d="M 988.117188 372.605469 L 980.453125 376.71875 C 980.199219 376.851562 980.105469 377.171875 980.238281 377.429688 C 980.378906 377.683594 980.699219 377.785156 980.957031 377.644531 L 988.617188 373.53125 C 988.875 373.390625 988.96875 373.070312 988.832031 372.816406 C 988.691406 372.558594 988.371094 372.464844 988.117188 372.605469 "
          fill-opacity="1" fill-rule="nonzero"/>
    <path fill="rgb(100%, 100%, 100%)"
          d="M 986.683594 369.929688 L 982.382812 372.238281 C 982.128906 372.378906 982.035156 372.691406 982.167969 372.949219 C 982.308594 373.207031 982.628906 373.304688 982.882812 373.171875 L 987.179688 370.863281 C 987.433594 370.722656 987.535156 370.402344 987.394531 370.148438 C 987.261719 369.890625 986.941406 369.792969 986.683594 369.929688 "
          fill-opacity="1" fill-rule="nonzero"/>
    <path fill="rgb(100%, 100%, 100%)"
          d="M 985.308594 367.375 L 981.015625 369.6875 C 980.757812 369.820312 980.660156 370.140625 980.796875 370.398438 C 980.933594 370.652344 981.253906 370.753906 981.507812 370.613281 L 985.808594 368.304688 C 986.066406 368.167969 986.160156 367.847656 986.023438 367.589844 C 985.886719 367.332031 985.566406 367.238281 985.308594 367.375 "
          fill-opacity="1" fill-rule="nonzero"/>
    <path fill="rgb(100%, 100%, 100%)"
          d="M 983.933594 364.828125 L 979.640625 367.128906 C 979.382812 367.269531 979.285156 367.589844 979.421875 367.847656 C 979.558594 368.101562 979.878906 368.195312 980.132812 368.0625 L 984.433594 365.753906 C 984.691406 365.613281 984.785156 365.292969 984.648438 365.039062 C 984.511719 364.78125 984.191406 364.6875 983.933594 364.828125 "
          fill-opacity="1" fill-rule="nonzero"/>
    <path fill="rgb(100%, 100%, 100%)"
          d="M 982.570312 362.265625 L 978.269531 364.578125 C 978.015625 364.710938 977.914062 365.03125 978.054688 365.289062 C 978.195312 365.542969 978.515625 365.644531 978.769531 365.503906 L 983.066406 363.195312 C 983.320312 363.058594 983.421875 362.738281 983.28125 362.480469 C 983.140625 362.222656 982.828125 362.132812 982.570312 362.265625 "
          fill-opacity="1" fill-rule="nonzero"/>
    <path fill="rgb(100%, 100%, 100%)"
          d="M 981.195312 359.714844 L 973.535156 363.828125 C 973.277344 363.964844 973.179688 364.285156 973.316406 364.542969 C 973.453125 364.800781 973.773438 364.890625 974.027344 364.753906 L 981.691406 360.640625 C 981.945312 360.503906 982.046875 360.183594 981.90625 359.929688 C 981.765625 359.671875 981.453125 359.574219 981.195312 359.714844 "
          fill-opacity="1" fill-rule="nonzero"/>
    <path fill="rgb(100%, 100%, 100%)"
          d="M 979.753906 357.039062 L 975.460938 359.347656 C 975.207031 359.488281 975.113281 359.808594 975.246094 360.0625 C 975.386719 360.320312 975.707031 360.417969 975.964844 360.277344 L 980.257812 357.972656 C 980.511719 357.832031 980.605469 357.511719 980.472656 357.253906 C 980.332031 357 980.011719 356.90625 979.753906 357.039062 "
          fill-opacity="1" fill-rule="nonzero"/>
    <path fill="rgb(100%, 100%, 100%)"
          d="M 978.386719 354.488281 L 974.085938 356.796875 C 973.832031 356.929688 973.738281 357.25 973.871094 357.503906 C 974.011719 357.761719 974.332031 357.859375 974.589844 357.722656 L 978.882812 355.414062 C 979.136719 355.28125 979.238281 354.960938 979.097656 354.703125 C 978.964844 354.445312 978.644531 354.347656 978.386719 354.488281 "
          fill-opacity="1" fill-rule="nonzero"/>
    <path fill="rgb(100%, 100%, 100%)"
          d="M 977.011719 351.929688 L 972.710938 354.238281 C 972.457031 354.378906 972.363281 354.699219 972.496094 354.953125 C 972.636719 355.210938 972.957031 355.308594 973.214844 355.167969 L 977.507812 352.855469 C 977.761719 352.722656 977.863281 352.402344 977.722656 352.144531 C 977.582031 351.890625 977.269531 351.789062 977.011719 351.929688 "
          fill-opacity="1" fill-rule="nonzero"/>
    <path fill="rgb(100%, 100%, 100%)"
          d="M 975.640625 349.378906 L 971.347656 351.6875 C 971.09375 351.824219 970.992188 352.140625 971.132812 352.402344 C 971.265625 352.660156 971.585938 352.753906 971.84375 352.613281 L 976.144531 350.3125 C 976.398438 350.171875 976.492188 349.851562 976.359375 349.59375 C 976.21875 349.339844 975.898438 349.238281 975.640625 349.378906 "
          fill-opacity="1" fill-rule="nonzero"/>
    <path fill="rgb(100%, 100%, 100%)"
          d="M 974.265625 346.820312 L 966.605469 350.933594 C 966.351562 351.074219 966.257812 351.394531 966.390625 351.652344 C 966.53125 351.90625 966.851562 352 967.105469 351.867188 L 974.769531 347.753906 C 975.023438 347.613281 975.117188 347.292969 974.984375 347.039062 C 974.84375 346.78125 974.523438 346.683594 974.265625 346.820312 "
          fill-opacity="1" fill-rule="nonzero"/>
    <path fill="rgb(100%, 100%, 100%)"
          d="M 972.835938 344.152344 L 968.539062 346.460938 C 968.285156 346.59375 968.183594 346.914062 968.324219 347.171875 C 968.457031 347.425781 968.777344 347.527344 969.035156 347.386719 L 973.335938 345.085938 C 973.589844 344.945312 973.683594 344.625 973.550781 344.367188 C 973.410156 344.113281 973.089844 344.015625 972.835938 344.152344 "
          fill-opacity="1" fill-rule="nonzero"/>
    <path fill="rgb(100%, 100%, 100%)"
          d="M 971.460938 341.597656 L 967.164062 343.910156 C 966.910156 344.042969 966.808594 344.363281 966.949219 344.621094 C 967.082031 344.875 967.402344 344.976562 967.660156 344.835938 L 971.960938 342.527344 C 972.214844 342.386719 972.308594 342.066406 972.175781 341.8125 C 972.035156 341.554688 971.714844 341.457031 971.460938 341.597656 "
          fill-opacity="1" fill-rule="nonzero"/>
    <path fill="rgb(100%, 100%, 100%)"
          d="M 970.085938 339.039062 L 965.789062 341.351562 C 965.535156 341.484375 965.441406 341.804688 965.574219 342.0625 C 965.714844 342.320312 966.035156 342.417969 966.292969 342.277344 L 970.585938 339.972656 C 970.839844 339.832031 970.933594 339.511719 970.800781 339.253906 C 970.660156 338.996094 970.339844 338.90625 970.085938 339.039062 "
          fill-opacity="1" fill-rule="nonzero"/>
    <path fill="rgb(100%, 100%, 100%)"
          d="M 968.722656 336.488281 L 964.421875 338.792969 C 964.164062 338.933594 964.070312 339.253906 964.207031 339.511719 C 964.34375 339.765625 964.664062 339.859375 964.921875 339.726562 L 969.214844 337.414062 C 969.472656 337.28125 969.570312 336.957031 969.433594 336.703125 C 969.296875 336.445312 968.976562 336.347656 968.722656 336.488281 "
          fill-opacity="1" fill-rule="nonzero"/>
    <path fill="rgb(100%, 100%, 100%)"
          d="M 967.421875 334.070312 L 959.761719 338.183594 C 959.503906 338.320312 959.40625 338.640625 959.542969 338.898438 C 959.679688 339.15625 960 339.25 960.253906 339.113281 L 967.917969 334.996094 C 968.171875 334.855469 968.273438 334.535156 968.132812 334.277344 C 968 334.023438 967.679688 333.929688 967.421875 334.070312 "
          fill-opacity="1" fill-rule="nonzero"/>
    <path fill="rgb(100%, 100%, 100%)"
          d="M 965.984375 331.394531 L 961.6875 333.707031 C 961.433594 333.84375 961.332031 334.164062 961.472656 334.417969 C 961.605469 334.675781 961.925781 334.773438 962.183594 334.632812 L 966.484375 332.328125 C 966.738281 332.1875 966.832031 331.867188 966.699219 331.609375 C 966.558594 331.355469 966.238281 331.261719 965.984375 331.394531 "
          fill-opacity="1" fill-rule="nonzero"/>
    <path fill="rgb(100%, 100%, 100%)"
          d="M 964.613281 328.84375 L 960.3125 331.152344 C 960.058594 331.289062 959.957031 331.609375 960.097656 331.867188 C 960.238281 332.125 960.558594 332.21875 960.816406 332.082031 L 965.109375 329.769531 C 965.363281 329.636719 965.464844 329.316406 965.324219 329.058594 C 965.191406 328.804688 964.871094 328.703125 964.613281 328.84375 "
          fill-opacity="1" fill-rule="nonzero"/>
    <path fill="rgb(100%, 100%, 100%)"
          d="M 963.238281 326.285156 L 958.9375 328.597656 C 958.683594 328.734375 958.582031 329.054688 958.722656 329.308594 C 958.863281 329.566406 959.183594 329.664062 959.441406 329.527344 L 963.734375 327.210938 C 963.988281 327.078125 964.089844 326.757812 963.949219 326.503906 C 963.808594 326.246094 963.496094 326.148438 963.238281 326.285156 "
          fill-opacity="1" fill-rule="nonzero"/>
    <path fill="rgb(100%, 100%, 100%)"
          d="M 961.871094 323.734375 L 957.5625 326.035156 C 957.308594 326.175781 957.214844 326.496094 957.347656 326.753906 C 957.488281 327.007812 957.808594 327.109375 958.066406 326.96875 L 962.371094 324.660156 C 962.625 324.527344 962.71875 324.207031 962.585938 323.949219 C 962.445312 323.695312 962.125 323.59375 961.871094 323.734375 "
          fill-opacity="1" fill-rule="nonzero"/>
    <path fill="rgb(100%, 100%, 100%)"
          d="M 960.570312 321.3125 L 952.910156 325.429688 C 952.652344 325.5625 952.554688 325.882812 952.691406 326.140625 C 952.828125 326.398438 953.148438 326.496094 953.402344 326.355469 L 961.066406 322.242188 C 961.320312 322.105469 961.421875 321.785156 961.28125 321.527344 C 961.140625 321.269531 960.828125 321.175781 960.570312 321.3125 "
          fill-opacity="1" fill-rule="nonzero"/>
    <path fill="rgb(100%, 100%, 100%)"
          d="M 959.136719 318.644531 L 954.832031 320.957031 C 954.574219 321.089844 954.480469 321.410156 954.617188 321.667969 C 954.753906 321.921875 955.074219 322.023438 955.332031 321.882812 L 959.632812 319.570312 C 959.886719 319.4375 959.988281 319.117188 959.847656 318.859375 C 959.707031 318.601562 959.394531 318.503906 959.136719 318.644531 "
          fill-opacity="1" fill-rule="nonzero"/>
    <path fill="rgb(100%, 100%, 100%)"
          d="M 957.761719 316.085938 L 953.460938 318.394531 C 953.207031 318.53125 953.113281 318.851562 953.246094 319.109375 C 953.386719 319.367188 953.707031 319.464844 953.964844 319.324219 L 958.257812 317.011719 C 958.511719 316.878906 958.613281 316.558594 958.472656 316.300781 C 958.332031 316.046875 958.019531 315.945312 957.761719 316.085938 "
          fill-opacity="1" fill-rule="nonzero"/>
    <path fill="rgb(100%, 100%, 100%)"
          d="M 956.386719 313.535156 L 952.09375 315.839844 C 951.835938 315.980469 951.738281 316.300781 951.878906 316.558594 C 952.015625 316.8125 952.332031 316.90625 952.589844 316.769531 L 956.882812 314.460938 C 957.136719 314.328125 957.238281 314.007812 957.097656 313.75 C 956.957031 313.488281 956.644531 313.394531 956.386719 313.535156 "
          fill-opacity="1" fill-rule="nonzero"/>
    <path fill="rgb(100%, 100%, 100%)"
          d="M 955.011719 310.976562 L 950.71875 313.285156 C 950.460938 313.421875 950.363281 313.742188 950.503906 314 C 950.636719 314.257812 950.957031 314.351562 951.214844 314.214844 L 955.511719 311.910156 C 955.769531 311.769531 955.863281 311.453125 955.726562 311.191406 C 955.589844 310.9375 955.269531 310.84375 955.011719 310.976562 "
          fill-opacity="1" fill-rule="nonzero"/>
    <path fill="rgb(100%, 100%, 100%)"
          d="M 953.71875 308.558594 L 946.058594 312.671875 C 945.800781 312.8125 945.707031 313.132812 945.839844 313.390625 C 945.980469 313.644531 946.300781 313.742188 946.558594 313.605469 L 954.21875 309.492188 C 954.476562 309.351562 954.570312 309.03125 954.433594 308.773438 C 954.296875 308.519531 953.976562 308.425781 953.71875 308.558594 "
          fill-opacity="1" fill-rule="nonzero"/>
    <path fill="rgb(100%, 100%, 100%)"
          d="M 952.285156 305.886719 L 947.980469 308.199219 C 947.722656 308.339844 947.628906 308.660156 947.765625 308.914062 C 947.902344 309.171875 948.222656 309.265625 948.480469 309.125 L 952.78125 306.8125 C 953.035156 306.679688 953.136719 306.355469 952.996094 306.101562 C 952.855469 305.84375 952.542969 305.746094 952.285156 305.886719 "
          fill-opacity="1" fill-rule="nonzero"/>
    <path fill="rgb(100%, 100%, 100%)"
          d="M 950.910156 303.332031 L 946.617188 305.640625 C 946.359375 305.78125 946.261719 306.09375 946.402344 306.355469 C 946.535156 306.613281 946.855469 306.707031 947.113281 306.566406 L 951.410156 304.265625 C 951.667969 304.125 951.761719 303.804688 951.625 303.550781 C 951.488281 303.292969 951.167969 303.195312 950.910156 303.332031 "
          fill-opacity="1" fill-rule="nonzero"/>
    <path fill="rgb(100%, 100%, 100%)"
          d="M 949.535156 300.78125 L 945.242188 303.082031 C 944.984375 303.222656 944.886719 303.542969 945.027344 303.800781 C 945.160156 304.054688 945.480469 304.148438 945.738281 304.015625 L 950.035156 301.707031 C 950.292969 301.570312 950.386719 301.25 950.25 300.992188 C 950.113281 300.734375 949.792969 300.640625 949.535156 300.78125 "
          fill-opacity="1" fill-rule="nonzero"/>
    <path fill="rgb(100%, 100%, 100%)"
          d="M 948.160156 298.226562 L 943.867188 300.53125 C 943.609375 300.671875 943.511719 300.984375 943.652344 301.242188 C 943.785156 301.5 944.105469 301.597656 944.363281 301.464844 L 948.660156 299.15625 C 948.917969 299.015625 949.011719 298.695312 948.875 298.441406 C 948.738281 298.183594 948.417969 298.089844 948.160156 298.226562 "
          fill-opacity="1" fill-rule="nonzero"/>
    <path fill="rgb(49.01886%, 23.139954%, 63.139343%)"
          d="M 1056.800781 489.925781 L 1063.03125 490.316406 L 1069.703125 487.835938 L 1072.824219 483.972656 L 1008.292969 310.320312 L 992.269531 316.273438 L 1056.800781 489.925781 "
          fill-opacity="1" fill-rule="nonzero"/>
    <path fill="rgb(51.368713%, 27.059937%, 65.489197%)"
          d="M 1069.703125 487.835938 L 1072.824219 483.972656 L 1008.292969 310.320312 L 1004.289062 311.808594 L 1069.703125 487.835938 "
          fill-opacity="1" fill-rule="nonzero"/>
    <path fill="rgb(48.629761%, 19.999695%, 61.178589%)"
          d="M 1056.800781 489.925781 L 1063.03125 490.316406 L 997.613281 314.292969 L 992.269531 316.273438 L 1056.800781 489.925781 "
          fill-opacity="1" fill-rule="nonzero"/>
    <path fill="rgb(85.099792%, 70.199585%, 34.118652%)"
          d="M 991.355469 289.269531 L 991.808594 302.769531 L 992.269531 316.265625 L 1000.28125 313.296875 L 1008.292969 310.320312 L 999.820312 299.792969 L 991.355469 289.269531 "
          fill-opacity="1" fill-rule="nonzero"/>
    <path fill="rgb(85.488892%, 79.60968%, 43.528748%)"
          d="M 991.355469 289.269531 L 1004.289062 311.808594 L 1008.292969 310.320312 L 999.820312 299.792969 L 991.355469 289.269531 "
          fill-opacity="1" fill-rule="nonzero"/>
    <path fill="rgb(84.709167%, 61.959839%, 33.329773%)"
          d="M 991.355469 289.269531 L 991.808594 302.769531 L 992.269531 316.265625 L 997.613281 314.292969 L 991.355469 289.269531 "
          fill-opacity="1" fill-rule="nonzero"/>
    <path fill="rgb(18.03894%, 14.118958%, 6.269836%)"
          d="M 991.652344 298.265625 L 991.355469 289.269531 L 996.996094 296.285156 Z M 991.652344 298.265625 "
          fill-opacity="1" fill-rule="nonzero"/>
    <path fill="rgb(23.919678%, 26.669312%, 63.529968%)"
          d="M 1038.59375 496.691406 L 1044.816406 497.078125 L 1051.488281 494.605469 L 1054.609375 490.734375 L 990.085938 317.089844 L 974.0625 323.035156 L 1038.59375 496.691406 "
          fill-opacity="1" fill-rule="nonzero"/>
    <path fill="rgb(27.839661%, 29.019165%, 65.489197%)"
          d="M 1051.488281 494.605469 L 1054.609375 490.734375 L 990.085938 317.089844 L 986.082031 318.574219 L 1051.488281 494.605469 "
          fill-opacity="1" fill-rule="nonzero"/>
    <path fill="rgb(22.749329%, 23.529053%, 61.178589%)"
          d="M 1038.59375 496.691406 L 1044.816406 497.078125 L 979.398438 321.054688 L 974.0625 323.035156 L 1038.59375 496.691406 "
          fill-opacity="1" fill-rule="nonzero"/>
    <path fill="rgb(85.099792%, 70.199585%, 34.118652%)"
          d="M 973.144531 296.027344 L 973.609375 309.539062 L 974.0625 323.035156 L 982.070312 320.058594 L 990.085938 317.082031 L 981.621094 306.5625 L 973.144531 296.027344 "
          fill-opacity="1" fill-rule="nonzero"/>
    <path fill="rgb(85.488892%, 79.60968%, 43.528748%)"
          d="M 973.144531 296.027344 L 986.082031 318.574219 L 990.085938 317.082031 L 981.621094 306.5625 L 973.144531 296.027344 "
          fill-opacity="1" fill-rule="nonzero"/>
    <path fill="rgb(84.709167%, 61.959839%, 33.329773%)"
          d="M 973.144531 296.027344 L 973.609375 309.539062 L 974.0625 323.035156 L 979.398438 321.054688 L 973.144531 296.027344 "
          fill-opacity="1" fill-rule="nonzero"/>
    <path fill="rgb(18.03894%, 14.118958%, 6.269836%)"
          d="M 973.453125 305.027344 L 973.144531 296.027344 L 978.792969 303.046875 Z M 973.453125 305.027344 "
          fill-opacity="1" fill-rule="nonzero"/>
    <path fill="rgb(55.288696%, 81.959534%, 91.758728%)"
          d="M 944.886719 425.460938 C 948.679688 426.199219 952.496094 426.859375 956.328125 427.417969 C 992.828125 432.785156 1030.078125 431.675781 1066.496094 426.199219 C 1094.074219 422.054688 1121.804688 415.296875 1147.515625 404.152344 C 1154.566406 447.96875 1148.484375 496.414062 1125.835938 534.871094 C 1106.820312 567.148438 975.367188 573.773438 954.964844 561.386719 C 934.40625 548.910156 931.976562 516.375 933.949219 494.710938 C 936.769531 463.675781 939.914062 441.820312 944.886719 425.460938 "
          fill-opacity="1" fill-rule="nonzero"/>
    <path fill="rgb(45.098877%, 79.219055%, 90.979004%)"
          d="M 933.949219 494.710938 C 936.769531 463.675781 939.914062 441.820312 944.886719 425.460938 C 948.679688 426.199219 952.496094 426.859375 956.328125 427.417969 C 959.742188 427.917969 963.15625 428.351562 966.578125 428.734375 C 956.78125 447.894531 955.746094 471 960.355469 491.773438 C 964.898438 512.273438 975.609375 532.078125 993.011719 544.378906 C 1011.117188 557.175781 1033.621094 560.253906 1055.171875 557 C 1078.644531 553.453125 1101.050781 542.84375 1120.34375 529.265625 C 1125.089844 525.917969 1129.722656 522.355469 1134.191406 518.582031 C 1131.703125 524.175781 1128.925781 529.621094 1125.835938 534.871094 C 1106.820312 567.148438 975.367188 573.773438 954.964844 561.386719 C 934.40625 548.910156 931.976562 516.375 933.949219 494.710938 "
          fill-opacity="1" fill-rule="nonzero"/>
    <path fill="rgb(85.488892%, 80.389404%, 9.408569%)"
          d="M 755.660156 392.195312 C 754.226562 388.566406 749.875 386.753906 746.792969 388.550781 C 744.585938 389.824219 742.425781 393.152344 740.921875 396.683594 C 739.46875 400.0625 738.433594 403.761719 737.902344 407.59375 C 737.578125 409.929688 737.460938 412.441406 737.9375 414.550781 C 739.042969 419.328125 744.027344 419.699219 745.964844 419.902344 C 750.074219 420.257812 751.855469 418.066406 752.542969 410.582031 C 753.039062 406.015625 755.21875 401.496094 756.039062 397.089844 C 756.402344 395.179688 756.21875 393.566406 755.660156 392.195312 "
          fill-opacity="1" fill-rule="nonzero"/>
    <path fill="rgb(85.099792%, 66.268921%, 10.978699%)"
          d="M 756.039062 397.089844 C 756.402344 395.179688 756.21875 393.566406 755.660156 392.195312 C 755.511719 391.8125 755.3125 391.460938 755.101562 391.125 C 751.945312 399.800781 747.90625 407.5 742.976562 411.660156 C 741.242188 413.0625 739.464844 413.78125 737.761719 413.570312 C 737.808594 413.898438 737.863281 414.234375 737.9375 414.550781 C 739.042969 419.328125 744.027344 419.699219 745.964844 419.902344 C 750.074219 420.253906 751.855469 418.066406 752.542969 410.582031 C 753.039062 406.015625 755.21875 401.496094 756.039062 397.089844 "
          fill-opacity="1" fill-rule="nonzero"/>
    <path fill="rgb(85.488892%, 81.959534%, 56.079102%)"
          d="M 744.109375 393.464844 C 743.152344 395.035156 742.25 396.605469 741.679688 398.585938 C 741.183594 400.292969 741.742188 400.324219 742.371094 399.261719 C 742.734375 398.675781 743.042969 397.96875 743.410156 397.363281 C 744.820312 395.035156 746.707031 396.089844 748.023438 393.355469 C 748.921875 391.578125 748.417969 390.433594 747.570312 390.386719 C 746.566406 390.332031 745.050781 391.90625 744.109375 393.464844 "
          fill-opacity="1" fill-rule="nonzero"/>
    <path fill="rgb(58.039856%, 82.749939%, 91.758728%)"
          d="M 1033.472656 54.4375 C 1050.5625 60.996094 1066.839844 71.289062 1079.441406 82.820312 C 1089.730469 92.234375 1098.214844 103.871094 1103.355469 116.875 C 1107.25 126.738281 1113.253906 145.589844 1104.542969 154.597656 C 1100.636719 158.628906 1095.476562 157.324219 1093.375 152.21875 C 1092.265625 149.535156 1092.195312 146.558594 1091.980469 143.660156 C 1090.761719 126.835938 1084.722656 112.335938 1075.492188 100.171875 C 1068.304688 90.707031 1039.730469 60.546875 1033.472656 54.4375 "
          fill-opacity="1" fill-rule="nonzero"/>
    <path fill="rgb(65.879822%, 85.488892%, 92.158508%)"
          d="M 1137.355469 429.054688 C 1137.355469 429.054688 1126.367188 493.789062 1118.984375 503.800781 C 1111.609375 513.816406 1147.984375 522.320312 1137.355469 429.054688 "
          fill-opacity="1" fill-rule="nonzero"/>
</svg>